<?xml version="1.0" encoding="UTF-8"?>
<svg version="1.1" xmlns="http://www.w3.org/2000/svg" width="512" height="512">
<path d="M0 0 C16.68768298 13.79030548 27.60375885 33.36967122 31.34082031 54.69335938 C32.26966159 69.34599063 32.28654379 83.76128866 27.34082031 97.69335938 C26.96699219 98.76328125 26.59316406 99.83320313 26.20800781 100.93554688 C21.36871191 113.53053554 13.68376519 123.20380623 4.34082031 132.69335938 C3.633125 133.42554688 2.92542969 134.15773437 2.19628906 134.91210938 C-5.59629452 142.42159718 -15.66956668 147.69751417 -25.65917969 151.69335938 C-25.98917969 187.99335938 -26.31917969 224.29335938 -26.65917969 261.69335938 C-24.01917969 260.70335937 -21.37917969 259.71335937 -18.65917969 258.69335938 C-9.72581702 257.42532452 -1.65683141 258.94079736 5.59863281 264.38867188 C11.6325284 269.88820033 14.7684304 275.79227079 15.71582031 283.90429688 C16.10353777 294.29997121 11.8703012 301.85332997 7.21582031 310.89257812 C6.83206741 311.64194138 6.44831451 312.39130463 6.05293274 313.16337585 C4.81853516 315.57074435 3.58003374 317.97596675 2.34082031 320.38085938 C1.91763519 321.20394592 1.49445007 322.02703247 1.05844116 322.87506104 C-4.8607403 334.38323586 -10.87720655 345.82351791 -17.15917969 357.13867188 C-18.78138681 360.06478942 -20.34437679 363.0086298 -21.84667969 365.99804688 C-28.09000488 378.38588205 -36.18801929 389.83420391 -49.92480469 394.45556641 C-55.44656944 396.10406496 -61.03104762 397.46214104 -66.65917969 398.69335938 C-68.03783203 398.99693359 -68.03783203 398.99693359 -69.44433594 399.30664062 C-73.19579402 399.96165712 -76.8787309 400.25183476 -80.65917969 399.69335938 C-81.99251302 398.36002604 -83.32584635 397.02669271 -84.65917969 395.69335938 C-87.54330811 395.79455686 -89.86694988 396.10915314 -92.65917969 396.69335938 C-94.65891052 397.04904272 -96.65891779 397.40317485 -98.65917969 397.75585938 C-100.32625519 398.06617098 -101.9930704 398.37790118 -103.65917969 398.69335938 C-103.55605469 399.43585938 -103.45292969 400.17835938 -103.34667969 400.94335938 C-103.65917969 403.69335938 -103.65917969 403.69335938 -105.8054657 405.73457336 C-115.45241967 412.35623151 -130.16579897 414.13450034 -141.47167969 416.88085938 C-142.76252157 417.19722477 -142.76252157 417.19722477 -144.07944107 417.51998138 C-180.8452622 426.43929011 -216.82854147 426.44614284 -254.4019208 425.78203297 C-307.34101094 424.85435007 -355.42438855 432.02750036 -406.4691925 447.05979919 C-407.30934308 447.30459455 -408.14949366 447.54938992 -409.01510334 447.80160332 C-410.55085422 448.25168981 -412.08402283 448.71074804 -413.61359692 449.18139839 C-418.44872145 450.59878305 -422.61383748 451.01267868 -427.65917969 450.69335938 C-430.15917969 449.19335938 -430.15917969 449.19335938 -431.65917969 446.69335938 C-432.26295556 443.88723915 -432.34103927 441.48955666 -431.65917969 438.69335938 C-429.28417969 436.19335938 -429.28417969 436.19335938 -426.65917969 434.69335938 C-425.99917969 434.69335938 -425.33917969 434.69335938 -424.65917969 434.69335938 C-424.65917969 400.70335937 -424.65917969 366.71335937 -424.65917969 331.69335938 C-426.30917969 331.36335938 -427.95917969 331.03335937 -429.65917969 330.69335938 C-432.1874976 326.90088251 -432.27240138 324.14386225 -431.65917969 319.69335938 C-429.84754702 317.01904448 -428.78156892 316.73415579 -425.65917969 315.69335938 C-422.91980623 315.53848118 -420.20158905 315.43545773 -417.45996094 315.37695312 C-416.64017258 315.35612671 -415.82038422 315.33530029 -414.97575378 315.31384277 C-412.30782252 315.24782783 -409.63979289 315.18901866 -406.97167969 315.13085938 C-405.15006361 315.08803543 -403.32844903 315.04514795 -401.50683594 315.00219727 C-388.21998746 314.70007164 -374.95002229 314.60591962 -361.65917969 314.69335938 C-361.65917969 306.44335938 -361.65917969 298.19335938 -361.65917969 289.69335938 C-366.23116211 289.71692505 -366.23116211 289.71692505 -370.89550781 289.7409668 C-380.97768259 289.79072559 -391.05986285 289.82383355 -401.14212799 289.84879589 C-407.25367236 289.86443685 -413.36509067 289.88564676 -419.4765625 289.91967773 C-425.37691992 289.9523267 -431.27715625 289.9702242 -437.17759705 289.9779911 C-439.42620245 289.98352463 -441.67480139 289.99433026 -443.9233551 290.01054955 C-447.07827969 290.03239704 -450.23270697 290.03532319 -453.38769531 290.03393555 C-454.775215 290.05011429 -454.775215 290.05011429 -456.19076538 290.06661987 C-463.25503582 290.03310443 -468.96111509 289.03168203 -474.47167969 284.25585938 C-480.01432959 277.76304092 -481.03902559 273.55680241 -480.92480469 264.99023438 C-480.55711877 260.42660333 -479.6628078 257.18964606 -476.65917969 253.69335938 C-471.66747011 249.58465979 -466.97972104 246.56507613 -460.38813782 246.57310486 C-459.08196503 246.57104286 -459.08196503 246.57104286 -457.74940491 246.56893921 C-456.79706467 246.57253448 -455.84472443 246.57612976 -454.86352539 246.57983398 C-453.85846954 246.57968796 -452.8534137 246.57954193 -451.81790161 246.57939148 C-448.49023289 246.58008909 -445.1626199 246.58787444 -441.83496094 246.59570312 C-439.52996349 246.59756784 -437.22496564 246.59899149 -434.91996765 246.59999084 C-428.84873361 246.60381178 -422.77752343 246.61363849 -416.70629883 246.62469482 C-410.51286136 246.63491802 -404.31942004 246.63949042 -398.12597656 246.64453125 C-385.97036542 246.65526111 -373.81477827 246.67285451 -361.65917969 246.69335938 C-361.65917969 238.44335938 -361.65917969 230.19335938 -361.65917969 221.69335938 C-363.49222656 221.73976563 -365.32527344 221.78617188 -367.21386719 221.83398438 C-369.65395496 221.87152419 -372.09406048 221.90792196 -374.53417969 221.94335938 C-375.73816406 221.976875 -376.94214844 222.01039063 -378.18261719 222.04492188 C-386.37164223 222.13393302 -394.19617354 221.63650754 -400.59375 215.98413086 C-405.78541919 210.45968312 -407.15804114 204.67081382 -406.96777344 197.21679688 C-406.14349487 190.47649365 -402.63446185 186.15310651 -397.53808594 181.91992188 C-392.60232053 178.69782138 -388.06513882 178.41985686 -382.29589844 178.49804688 C-381.50391556 178.50087677 -380.71193268 178.50370667 -379.89595032 178.50662231 C-377.3793697 178.51777075 -374.86315179 178.54286515 -372.34667969 178.56835938 C-370.6350963 178.57839609 -368.92350731 178.58752073 -367.21191406 178.59570312 C-363.02741887 178.61598667 -358.8437028 178.65514455 -354.65917969 178.69335938 C-354.65917969 172.09335938 -354.65917969 165.49335938 -354.65917969 158.69335938 C-356.30917969 158.36335937 -357.95917969 158.03335938 -359.65917969 157.69335938 C-362.13582293 153.97839451 -361.96180917 151.10194266 -361.96557617 146.80053711 C-361.97389969 145.99686203 -361.98222321 145.19318695 -361.99079895 144.36515808 C-362.01493342 141.70237399 -362.02367795 139.03983509 -362.03027344 136.37695312 C-362.0392416 134.52189562 -362.04836348 132.66683886 -362.05763245 130.81178284 C-362.07413745 126.91706588 -362.08182452 123.02243499 -362.0847168 119.12768555 C-362.09008289 114.15675924 -362.12768259 109.18665243 -362.17346096 104.21595669 C-362.20333824 100.38014344 -362.21044276 96.54452426 -362.21144295 92.70860481 C-362.21562898 90.87750585 -362.22799782 89.04640543 -362.24896049 87.21542168 C-362.46337661 66.85547203 -362.46337661 66.85547203 -354.88548279 58.81028748 C-347.65011067 52.05055387 -340.24065969 50.54772415 -330.61698914 50.53514099 C-329.81234075 50.53020301 -329.00769236 50.52526504 -328.17866069 50.52017742 C-325.48556424 50.50483352 -322.79249158 50.49645023 -320.09936523 50.48803711 C-318.16761568 50.47845614 -316.23586821 50.46844593 -314.30412292 50.45803833 C-309.06079793 50.4310069 -303.81746396 50.40998777 -298.57410789 50.39003634 C-293.09413247 50.36816595 -287.61418469 50.34078241 -282.13423157 50.3139801 C-271.75753479 50.26406748 -261.38082265 50.21912333 -251.00409585 50.17595774 C-239.19040165 50.12657316 -227.37673517 50.07165954 -215.56306779 50.01627815 C-191.26179764 49.90248005 -166.96050087 49.79563626 -142.65917969 49.69335938 C-142.33522217 48.61594482 -142.01126465 47.53853027 -141.67749023 46.4284668 C-141.23806584 44.98933723 -140.79835317 43.55029566 -140.35839844 42.11132812 C-140.04074524 41.05069153 -140.04074524 41.05069153 -139.7166748 39.96862793 C-133.4003788 19.42441726 -118.49377165 2.2798955 -100.10839844 -8.49023438 C-67.41300904 -25.70807817 -29.22226868 -23.01318158 0 0 Z " fill="#020101" transform="translate(480.6591796875,40.306640625)"/>
<path d="M0 0 C1.35665771 -0.00412399 1.35665771 -0.00412399 2.74072266 -0.0083313 C4.22533745 0.00245453 4.22533745 0.00245453 5.73994446 0.01345825 C7.30604965 0.01302017 7.30604965 0.01302017 8.90379333 0.01257324 C12.36138668 0.01396871 15.81876562 0.02954026 19.27632141 0.04519653 C21.67099896 0.04892589 24.06567804 0.05177323 26.46035767 0.05377197 C32.76835836 0.06141451 39.07626721 0.08106839 45.38423157 0.10317993 C51.818952 0.12362497 58.25368725 0.13277082 64.68843079 0.14285278 C77.3180273 0.16431364 89.9475601 0.19807359 102.57710266 0.24050903 C102.58257111 2.10639679 102.58257111 2.10639679 102.58815002 4.00997925 C102.62506359 15.72294208 102.68279644 27.43564111 102.7610054 39.14840317 C102.80054362 45.17032728 102.83270103 51.19210378 102.84809875 57.21414185 C102.86322343 63.02388968 102.89759464 68.83323183 102.94541168 74.64279938 C102.96026873 76.86116259 102.96814614 79.07958371 102.96898651 81.29799652 C102.97134487 84.40134628 102.99833399 87.50356454 103.03120422 90.60671997 C103.02617386 91.52741272 103.02114349 92.44810547 103.01596069 93.396698 C103.07860553 97.21007504 103.13588067 99.54289479 105.20240784 102.81027222 C108.33390297 104.69631651 110.46642824 104.7481487 114.11811829 104.75808716 C114.76576645 104.76509644 115.41341461 104.77210571 116.08068848 104.77932739 C118.21534978 104.79689129 120.34867857 104.78529224 122.48335266 104.77175903 C123.97021234 104.77445446 125.4570703 104.7783373 126.94392395 104.78335571 C130.05766102 104.78924851 133.1709386 104.7806955 136.28462219 104.76199341 C140.27301354 104.73920318 144.26032825 104.75232755 148.24868011 104.77628326 C151.31825349 104.79074761 154.38757221 104.78613251 157.45715332 104.77577209 C158.9275424 104.77310653 160.3979547 104.77636865 161.86831665 104.78569031 C163.92486167 104.79586738 165.9796711 104.78034305 168.03608704 104.75808716 C169.20538757 104.75490479 170.37468811 104.75172241 171.579422 104.7484436 C174.59854891 104.42476391 174.59854891 104.42476391 176.95179749 102.81027222 C179.44529931 98.86780696 179.14800877 95.18379952 179.1230011 90.60671997 C179.13850761 89.14280823 179.13850761 89.14280823 179.15432739 87.64932251 C179.18381895 84.42434253 179.18525594 81.19998843 179.18647766 77.97488403 C179.20145497 75.73856403 179.21818116 73.5022551 179.23658752 71.26596069 C179.28032338 65.38051859 179.30027408 59.49522571 179.31532288 53.60964966 C179.33487138 47.60370029 179.37684395 41.59791261 179.41694641 35.59207153 C179.49231618 23.80826716 179.54256677 12.02449886 179.57710266 0.24050903 C183.53710266 0.24050903 187.49710266 0.24050903 191.57710266 0.24050903 C191.65960266 2.05550903 191.74210266 3.87050903 191.82710266 5.74050903 C193.70204252 29.12658323 203.60415514 50.38537318 220.55366516 66.67019653 C238.56298166 81.98044234 258.71877863 88.48653568 282.13960266 88.30300903 C283.24368469 88.29849731 284.34776672 88.2939856 285.48530579 88.28933716 C288.18262966 88.27766043 290.87983613 88.26128428 293.57710266 88.24050903 C293.85864164 104.26179726 294.06961953 120.28227154 294.19884872 136.30544281 C294.26047412 143.74704657 294.34433219 151.18710503 294.4823761 158.62771606 C294.60277639 165.12048007 294.67958385 171.61212426 294.7061646 178.10597372 C294.72168168 181.53850747 294.75757014 184.96784076 294.84586334 188.39933777 C295.19054638 203.47091575 295.28390195 214.87410748 284.53321838 226.25320435 C284.02446387 226.7601395 283.51570936 227.26707466 282.99153805 227.78937149 C281.00865628 229.82370562 279.39492198 232.07609033 277.76460266 234.39675903 C276.12255049 236.63730223 274.47714305 238.87419446 272.81367493 241.09890747 C269.90063105 245.00515154 267.10089632 248.9286763 264.47944641 253.03738403 C263.72824524 254.16370239 263.72824524 254.16370239 262.96186829 255.31277466 C262.02742382 256.71885506 261.12829633 258.14935904 260.27436829 259.60574341 C258.83978067 261.71110351 257.77803508 262.94379843 255.57710266 264.24050903 C251.14397511 264.69686645 246.95812412 263.9351058 242.57710266 263.24050903 C241.20260277 263.06356716 239.82730869 262.8927091 238.45137024 262.72732544 C234.62387765 262.26450902 230.80211499 261.76575404 226.98054504 261.25653076 C215.70854236 259.75483395 204.43574363 258.29852705 193.12788391 257.09207153 C192.29631271 257.00292984 191.46474152 256.91378815 190.60797119 256.82194519 C186.62738495 256.3974819 182.64597967 255.98431937 178.66279602 255.58499146 C177.2331672 255.43522431 175.80355983 255.28525216 174.37397766 255.13504028 C172.50757629 254.94711914 172.50757629 254.94711914 170.60346985 254.75540161 C167.57710266 254.24050903 167.57710266 254.24050903 164.57710266 252.24050903 C165.06364319 251.88448608 165.55018372 251.52846313 166.0514679 251.16165161 C171.02276442 247.52038217 175.98211189 243.86332818 180.93354797 240.19509888 C182.63584957 238.93645216 184.34073386 237.68128721 186.04878235 236.43045044 C188.33734623 234.75302103 190.61449257 233.06112192 192.88960266 231.36550903 C193.57530334 230.86768921 194.26100403 230.36986938 194.96748352 229.85696411 C201.72281229 224.77688331 207.12895685 218.78456932 208.57710266 210.24050903 C209.49436895 202.0982001 208.27733955 196.02312935 203.57710266 189.24050903 C198.64208201 183.43604306 192.66381786 180.96907226 185.22993469 179.90432739 C176.36633493 179.42430877 169.4662747 182.90794731 161.70210266 186.67800903 C160.27586887 187.35121904 158.84859668 188.02223296 157.42036438 188.69119263 C154.38997941 190.11320131 151.36483991 191.54563612 148.34272766 192.98513794 C140.97200953 196.48619093 133.54397647 199.86316622 126.12342834 203.25689697 C123.00562667 204.6843929 119.89053757 206.11773123 116.77610779 207.55256653 C115.33340258 208.21641266 113.88995872 208.87865626 112.44572449 209.53916931 C109.41256799 210.92696771 106.39358973 212.32973234 103.39350891 213.7883606 C97.66448006 216.54331432 92.63331302 218.05415995 86.32710266 218.74050903 C65.83659618 221.53531293 42.57536409 231.2804474 27.13179016 245.49050903 C23.65912353 247.86933877 20.46546981 247.91343136 16.38960266 247.99050903 C15.22485413 248.03389404 15.22485413 248.03389404 14.03657532 248.07815552 C5.55272472 248.3583389 -2.93615308 248.30786415 -11.42289734 248.24050903 C-11.42289734 239.66050903 -11.42289734 231.08050903 -11.42289734 222.24050903 C-8.53024109 222.20183716 -8.53024109 222.20183716 -5.57914734 222.16238403 C-3.02704186 222.10608759 -0.4749594 222.04874061 2.07710266 221.99050903 C3.34554016 221.97632935 4.61397766 221.96214966 5.92085266 221.94754028 C14.43381789 221.72584848 20.76011272 221.15794608 26.95210266 214.80300903 C31.1058178 208.25291978 31.61677643 201.85864959 30.57710266 194.24050903 C28.35854921 189.21915674 24.7694251 185.70676499 19.95185852 183.05911255 C14.44176605 181.15972527 8.41148715 181.55052379 2.63960266 181.49050903 C1.274331 181.46231232 -0.09090598 181.43237978 -1.45610046 181.40066528 C-4.77804846 181.33023529 -8.1004755 181.2830769 -11.42289734 181.24050903 C-11.42289734 172.33050903 -11.42289734 163.42050903 -11.42289734 154.24050903 C-9.19281921 154.23640015 -6.96274109 154.23229126 -4.66508484 154.22805786 C2.72311623 154.2108202 10.11097321 154.16625169 17.4989624 154.10841846 C21.97608571 154.07420366 26.45286979 154.0490471 30.93013 154.04495239 C35.25523257 154.04065755 39.5795706 154.01209743 43.9044342 153.96707726 C45.55010008 153.95413997 47.19585762 153.94978118 48.84156799 153.95435524 C61.16926274 154.19875799 61.16926274 154.19875799 71.57710266 148.24050903 C76.65957523 142.89053791 78.05568318 138.06151092 77.89350891 130.80691528 C77.23927724 125.50036949 75.00578352 121.66918989 71.26460266 117.92800903 C65.25684794 114.15569793 60.4229704 112.79426788 53.34687805 112.80813599 C52.55581665 112.79794434 51.76475525 112.78775269 50.94972229 112.7772522 C48.35799439 112.74727103 45.76663699 112.73787927 43.17475891 112.72879028 C41.3687112 112.71193253 39.56267515 112.69378081 37.75665283 112.6743927 C33.02044822 112.6270056 28.28429088 112.59712333 23.54792786 112.57095337 C18.70794849 112.54109075 13.86813179 112.49458005 9.02827454 112.44949341 C-0.45538278 112.36358865 -9.93902351 112.2977265 -19.42289734 112.24050903 C-19.42289734 105.64050903 -19.42289734 99.04050903 -19.42289734 92.24050903 C-17.44289734 91.25050903 -15.46289734 90.26050903 -13.42289734 89.24050903 C-11.92176043 86.23823522 -12.27864069 83.1494468 -12.28105164 79.85671997 C-12.27757721 79.0955336 -12.27410278 78.33434723 -12.27052307 77.5500946 C-12.26316226 75.89405805 -12.25781861 74.23801161 -12.25423241 72.58196259 C-12.24707242 69.95888758 -12.23140858 67.33600023 -12.21289062 64.71298218 C-12.16040517 57.25392258 -12.1124596 49.79496409 -12.0969696 42.33572388 C-12.08687709 37.77502219 -12.05751808 33.21479003 -12.0156498 28.65427399 C-12.0033503 26.91763107 -11.99821662 25.18092179 -12.00044823 23.44423676 C-12.00280636 21.00960891 -11.98059678 18.57632249 -11.95292664 16.14187622 C-11.95952805 15.42788162 -11.96612946 14.71388702 -11.97293091 13.97825623 C-11.87955565 8.95978842 -10.58288015 6.09983799 -7.42289734 2.24050903 C-4.27833114 0.14413157 -3.57811126 -0.00838948 0 0 Z " fill="#E09873" transform="translate(145.4228973388672,106.75949096679688)"/>
<path d="M0 0 C3.05357079 1.61320721 5.23833566 3.03060902 7.375 5.75 C8.3338698 9.20193128 8.88373067 12.52687665 8 16 C4.18022908 21.51574922 -0.79923946 25.0918608 -6.1875 29 C-7.98412766 30.32409087 -9.77967778 31.64964492 -11.57421875 32.9765625 C-12.47962402 33.64461914 -13.3850293 34.31267578 -14.31787109 35.00097656 C-18.42722008 38.06372456 -22.46564748 41.21448322 -26.5 44.375 C-31.24198266 48.08173961 -35.98979179 51.77331692 -40.8125 55.375 C-41.72257813 56.06078125 -42.63265625 56.7465625 -43.5703125 57.453125 C-46.47453371 59.62809243 -49.42138847 61.7411617 -52.3671875 63.859375 C-54.30768272 65.28071626 -56.24778394 66.70259559 -58.1875 68.125 C-59.13407471 68.79450684 -60.08064941 69.46401367 -61.0559082 70.15380859 C-66.58426279 73.9690954 -66.58426279 73.9690954 -69.20703125 79.8359375 C-69.24016986 83.0317153 -69.24016986 83.0317153 -67.5 85.5 C-65.03539391 87.27031125 -65.03539391 87.27031125 -61.84765625 87 C-56.71286377 85.66547525 -53.82998153 82.98878935 -49.9375 79.5 C-48.58118902 78.2912536 -47.21549904 77.09293439 -45.83984375 75.90625 C-44.94833618 75.10670898 -44.94833618 75.10670898 -44.03881836 74.29101562 C-38.45319687 70.75410191 -31.90135355 72.2425573 -25.69140625 73.00390625 C-24.67244263 73.12236404 -23.653479 73.24082184 -22.6036377 73.36286926 C-19.25557022 73.75455731 -15.90909962 74.15847882 -12.5625 74.5625 C-10.23566269 74.83666941 -7.90875745 75.1102628 -5.58178711 75.38330078 C6.10073242 76.76321951 17.77306325 78.21317926 29.4375 79.73828125 C31.03163475 79.94587822 31.03163475 79.94587822 32.65797424 80.15766907 C37.70081899 80.81566006 42.74197228 81.48359002 47.78100586 82.17016602 C63.86875959 85.38043349 63.86875959 85.38043349 78.88671875 82.0859375 C79.48097656 81.19132812 80.07523437 80.29671875 80.6875 79.375 C81.75484375 77.85519531 81.75484375 77.85519531 82.84375 76.3046875 C83.91109375 74.66886719 83.91109375 74.66886719 85 73 C86.15326644 71.39253616 87.30675395 69.78520331 88.46948242 68.18457031 C89.72915243 66.4423929 90.9692103 64.68744503 92.20703125 62.9296875 C101.0807004 50.38360032 110.35038466 38.10370584 119.6171875 25.84619141 C120.6121621 24.51780195 121.59513584 23.18039284 122.5703125 21.83740234 C123.09367187 21.12148926 123.61703125 20.40557617 124.15625 19.66796875 C124.62869141 19.01465576 125.10113281 18.36134277 125.58789062 17.68823242 C127.61760286 15.26163144 129.35114714 14.09676769 132.48828125 13.62890625 C141.05391695 13.42750126 141.05391695 13.42750126 144.5625 16.25 C147.43008663 19.48522594 148.7639942 21.24093353 149.3359375 25.50390625 C148.84495276 30.61357302 146.6088941 34.49221769 144.25 39 C143.50290771 40.46022583 143.50290771 40.46022583 142.74072266 41.94995117 C138.92795625 49.35187007 134.95520546 56.66476693 130.9140625 63.9440918 C127.73393596 69.70655005 124.69856514 75.52698935 121.7421875 81.40625 C120.991713 82.89152715 120.24122466 84.3767973 119.49072266 85.86206055 C118.37961784 88.06261747 117.27345005 90.2649662 116.18280029 92.47573853 C105.69143148 113.74014625 105.69143148 113.74014625 95.4609375 118.16796875 C88.06522842 120.66842277 80.47992265 122.55283745 72.8125 124 C68.86709947 125.03485916 67.28686649 125.66498637 65 129 C64.67 130.65 64.34 132.3 64 134 C54.595 135.98 54.595 135.98 45 138 C45 139.65 45 141.3 45 143 C36.53194955 151.68737806 18.72613508 153.38460163 7.1875 156.1875 C5.89665812 156.50386539 5.89665812 156.50386539 4.57973862 156.82662201 C-32.18608252 165.74593073 -68.16936179 165.75278347 -105.74274111 165.08867359 C-158.68183125 164.1609907 -206.76520886 171.33414099 -257.81001282 186.36643982 C-258.65016339 186.61123518 -259.49031397 186.85603054 -260.35592365 187.10824394 C-261.89167454 187.55833043 -263.42484315 188.01738867 -264.95441723 188.48803902 C-269.78954176 189.90542368 -273.9546578 190.3193193 -279 190 C-281.5 188.5 -281.5 188.5 -283 186 C-283.60377587 183.19387978 -283.68185958 180.79619729 -283 178 C-280.625 175.5 -280.625 175.5 -278 174 C-277.34 174 -276.68 174 -276 174 C-276 140.01 -276 106.02 -276 71 C-249.65693788 69.85464947 -249.65693788 69.85464947 -237.10462379 69.55444336 C-234.72388191 69.49740912 -232.34322593 69.43747202 -229.96257019 69.37695312 C-224.06290914 69.22747414 -218.16314786 69.08215164 -212.2633667 68.9375 C-202.55968749 68.69941284 -192.85647754 68.453352 -183.15402603 68.16908932 C-178.92342968 68.04695489 -174.69385373 67.95829879 -170.46191406 67.89282227 C-168.6842176 67.84757276 -166.90654461 67.80138349 -165.12890625 67.75390625 C-164.38574661 67.75249634 -163.64258698 67.75108643 -162.87690735 67.74963379 C-155.72535986 67.50114015 -150.67469109 63.54973469 -145.5234375 58.92578125 C-132.46535239 47.74919147 -113.77625898 39.64947655 -96.71875 38.39453125 C-86.78211372 37.35586657 -78.56001452 33.22680904 -69.6875 28.875 C-67.99726131 28.06713273 -66.30583136 27.26175361 -64.61328125 26.45874023 C-61.13684318 24.80757663 -57.66534547 23.14663074 -54.19677734 21.47900391 C-46.77104318 17.92153166 -39.27890955 14.5101687 -31.78384399 11.10186768 C-29.54812445 10.08440123 -27.31419528 9.06310719 -25.08081055 8.04052734 C-17.52357606 4.58433993 -17.52357606 4.58433993 -14 3 C-13.38527832 2.7204245 -12.77055664 2.440849 -12.13720703 2.15280151 C-7.80846574 0.22727422 -4.76020932 -0.60584482 0 0 Z " fill="#FEDECE" transform="translate(332,301)"/>
<path d="M0 0 C1.60294922 0.52787109 1.60294922 0.52787109 3.23828125 1.06640625 C23.16215497 8.16033544 37.18681761 21.66562242 46.375 40.5625 C53.81073497 57.93320308 54.75095849 77.19658734 48 95 C44.23117565 103.98793048 39.54635459 111.74318833 33 119 C32.39671875 119.69609375 31.7934375 120.3921875 31.171875 121.109375 C21.22681727 131.89015187 3.90726045 141.34532812 -11.06494141 142.10473633 C-33.62585025 142.70503172 -51.55741229 138.95826112 -69 124 C-69.72574219 123.38640625 -70.45148438 122.7728125 -71.19921875 122.140625 C-82.98772596 111.3016832 -91.85019331 93.92614145 -93.17700195 77.85620117 C-93.76146232 55.79340432 -89.14545069 37.42621891 -74.390625 20.48828125 C-55.33296845 0.65212565 -26.64127612 -8.95233165 0 0 Z " fill="#7FD060" transform="translate(445,39)"/>
<path d="M0 0 C1.60294922 0.52787109 1.60294922 0.52787109 3.23828125 1.06640625 C23.16215497 8.16033544 37.18681761 21.66562242 46.375 40.5625 C53.81073497 57.93320308 54.75095849 77.19658734 48 95 C44.23117565 103.98793048 39.54635459 111.74318833 33 119 C32.39671875 119.69609375 31.7934375 120.3921875 31.171875 121.109375 C21.18754219 131.93272737 3.80273103 141.39763417 -11.22607422 142.10473633 C-13.88085575 142.17013374 -16.53194423 142.18560453 -19.1875 142.1875 C-20.10208984 142.19974609 -21.01667969 142.21199219 -21.95898438 142.22460938 C-22.83232422 142.22654297 -23.70566406 142.22847656 -24.60546875 142.23046875 C-25.40106201 142.23457764 -26.19665527 142.23868652 -27.01635742 142.24291992 C-29 142 -29 142 -31 140 C-30.32195312 139.59910156 -29.64390625 139.19820312 -28.9453125 138.78515625 C-9.48556722 126.89907915 3.0544943 110.13802232 9.2578125 88.26171875 C10.55506559 82.56063282 11.33850677 76.80547344 12 71 C6.74132747 73.63509534 3.12196013 77.73042805 -0.8984375 81.9140625 C-2.44472118 83.49537011 -3.99161498 85.0760813 -5.5390625 86.65625 C-7.96383646 89.14299587 -10.3836661 91.6339986 -12.79296875 94.13574219 C-15.12711608 96.55461183 -17.47980005 98.95413396 -19.8359375 101.3515625 C-20.54970551 102.10257233 -21.26347351 102.85358215 -21.99887085 103.62734985 C-25.25497676 106.91634039 -27.28664421 108.78525291 -31.78735352 110.14013672 C-35.24928882 109.98912594 -36.18071385 109.80952912 -38.56640625 107.40625 C-39.23430176 106.7565625 -39.90219727 106.106875 -40.59033203 105.4375 C-41.38552246 104.633125 -42.18071289 103.82875 -43 103 C-44.04633924 101.9968853 -45.09589701 100.99712139 -46.14794922 100 C-49.15821033 97.138251 -52.12788702 94.23814457 -55.08422852 91.32080078 C-56.32613567 90.10065277 -57.57427686 88.88681965 -58.82836914 87.67919922 C-60.65941121 85.9150913 -62.46995104 84.13204173 -64.27734375 82.34375 C-65.11784523 81.54499451 -65.11784523 81.54499451 -65.97532654 80.73010254 C-69.63391262 77.05179333 -70.92035843 74.3884123 -71 69 C-69.5 66.0625 -69.5 66.0625 -67 64 C-63.7331543 63.51342773 -63.7331543 63.51342773 -60 64 C-57.58721265 65.8592311 -55.78703455 67.50413909 -53.76953125 69.72265625 C-53.21182541 70.30212509 -52.65411957 70.88159393 -52.07951355 71.47862244 C-50.30618674 73.32400779 -48.55780692 75.19062043 -46.8125 77.0625 C-45.05476401 78.93599344 -43.29227566 80.80369253 -41.51335144 82.65708923 C-40.40864122 83.80894065 -39.31625299 84.97276196 -38.23774719 86.14918518 C-36.60015271 87.92202194 -36.60015271 87.92202194 -34 90 C-30.40849108 89.73332031 -28.56149997 87.98110777 -26.02587891 85.55688477 C-25.25893707 84.82844864 -24.49199524 84.10001251 -23.70181274 83.34950256 C-22.88498016 82.55483078 -22.06814758 81.760159 -21.2265625 80.94140625 C-20.38402924 80.12308823 -19.54149597 79.3047702 -18.6734314 78.46165466 C-16.8954778 76.72519249 -15.1221195 74.98401466 -13.35302734 73.23852539 C-10.63984958 70.57706651 -7.88945062 67.95833173 -5.13671875 65.33789062 C-3.41419455 63.64574199 -1.69405963 61.95115704 0.0234375 60.25390625 C0.85241547 59.47745255 1.68139343 58.70099884 2.53549194 57.90101624 C6.74366964 53.80256598 6.74366964 53.80256598 8.09112549 48.32511902 C7.60315373 45.74430922 6.94323553 43.44825776 6 41 C5.54625 39.81792969 5.0925 38.63585937 4.625 37.41796875 C-3.16589305 21.9298232 -13.86825652 7.57204286 -30 0 C-32.77138597 -0.77485832 -32.77138597 -0.77485832 -35 -1 C-35 -1.33 -35 -1.66 -35 -2 C-23.31305593 -4.27144367 -11.28031914 -3.79055259 0 0 Z " fill="#67C843" transform="translate(445,39)"/>
<path d="M0 0 C3.96 0.33 7.92 0.66 12 1 C14.13978808 1.06813212 16.28103554 1.1095498 18.421875 1.09765625 C19.46601563 1.09443359 20.51015625 1.09121094 21.5859375 1.08789062 C23.15214844 1.07532227 23.15214844 1.07532227 24.75 1.0625 C26.38582031 1.05573242 26.38582031 1.05573242 28.0546875 1.04882812 C30.70318616 1.0372119 33.35156101 1.02088168 36 1 C36.28153897 17.02128823 36.49251687 33.0417625 36.62174606 49.06493378 C36.68337146 56.50653754 36.76722953 63.946596 36.90527344 71.38720703 C37.02567373 77.87997103 37.10248119 84.37161523 37.12906194 90.86546469 C37.14457902 94.29799843 37.18046748 97.72733173 37.26876068 101.15882874 C37.61322094 116.22066528 37.71172702 127.62746834 26.96641541 138.9989624 C26.45706986 139.50668025 25.94772432 140.0143981 25.42294407 140.53750134 C23.39825251 142.6184747 21.75068432 144.92686898 20.08203125 147.296875 C19.53442139 148.04219482 18.98681152 148.78751465 18.42260742 149.55541992 C17.89127197 150.27963135 17.35993652 151.00384277 16.8125 151.75 C14.54255602 154.83398851 12.27126092 157.91698129 10 161 C9.26861816 161.99362549 9.26861816 161.99362549 8.52246094 163.00732422 C7.24757147 164.73662525 5.9684409 166.46267914 4.6875 168.1875 C3.99011719 169.12980469 3.29273438 170.07210937 2.57421875 171.04296875 C2.05472656 171.68878906 1.53523438 172.33460938 1 173 C0.67 173 0.34 173 0 173 C0 115.91 0 58.82 0 0 Z " fill="#DB8657" transform="translate(403,194)"/>
<path d="M0 0 C1.93366253 3.4278563 1.99699068 5.56733577 1.375 9.4375 C-7.53737523 18.04554746 -24.63103335 19.75704153 -36.4375 22.625 C-37.29806126 22.83591026 -38.15862251 23.04682053 -39.04526138 23.26412201 C-75.81108252 32.18343073 -111.79436179 32.19028347 -149.36774111 31.52617359 C-202.30683125 30.5984907 -250.39020886 37.77164099 -301.43501282 52.80393982 C-302.69523868 53.17113286 -302.69523868 53.17113286 -303.98092365 53.54574394 C-305.51667454 53.99583043 -307.04984315 54.45488867 -308.57941723 54.92553902 C-313.41454176 56.34292368 -317.5796578 56.7568193 -322.625 56.4375 C-325.125 54.9375 -325.125 54.9375 -326.625 52.4375 C-327.22892884 49.63066882 -327.49105819 47.19167262 -326.625 44.4375 C-322.77636074 40.69408116 -319.67915917 39.75798501 -314.4296875 38.95703125 C-312.99378644 38.71973451 -311.55858048 38.47820119 -310.12402344 38.23291016 C-309.38261108 38.10692444 -308.64119873 37.98093872 -307.87731934 37.85113525 C-304.17781116 37.17172582 -300.53377258 36.28736975 -296.8828125 35.38671875 C-296.14555939 35.20556015 -295.40830627 35.02440155 -294.64871216 34.8377533 C-293.12959888 34.46261722 -291.61085404 34.08598619 -290.09246826 33.70791626 C-286.0380491 32.69898611 -281.97973878 31.70590539 -277.921875 30.7109375 C-277.11910126 30.51375626 -276.31632751 30.31657501 -275.48922729 30.11341858 C-267.80424527 28.22878866 -260.10840721 26.39075264 -252.3857336 24.66621113 C-247.0881366 23.47790262 -241.81406591 22.241676 -236.56013489 20.87245178 C-220.80073129 16.8870314 -205.96202888 15.61488981 -189.7376461 15.77075005 C-185.6334041 15.80981508 -181.53056296 15.81131907 -177.42622375 15.80299377 C-169.4560888 15.79264026 -161.48644754 15.82483811 -153.51642609 15.86428833 C-143.35526661 15.91367428 -133.19435429 15.9490272 -123.03306609 15.93295342 C-118.33510765 15.92730474 -113.63842252 15.96077369 -108.94059753 16.00254822 C-94.67892438 16.04717426 -81.71850835 14.88128991 -67.95708561 11.0675087 C-64.1497587 10.03896624 -60.30203947 9.19640604 -56.453125 8.33984375 C-55.02119038 8.01264787 -53.58943975 7.68464457 -52.15795898 7.35546875 C-49.2100578 6.68006595 -46.26160838 6.00712295 -43.31274414 5.3359375 C-41.80874981 4.99351901 -40.30476208 4.65107154 -38.80078125 4.30859375 C-38.08064346 4.14463104 -37.36050568 3.98066833 -36.61854553 3.81173706 C-32.65086554 2.90636274 -28.68837101 1.98230415 -24.73046875 1.03515625 C-5.80567659 -3.45575987 -5.80567659 -3.45575987 0 0 Z " fill="#010101" transform="translate(375.625,434.5625)"/>
<path d="M0 0 C15.51 0 31.02 0 47 0 C47 29.7 47 59.4 47 90 C31.49 90 15.98 90 0 90 C0 60.3 0 30.6 0 0 Z " fill="#FEE87C" transform="translate(263,107)"/>
<path d="M0 0 C0.69989044 -0.00671722 1.39978088 -0.01343445 2.12088013 -0.02035522 C4.42530499 -0.03928909 6.72943782 -0.04325721 9.03393555 -0.04541016 C10.64430356 -0.05184191 12.25467042 -0.05857056 13.86503601 -0.06558228 C17.2383393 -0.07754394 20.61154028 -0.08126431 23.98486328 -0.08007812 C28.29221806 -0.07987514 32.59891154 -0.10716064 36.90610981 -0.14162254 C40.23228424 -0.16394076 43.55830085 -0.16791415 46.88454247 -0.16685867 C48.47166405 -0.16920787 50.05879044 -0.17799278 51.64583778 -0.19352341 C69.0475039 -0.34785482 69.0475039 -0.34785482 75.35932922 5.73794556 C79.85222913 10.81544393 81.74694453 15.49437493 81.8581543 22.29052734 C81.07051076 28.96674397 78.39515486 34.00722684 73.3581543 38.54052734 C67.33570923 42.75623889 61.82436128 43.41005469 54.52075195 43.43579102 C52.66820297 43.44536079 52.66820297 43.44536079 50.77822876 43.4551239 C49.44289184 43.45665289 48.10755439 43.45776668 46.7722168 43.45849609 C45.38748135 43.46171406 44.00274623 43.46507853 42.61801147 43.46858215 C39.72148857 43.47455344 36.82499542 43.4764241 33.9284668 43.47583008 C30.2345226 43.47572854 26.54077095 43.4893813 22.84687233 43.50660229 C19.98824198 43.51777282 17.12965747 43.51974774 14.27100754 43.51922035 C12.25264814 43.52095911 10.23430305 43.53176625 8.2159729 43.54277039 C-1.03776045 43.51983519 -8.62095036 43.27305773 -16.1418457 37.29052734 C-21.86623543 30.93009431 -22.64809633 26.2646775 -22.5246582 17.78271484 C-21.83981073 11.53522869 -19.07686864 8.12879914 -14.6418457 3.91552734 C-9.73076113 0.72332237 -5.84742482 0.03533469 0 0 Z " fill="#000000" transform="translate(22.141845703125,150.70947265625)"/>
<path d="M0 0 C3.2705277 1.63526385 5.2603594 3.95777915 7.375 6.9375 C9.4943282 13.93128307 6.4315208 18.9202005 3.25 25 C2.75193848 25.97348389 2.25387695 26.94696777 1.74072266 27.94995117 C-2.07204375 35.35187007 -6.04479454 42.66476693 -10.0859375 49.9440918 C-13.26606404 55.70655005 -16.30143486 61.52698935 -19.2578125 67.40625 C-20.008287 68.89152715 -20.75877534 70.3767973 -21.50927734 71.86206055 C-22.62038216 74.06261747 -23.72654995 76.2649662 -24.81719971 78.47573853 C-30.98227591 90.97140964 -36.84667326 101.17695209 -50.62109375 105.8984375 C-57.26318807 108 -57.26318807 108 -61 108 C-60.40210976 104.10473414 -59.22267713 101.18625731 -57.33203125 97.73828125 C-56.77572021 96.71516846 -56.21940918 95.69205566 -55.64624023 94.63793945 C-54.73853882 92.99184692 -54.73853882 92.99184692 -53.8125 91.3125 C-52.85602557 89.55910706 -51.8995621 87.80570802 -50.94380188 86.05192566 C-49.95229105 84.23414811 -48.95808091 82.41786282 -47.96386719 80.6015625 C-45.50339395 76.09871194 -43.08754933 71.57216807 -40.66821289 67.04711914 C-35.00784471 56.46816329 -29.22470773 45.96938304 -23.26147461 35.55786133 C-16.1716184 23.65242424 -16.1716184 23.65242424 -13.9375 10.25 C-13.94652344 9.26515625 -13.95554687 8.2803125 -13.96484375 7.265625 C-13.97644531 6.51796875 -13.98804688 5.7703125 -14 5 C-14.66 4.67 -15.32 4.34 -16 4 C-11.47092761 -0.99759712 -6.32265856 -1.08467896 0 0 Z " fill="#FCCCBD" transform="translate(473,315)"/>
<path d="M0 0 C2 1.625 2 1.625 3 4 C2.79912418 9.9590937 0.89788289 12.97530885 -3.23486328 17.01123047 C-3.77971878 17.56659988 -4.32457428 18.1219693 -4.88594055 18.69416809 C-6.6826457 20.51717918 -8.50028985 22.31747751 -10.3203125 24.1171875 C-11.58094671 25.38186596 -12.8406893 26.64743374 -14.09957886 27.91384888 C-16.73805691 30.56116078 -19.38705091 33.1973473 -22.04394531 35.82617188 C-25.44396193 39.19200418 -28.81632767 42.58405924 -32.18126106 45.98492241 C-34.77671989 48.60209181 -37.38633715 51.20476577 -40.00042343 53.80331802 C-41.24952234 55.04842251 -42.4942018 56.29797732 -43.73428726 57.55205917 C-45.47164708 59.30470701 -47.22717611 61.03689271 -48.98876953 62.76513672 C-49.74815071 63.54273598 -49.74815071 63.54273598 -50.52287292 64.33604431 C-54.15918571 67.84623048 -56.9778155 68.8253338 -62 69 C-63.94360352 68.04101562 -63.94360352 68.04101562 -65.56640625 66.40625 C-66.23430176 65.7565625 -66.90219727 65.106875 -67.59033203 64.4375 C-68.38552246 63.633125 -69.18071289 62.82875 -70 62 C-71.04633924 60.9968853 -72.09589701 59.99712139 -73.14794922 59 C-76.15821033 56.138251 -79.12788702 53.23814457 -82.08422852 50.32080078 C-83.32613567 49.10065277 -84.57427686 47.88681965 -85.82836914 46.67919922 C-87.65941121 44.9150913 -89.46995104 43.13204173 -91.27734375 41.34375 C-91.83767807 40.81124634 -92.39801239 40.27874268 -92.97532654 39.73010254 C-96.63391262 36.05179333 -97.92035843 33.3884123 -98 28 C-96.5 25.0625 -96.5 25.0625 -94 23 C-90.7331543 22.51342773 -90.7331543 22.51342773 -87 23 C-84.58721265 24.8592311 -82.78703455 26.50413909 -80.76953125 28.72265625 C-79.93297249 29.59185951 -79.93297249 29.59185951 -79.07951355 30.47862244 C-77.30618674 32.32400779 -75.55780692 34.19062043 -73.8125 36.0625 C-72.05476401 37.93599344 -70.29227566 39.80369253 -68.51335144 41.65708923 C-67.40864122 42.80894065 -66.31625299 43.97276196 -65.23774719 45.14918518 C-63.60015271 46.92202194 -63.60015271 46.92202194 -61 49 C-56.95338836 48.8345011 -54.89709112 46.25328475 -52.17138672 43.49609375 C-51.70584381 43.02938263 -51.2403009 42.56267151 -50.76065063 42.08181763 C-49.2265781 40.54056885 -47.70329727 38.98908654 -46.1796875 37.4375 C-45.11475335 36.36442853 -44.04907892 35.29209126 -42.98269653 34.22045898 C-40.17893265 31.39958327 -37.38385946 28.5702581 -34.59094238 25.73864746 C-30.11556337 21.20405095 -25.62741825 16.68209719 -21.13873672 12.16067505 C-19.57052458 10.57847831 -18.00617433 8.99254049 -16.44235229 7.40600586 C-15.48492535 6.43855776 -14.52742025 5.47118699 -13.56982422 4.50390625 C-12.73361542 3.65642822 -11.89740662 2.8089502 -11.03585815 1.93579102 C-7.28914046 -1.62676684 -4.96136099 -1.13153847 0 0 Z " fill="#010301" transform="translate(472,80)"/>
<path d="M0 0 C1.75392815 -0.01475121 1.75392815 -0.01475121 3.54328918 -0.02980042 C5.46192024 -0.01529846 5.46192024 -0.01529846 7.41931152 -0.00050354 C8.78285784 -0.00428744 10.14640032 -0.00978806 11.50993347 -0.01687622 C15.21042383 -0.03083925 18.91044967 -0.01965551 22.61091423 -0.00316501 C26.48345175 0.01068473 30.35596228 0.00422551 34.22851562 0.0007019 C40.7318063 -0.00200029 47.23491242 0.01147605 53.73815918 0.03465271 C61.2567964 0.06126261 68.77512503 0.06300964 76.2937932 0.05126435 C83.52652465 0.04048501 90.75914448 0.04667483 97.99186707 0.06081963 C101.0699477 0.06657811 104.14794661 0.06649785 107.22602844 0.06175423 C110.85077403 0.05698174 114.47518174 0.06709695 118.09986305 0.08870888 C120.06474315 0.09692773 122.0296675 0.09042661 123.99455261 0.08351135 C125.74848076 0.0983683 125.74848076 0.0983683 127.5378418 0.11352539 C129.06206882 0.11717023 129.06206882 0.11717023 130.61708832 0.12088871 C133.70519528 0.56377442 135.0855788 1.28985484 137.2689209 3.50120544 C137.7689209 7.00120544 137.7689209 7.00120544 137.2689209 10.50120544 C135.0855788 12.71255605 133.70519528 13.43863647 130.61708832 13.88152218 C129.60093697 13.88395207 128.58478561 13.88638197 127.5378418 13.8888855 C125.78391365 13.90374245 125.78391365 13.90374245 123.99455261 13.91889954 C122.71546524 13.91439789 121.43637787 13.90989624 120.11853027 13.90525818 C118.75498393 13.91096172 117.39144236 13.91792592 116.02790833 13.92605591 C112.32751259 13.94400312 108.62735377 13.94281624 104.92692757 13.93711352 C101.83782348 13.93402432 98.74876508 13.94011102 95.65966749 13.94615227 C88.37296725 13.96020061 81.08638424 13.95863329 73.79968262 13.94725037 C66.28100345 13.93576465 58.76268079 13.94985149 51.2440486 13.97664684 C44.78873159 13.99879175 38.3335266 14.0054441 31.8781743 13.99957043 C28.02263381 13.99619721 24.16732193 13.99864002 20.31181335 14.01582146 C16.68701846 14.03126983 13.06275258 14.02735925 9.43797874 14.00851631 C7.47307392 14.00306362 5.50814545 14.01735996 3.54328918 14.0322113 C2.37400375 14.02237717 1.20471832 14.01254303 0 14.00241089 C-1.01615135 14.0022016 -2.0323027 14.00199232 -3.07924652 14.0017767 C-6.44828742 13.36582214 -7.63577051 12.16242465 -9.7310791 9.50120544 C-10.2310791 7.00120544 -10.2310791 7.00120544 -9.7310791 4.50120544 C-6.73186879 0.69195457 -4.78613535 0.00098574 0 0 Z " fill="#FDE359" transform="translate(24.7310791015625,301.49879455566406)"/>
<path d="M0 0 C6.27 0 12.54 0 19 0 C19 29.7 19 59.4 19 90 C3.49 90 -12.02 90 -28 90 C-28 89.67 -28 89.34 -28 89 C-18.76 89 -9.52 89 0 89 C0 59.63 0 30.26 0 0 Z " fill="#FBE159" transform="translate(291,107)"/>
<path d="M0 0 C0.94072861 -0.00990463 1.88145721 -0.01980927 2.85069275 -0.03001404 C3.88090546 -0.02551239 4.91111816 -0.02101074 5.97254944 -0.01637268 C7.60216866 -0.02666756 7.60216866 -0.02666756 9.26470947 -0.03717041 C12.8654528 -0.05551144 16.46576345 -0.05159035 20.06654358 -0.0459137 C22.5637425 -0.05047202 25.06094016 -0.05577654 27.55813599 -0.0617981 C32.79624896 -0.07074359 38.03424907 -0.06852257 43.27235413 -0.05836487 C49.32607707 -0.04688489 55.37935694 -0.06095533 61.43302149 -0.08776134 C67.25776499 -0.11258749 73.08233598 -0.11509679 78.90712166 -0.10864449 C81.38509928 -0.10849083 83.86308525 -0.11457138 86.34103203 -0.12693596 C89.80317731 -0.14177617 93.26434158 -0.13121911 96.72645569 -0.11402893 C97.75464417 -0.1236969 98.78283264 -0.13336487 99.84217834 -0.14332581 C106.74518043 -0.07137924 106.74518043 -0.07137924 110.08999634 2.22372437 C111.41419983 4.38768005 111.41419983 4.38768005 111.28919983 7.51268005 C110.41419983 10.38768005 110.41419983 10.38768005 108.41419983 12.38768005 C106.41172123 12.64215565 106.41172123 12.64215565 103.90396118 12.64837646 C102.95474792 12.65546127 102.00553467 12.66254608 101.02755737 12.66984558 C99.98282761 12.66736816 98.93809784 12.66489075 97.86170959 12.66233826 C96.76408295 12.66744919 95.6664563 12.67256012 94.53556824 12.67782593 C90.89219269 12.69177335 87.24900521 12.69076128 83.60560608 12.6884613 C81.08216277 12.69234539 78.55872012 12.69667946 76.03527832 12.70144653 C70.73993036 12.70891984 65.44465196 12.70874699 60.14930725 12.70335388 C54.02579421 12.69731327 47.9025109 12.7096252 41.77903706 12.73092395 C35.89185304 12.75064908 30.00474036 12.75371546 24.11752129 12.75018883 C21.61080829 12.75070356 19.10409174 12.75596956 16.59739876 12.76600075 C13.0967789 12.77828918 9.59669539 12.77161885 6.09608459 12.75999451 C5.05337906 12.76763824 4.01067352 12.77528198 2.93637085 12.78315735 C1.98433777 12.77614304 1.03230469 12.76912872 0.05142212 12.76190186 C-1.19048464 12.76215347 -1.19048464 12.76215347 -2.45748043 12.76241016 C-5.11042514 12.29531011 -5.99525135 11.53329142 -7.58580017 9.38768005 C-8.22786917 4.25112808 -8.22786917 4.25112808 -6.34897518 1.72441006 C-4.0901298 0.0118935 -2.818549 0.00837294 0 0 Z " fill="#FDE359" transform="translate(97.58580017089844,233.61231994628906)"/>
<path d="M0 0 C3.05357079 1.61320721 5.23833566 3.03060902 7.375 5.75 C8.3338698 9.20193128 8.88373067 12.52687665 8 16 C4.18022908 21.51574922 -0.79923946 25.0918608 -6.1875 29 C-7.98412766 30.32409087 -9.77967778 31.64964492 -11.57421875 32.9765625 C-12.47962402 33.64461914 -13.3850293 34.31267578 -14.31787109 35.00097656 C-18.42721561 38.06372123 -22.46576254 41.21434178 -26.5 44.375 C-32.45541732 49.03322339 -38.44648328 53.62841617 -44.51953125 58.1328125 C-47.05382982 60.04052072 -49.53268957 62.00666124 -52 64 C-55.875 62.125 -55.875 62.125 -57 61 C-57.65625 57.91796875 -57.65625 57.91796875 -57 54 C-54.20762746 50.93809036 -50.88403676 48.68147103 -47.5 46.3125 C-46.55342529 45.62349609 -45.60685059 44.93449219 -44.6315918 44.22460938 C-42.69708352 42.81674709 -40.75653424 41.41714849 -38.81005859 40.02587891 C-36.21244866 38.15316238 -33.65580399 36.23954652 -31.11328125 34.29296875 C-30.38238281 33.73375732 -29.65148437 33.1745459 -28.8984375 32.59838867 C-27.53188602 31.55124301 -26.16597613 30.50325939 -24.80078125 29.4543457 C-20.224879 26 -20.224879 26 -18 26 C-15.05627213 20.32281053 -13.75346854 16.18943313 -13.875 9.6875 C-13.89304687 8.43324219 -13.91109375 7.17898438 -13.9296875 5.88671875 C-13.95289063 4.93410156 -13.97609375 3.98148437 -14 3 C-9.11408198 0.6068973 -5.55860161 -0.70745839 0 0 Z " fill="#FBCABC" transform="translate(332,301)"/>
<path d="M0 0 C1.93220398 -0.01418472 1.93220398 -0.01418472 3.90344238 -0.02865601 C5.3060741 -0.02328615 6.708703 -0.01713316 8.11132812 -0.01025391 C9.55334622 -0.01227557 10.99536333 -0.01518778 12.43737793 -0.01895142 C15.45688631 -0.02337046 18.47612812 -0.01695752 21.49560547 -0.00292969 C25.36277231 0.01416231 29.22931451 0.00431883 33.09645844 -0.01364708 C36.07335095 -0.02449647 39.05009579 -0.02103335 42.0269928 -0.0132637 C43.45272394 -0.01126487 44.87846856 -0.01370986 46.30418396 -0.02070236 C48.29783872 -0.0283349 50.2915406 -0.01463556 52.28515625 0 C53.98581238 0.00358017 53.98581238 0.00358017 55.7208252 0.00723267 C58.922927 0.42473671 60.29601974 1.22746069 62.64257812 3.38818359 C62.33007813 6.76318359 62.33007813 6.76318359 61.64257812 10.38818359 C58.08233201 12.761681 56.51727828 12.65085817 52.29101562 12.67871094 C50.32382568 12.69785049 50.32382568 12.69785049 48.31689453 12.71737671 C46.88379056 12.72043368 45.45068461 12.72266181 44.01757812 12.72412109 C42.54931507 12.73054723 41.08105331 12.73727545 39.61279297 12.74429321 C36.5361026 12.75626717 33.45952453 12.7599738 30.3828125 12.75878906 C26.43808885 12.75858558 22.49408329 12.78591643 18.54953003 12.82033348 C15.51778852 12.84255427 12.48622136 12.84662815 9.45440674 12.84556961 C7.99991373 12.84793176 6.54541635 12.8567898 5.09100342 12.87223434 C3.0588099 12.89179798 1.02640594 12.88355865 -1.00585938 12.87402344 C-2.74101807 12.87829849 -2.74101807 12.87829849 -4.51123047 12.88265991 C-7.35742188 12.38818359 -7.35742188 12.38818359 -9.22705078 10.51797485 C-10.63998835 7.85578533 -10.89047276 6.35803851 -10.35742188 3.38818359 C-7.1052582 0.13985588 -4.48613702 0.00944408 0 0 Z " fill="#FCE259" transform="translate(25.357421875,165.61181640625)"/>
<path d="M0 0 C18.05424286 -0.07005488 36.10845048 -0.12297087 54.16279984 -0.15543652 C62.54559114 -0.17091098 70.92829803 -0.19201152 79.31103516 -0.22631836 C86.61671242 -0.25620304 93.92232856 -0.27557079 101.22806525 -0.28226548 C105.0970693 -0.28617934 108.96589846 -0.29538934 112.8348465 -0.31719017 C116.47588574 -0.3375407 120.11667792 -0.34383677 123.75776863 -0.33932304 C125.73227716 -0.3405429 127.70675873 -0.35669255 129.68119812 -0.3732605 C130.85626419 -0.36913651 132.03133026 -0.36501251 133.24200439 -0.36076355 C134.26335102 -0.36352893 135.28469765 -0.36629431 136.33699417 -0.36914349 C139.43816218 0.06073765 140.81134477 0.77883397 143 3 C143.5 6.5 143.5 6.5 143 10 C140.81134477 12.22116603 139.43816218 12.93926235 136.33699417 13.36914349 C134.80497423 13.36499542 134.80497423 13.36499542 133.24200439 13.36076355 C132.06693832 13.36488754 130.89187225 13.36901154 129.68119812 13.3732605 C127.75314079 13.35708176 127.75314079 13.35708176 125.78613281 13.34057617 C124.41610228 13.33972976 123.04607039 13.34020531 121.67604065 13.34190369 C117.95933462 13.34276454 114.24291895 13.32512441 110.5262804 13.30418181 C106.64121281 13.28542994 102.75613858 13.28366575 98.87103271 13.28010559 C91.51520531 13.27078073 84.15951164 13.24616103 76.80374312 13.21605712 C68.42897973 13.1825268 60.05420996 13.16603055 51.67939615 13.15097082 C34.45285341 13.11961182 17.22644084 13.0668428 0 13 C0 12.67 0 12.34 0 12 C40.59 12 81.18 12 123 12 C123 8.37 123 4.74 123 1 C82.41 1 41.82 1 0 1 C0 0.67 0 0.34 0 0 Z " fill="#AF9B2B" transform="translate(19,302)"/>
<path d="M0 0 C14.53383972 -0.09343659 29.06763288 -0.16370986 43.60171127 -0.20724869 C50.3501362 -0.22787505 57.09837453 -0.25599668 63.84667969 -0.30175781 C70.35648146 -0.34588058 76.86616199 -0.36912335 83.37610626 -0.37950897 C85.86248073 -0.3869123 88.34884432 -0.40136883 90.83513641 -0.42292023 C94.31187575 -0.4518643 97.78780843 -0.45595964 101.26464844 -0.45410156 C102.29755005 -0.46848267 103.33045166 -0.48286377 104.39465332 -0.49768066 C111.33151578 -0.45744005 111.33151578 -0.45744005 114.67877197 1.83306885 C116 4 116 4 115.875 7.125 C115 10 115 10 113 12 C111.12060547 12.22705078 111.12060547 12.22705078 108.8671875 12.1953125 C107.65869141 12.18564453 107.65869141 12.18564453 106.42578125 12.17578125 C105.58402344 12.15902344 104.74226563 12.14226562 103.875 12.125 C102.60076172 12.11146484 102.60076172 12.11146484 101.30078125 12.09765625 C99.20040116 12.07405647 97.10016556 12.03818483 95 12 C95.33 8.37 95.66 4.74 96 1 C64.32 1 32.64 1 0 1 C0 0.67 0 0.34 0 0 Z " fill="#E3C934" transform="translate(93,234)"/>
<path d="M0 0 C8.40583263 -0.06952485 16.81154502 -0.12282366 25.21759415 -0.15543652 C29.12091481 -0.17108945 33.02403869 -0.19232061 36.92724609 -0.22631836 C40.69440392 -0.25892557 44.46137252 -0.27685582 48.22866058 -0.28463173 C49.66558562 -0.29017284 51.10250035 -0.30099336 52.53934479 -0.31719017 C54.55249422 -0.33897989 56.56583424 -0.34022554 58.57910156 -0.34057617 C59.72493713 -0.34723801 60.87077271 -0.35389984 62.05133057 -0.36076355 C65.2818306 0.03448139 66.64066177 0.81772699 69 3 C68.6875 6.375 68.6875 6.375 68 10 C64.95318939 12.03120707 64.39881676 12.24659875 60.98828125 12.1953125 C60.23095703 12.18886719 59.47363281 12.18242187 58.69335938 12.17578125 C57.51483398 12.15064453 57.51483398 12.15064453 56.3125 12.125 C55.51521484 12.11597656 54.71792969 12.10695312 53.89648438 12.09765625 C51.930861 12.07411585 49.96539225 12.03824547 48 12 C48.33 8.37 48.66 4.74 49 1 C32.83 1 16.66 1 0 1 C0 0.67 0 0.34 0 0 Z " fill="#F3D634" transform="translate(19,166)"/>
</svg>
