<?xml version="1.0" encoding="UTF-8"?>
<svg version="1.1" xmlns="http://www.w3.org/2000/svg" width="512" height="512">
<path d="M0 0 C0.76057709 0.00215515 1.52115417 0.0043103 2.30477905 0.00653076 C53.40072109 0.23762834 100.08782082 20.1334354 136.875 55.3125 C137.80183594 56.18648437 138.72867187 57.06046875 139.68359375 57.9609375 C173.07215545 90.26022697 194.22330991 138.58322404 195.2109375 184.9921875 C195.25164889 188.05757165 195.25785201 191.12188328 195.25 194.1875 C195.24918427 195.39539185 195.24918427 195.39539185 195.24835205 196.62768555 C195.0921001 247.25331718 175.32164949 293.50724235 140.875 330.3125 C140.00359375 331.24964844 139.1321875 332.18679688 138.234375 333.15234375 C112.91878376 359.75972675 78.12597013 377.48617403 42.5625 385.625 C41.91901611 385.77243652 41.27553223 385.91987305 40.61254883 386.07177734 C27.39201408 388.85865888 14.16053943 389.69416648 0.6875 389.625 C-0.07502075 389.62284485 -0.8375415 389.6206897 -1.62316895 389.61846924 C-13.99300168 389.56262131 -26.00045192 388.9497136 -38.125 386.3125 C-39.49906006 386.01448486 -39.49906006 386.01448486 -40.90087891 385.71044922 C-91.64894495 374.30302909 -135.85366953 344.10820445 -164.125 300.375 C-181.75853601 272.26745166 -193.99491039 238.79262843 -194.36328125 205.31640625 C-194.3730751 204.57410263 -194.38286896 203.83179901 -194.39295959 203.06700134 C-194.9794168 146.99811564 -176.93473305 97.16555482 -137.72045898 56.62207031 C-112.45005671 30.99920817 -80.21437586 13.43539419 -45.3125 4.9375 C-43.84792358 4.57954346 -43.84792358 4.57954346 -42.35375977 4.21435547 C-28.29138069 0.97971592 -14.3838483 -0.07403029 0 0 Z M-113.125 66.3125 C-114.3315625 67.3334375 -114.3315625 67.3334375 -115.5625 68.375 C-120.55361878 72.69164327 -124.93204755 77.22516043 -129.125 82.3125 C-129.55151855 82.81072266 -129.97803711 83.30894531 -130.41748047 83.82226562 C-139.05328762 93.91367913 -145.91240863 104.58243238 -152.125 116.3125 C-152.46901855 116.96186523 -152.81303711 117.61123047 -153.16748047 118.28027344 C-173.07333231 156.62426453 -176.84665018 203.78867175 -163.90673828 244.96191406 C-156.00562473 268.71954094 -144.322448 289.25141478 -128.125 308.3125 C-127.21427734 309.40884766 -127.21427734 309.40884766 -126.28515625 310.52734375 C-122.26117474 315.28129923 -117.89476444 319.31996991 -113.125 323.3125 C-112.23941406 324.0859375 -111.35382813 324.859375 -110.44140625 325.65625 C-77.20670419 354.25663106 -33.81473958 368.48414392 9.875 366.3125 C49.18875265 363.35453881 83.84792022 348.8284692 113.875 323.3125 C114.60589844 322.70535156 115.33679688 322.09820312 116.08984375 321.47265625 C120.84379923 317.44867474 124.88246991 313.08226444 128.875 308.3125 C129.6484375 307.42691406 130.421875 306.54132813 131.21875 305.62890625 C159.81913106 272.39420419 174.04664392 229.00223958 171.875 185.3125 C168.92167525 146.06036953 154.43405359 111.25310563 128.875 81.3125 C128.194375 80.508125 127.51375 79.70375 126.8125 78.875 C122.49695494 73.88515102 117.96678793 69.49853719 112.875 65.3125 C112.35550781 64.87534668 111.83601563 64.43819336 111.30078125 63.98779297 C45.65419076 8.83359292 -48.44723543 11.09977415 -113.125 66.3125 Z " fill="#000000" transform="translate(253.125,63.6875)"/>
<path d="M0 0 C4.57675402 3.71861264 7.89126578 7.40656861 9.125 13.3125 C9.29553205 17.7059821 8.29707496 21.56462824 7.03515625 25.73046875 C6.81578903 26.46354752 6.59642181 27.19662628 6.3704071 27.95191956 C3.07461636 38.72437605 -0.84867477 49.28754324 -4.6875 59.875 C-5.53294354 62.21833532 -6.37790499 64.56184462 -7.22241211 66.90551758 C-8.95984835 71.72504779 -10.69995899 76.54359889 -12.44238281 81.36132812 C-15.21602064 89.03175782 -17.9777283 96.70645188 -20.73774719 104.38179016 C-22.58049546 109.50605435 -24.42423989 114.62995222 -26.27124023 119.75268555 C-29.75116123 129.40489832 -33.22522892 139.05908073 -36.67771912 148.72114563 C-38.30720617 153.28050579 -39.93986483 157.83872748 -41.57272339 162.3968811 C-42.34523222 164.55612909 -43.11621881 166.71592242 -43.88552856 168.87631226 C-56.43935768 204.12588611 -56.43935768 204.12588611 -65 209.4375 C-70.63714929 211.31654976 -76.73224411 211.33893313 -82.25 209 C-90.14483871 204.28078554 -93.38184316 194.7951955 -96.4609375 186.578125 C-97.05233017 185.04052521 -97.05233017 185.04052521 -97.65567017 183.47186279 C-98.90583578 180.21427109 -100.14066701 176.95111906 -101.375 173.6875 C-102.19430134 171.54518594 -103.01460668 169.40325556 -103.8359375 167.26171875 C-105.45003438 163.04778992 -107.05620582 158.83098238 -108.65527344 154.61132812 C-110.21921676 150.48543621 -111.79570944 146.36470816 -113.38378906 142.24804688 C-113.75790924 141.27550964 -114.13202942 140.30297241 -114.51748657 139.30096436 C-115.22423133 137.4647371 -115.93340466 135.62944217 -116.64535522 133.79522705 C-116.95655304 132.9846283 -117.26775085 132.17402954 -117.58837891 131.33886719 C-117.86227448 130.6302655 -118.13617004 129.92166382 -118.41836548 129.19158936 C-119 127.4375 -119 127.4375 -119 125.4375 C-119.56489136 125.27812958 -120.12978271 125.11875916 -120.71179199 124.95455933 C-128.11399098 122.80602011 -135.31113815 120.19870534 -142.53125 117.5078125 C-143.81575374 117.03071941 -145.10030051 116.55374215 -146.3848877 116.07687378 C-149.06161981 115.0822683 -151.73740231 114.0851569 -154.41259766 113.08642578 C-157.81245811 111.81756472 -161.21524306 110.55675881 -164.6188736 109.29805183 C-167.26801162 108.31699394 -169.91519311 107.33073897 -172.56187439 106.3430748 C-174.41601993 105.6524531 -176.27201128 104.96679328 -178.12805176 104.28128052 C-199.28651589 96.35010414 -199.28651589 96.35010414 -204.1015625 88.68359375 C-206.02095168 83.88512081 -205.50488391 78.49896124 -205 73.4375 C-201.86008845 66.67461359 -196.50550245 62.83709461 -189.71484375 60.2109375 C-187.46030253 59.39865091 -185.20068121 58.60039367 -182.9375 57.8125 C-181.64027671 57.35016213 -180.34350116 56.88656655 -179.04711914 56.421875 C-176.0753871 55.35894368 -173.10103677 54.30374645 -170.125 53.25292969 C-164.44072206 51.24329433 -158.76714378 49.20418516 -153.09375 47.1640625 C-144.09870859 43.93089901 -135.10132453 40.70437546 -126.1015625 37.484375 C-115.69331424 33.76022366 -105.28640167 30.03237691 -94.88166809 26.29841614 C-89.32095931 24.30306025 -83.759262 22.31057067 -78.19506836 20.32495117 C-68.70474164 16.93586792 -59.22090201 13.5352603 -49.77653503 10.01974487 C-45.92459261 8.58720707 -42.06733881 7.16930775 -38.20956421 5.75256348 C-36.43491739 5.09592796 -34.66298888 4.43188735 -32.89419556 3.75964355 C-10.03031234 -4.92721772 -10.03031234 -4.92721772 0 0 Z M-26.59375 26.75390625 C-27.27436996 27.00116959 -27.95498993 27.24843292 -28.65623474 27.50318909 C-30.14720026 28.04514675 -31.63765037 28.58852388 -33.12765503 29.13311768 C-37.24019232 30.63588643 -41.35673517 32.12762356 -45.47265625 33.62109375 C-46.33870987 33.93566528 -47.20476349 34.25023682 -48.09706116 34.57434082 C-57.36484445 37.9384377 -66.65042995 41.25210531 -75.9375 44.5625 C-79.45194549 45.81606283 -82.96623358 47.07006644 -86.48046875 48.32421875 C-87.38628693 48.64747131 -88.2921051 48.97072388 -89.22537231 49.30377197 C-100.24752703 53.23821884 -111.26553772 57.18423207 -122.28274536 61.13250732 C-124.55210427 61.94573338 -126.82153114 62.75876982 -129.09103394 63.57159424 C-143.74238744 68.8192392 -158.37969845 74.10392602 -173 79.4375 C-170.86055566 81.57694434 -169.542474 82.13156171 -166.74072266 83.16162109 C-165.85865143 83.48891205 -164.9765802 83.816203 -164.06777954 84.15341187 C-163.10955292 84.50239532 -162.15132629 84.85137878 -161.1640625 85.2109375 C-160.17433441 85.57595367 -159.18460632 85.94096985 -158.16488647 86.31704712 C-156.06253734 87.09123589 -153.95920416 87.86275677 -151.85498047 88.63183594 C-148.67074291 89.79577946 -145.48942604 90.96741179 -142.30859375 92.140625 C-132.58481623 95.7185936 -122.86391955 99.26227519 -113 102.4375 C-112.07251953 101.50478271 -111.14503906 100.57206543 -110.18945312 99.61108398 C-106.71809851 96.12150607 -103.24333449 92.63533964 -99.76757812 89.15014648 C-98.26926293 87.64683045 -96.77184993 86.14261464 -95.27539062 84.63745117 C-93.11309775 82.4629053 -90.94748387 80.2917129 -88.78125 78.12109375 C-88.12257935 77.45726181 -87.46390869 76.79342987 -86.78527832 76.10948181 C-82.93563759 72.2593868 -78.98198768 68.6014392 -74.83654785 65.07093811 C-72.89205719 63.34149493 -71.10318456 61.51221832 -69.3125 59.625 C-64.73766336 55.06044389 -64.73766336 55.06044389 -61 54.4375 C-56.8505469 54.8127165 -53.2320516 55.39795646 -50 58.125 C-48.6114366 61.33605287 -48.12089201 63.93163167 -48 67.4375 C-49.83004958 71.86527423 -52.05724324 74.84395637 -55.48730469 78.15429688 C-56.39123962 79.03541138 -57.29517456 79.91652588 -58.22650146 80.82434082 C-58.94676136 81.51633324 -58.94676136 81.51633324 -59.68157196 82.2223053 C-61.19405405 83.67759031 -62.69487896 85.14401005 -64.19293213 86.61413574 C-68.45022122 90.78924314 -72.72279626 94.9482992 -77.01416016 99.08837891 C-79.64551248 101.62853261 -82.25954581 104.18546144 -84.8635025 106.75367737 C-85.85700911 107.72672778 -86.8570415 108.69316162 -87.86360931 109.6526947 C-89.26821449 110.99241031 -90.64984462 112.35608967 -92.03027344 113.72070312 C-92.8228656 114.48870239 -93.61545776 115.25670166 -94.43206787 116.04797363 C-96.30221321 118.38458851 -96.30221321 118.38458851 -95.84204102 121.46739197 C-95.14423571 123.92874138 -94.43609822 126.29860838 -93.49707031 128.67602539 C-93.19295227 129.45446304 -92.88883423 130.2329007 -92.57550049 131.03492737 C-92.24636658 131.8600029 -91.91723267 132.68507843 -91.578125 133.53515625 C-91.2362616 134.40587265 -90.89439819 135.27658905 -90.54217529 136.1736908 C-89.45026374 138.95132269 -88.35035577 141.72570389 -87.25 144.5 C-86.52549323 146.3376745 -85.80152972 148.17556327 -85.078125 150.01367188 C-84.02343883 152.69290332 -82.96822807 155.37191628 -81.91052246 158.04995728 C-79.23281075 164.83038299 -76.59746202 171.62586889 -74 178.4375 C-71.8409591 176.2784591 -71.32124863 174.97809414 -70.31445312 172.13867188 C-69.99159332 171.23712372 -69.66873352 170.33557556 -69.33609009 169.40670776 C-68.98799286 168.4165567 -68.63989563 167.42640564 -68.28125 166.40625 C-67.91148041 165.36912872 -67.54171082 164.33200745 -67.16073608 163.26345825 C-65.93537238 159.82326942 -64.71782627 156.38036351 -63.5 152.9375 C-62.64273676 150.52760181 -61.78481793 148.11793673 -60.92626953 145.70849609 C-59.59912563 141.9833992 -58.27222797 138.25821853 -56.94802856 134.53207397 C-52.98670567 123.38699554 -48.9899159 112.25491011 -44.97943115 101.12744141 C-43.87617251 98.06575387 -42.77413971 95.00362745 -41.67236328 91.94140625 C-37.82952277 81.26473228 -33.97028712 70.59417394 -30.09375 59.9296875 C-29.29438522 57.72837043 -28.49506807 55.52703607 -27.69580078 53.32568359 C-26.17690768 49.14240776 -24.65383507 44.96068579 -23.12841797 40.77978516 C-22.44743258 38.90533104 -21.76659714 37.03082243 -21.0859375 35.15625 C-20.7712854 34.29740204 -20.4566333 33.43855408 -20.13244629 32.55368042 C-18.57356282 28.59820832 -18.57356282 28.59820832 -18 24.4375 C-21.1093569 24.4375 -23.68011606 25.6902925 -26.59375 26.75390625 Z " fill="#000000" transform="translate(341,164.5625)"/>
</svg>
