<?xml version="1.0" encoding="UTF-8"?>
<svg version="1.1" xmlns="http://www.w3.org/2000/svg" width="512" height="512">
<path d="M0 0 C0.67605071 -0.00367669 1.35210142 -0.00735338 2.04863852 -0.01114148 C4.32480693 -0.02219659 6.60092971 -0.02602522 8.87712097 -0.02983093 C10.50475205 -0.03609418 12.1323817 -0.04274085 13.76000977 -0.04974365 C18.18983286 -0.06716559 22.61964515 -0.07770854 27.04949403 -0.08594918 C29.81580115 -0.09109653 32.58210491 -0.09717236 35.34840965 -0.10346031 C43.99977493 -0.12251522 52.65113166 -0.13674605 61.3025139 -0.14507228 C71.29616331 -0.15484858 81.28959146 -0.18117704 91.28316289 -0.22157317 C99.00296463 -0.25170975 106.72270285 -0.26653879 114.44256228 -0.26985329 C119.05550518 -0.27220648 123.66821178 -0.28120173 128.28109169 -0.30631447 C132.62069107 -0.3295575 136.95989794 -0.33384374 141.29954338 -0.32355309 C142.89227731 -0.3230567 144.48503031 -0.32940735 146.07770538 -0.34310913 C148.25271522 -0.36077373 150.42630807 -0.35375046 152.60131836 -0.34057617 C153.81825284 -0.34296453 155.03518732 -0.34535288 156.2889986 -0.34781361 C160.11204537 0.2431511 161.75890751 1.46283818 164.49113464 4.14717102 C165.98518808 7.1352779 165.63209202 10.1927991 165.62535572 13.46958637 C165.62770795 14.23691773 165.63006018 15.00424909 165.63248369 15.79483292 C165.6391963 18.39311258 165.63871479 20.9913425 165.63830566 23.58963013 C165.64160288 25.46045292 165.64532814 27.331275 165.64944714 29.20209616 C165.65949137 34.36423998 165.66318781 39.52637216 165.66583645 44.68852437 C165.6697323 50.24760569 165.67931106 55.80667775 165.68804932 61.36575317 C165.7078333 74.80072737 165.71788202 88.23570234 165.72677711 101.67068747 C165.73115652 107.99141348 165.73652419 114.31213865 165.74176598 120.632864 C165.75877958 141.63361459 165.77330012 162.63436501 165.78051472 183.63512135 C165.78098948 184.99367433 165.78146537 186.35222732 165.78194238 187.7107803 C165.78217875 188.38451302 165.78241513 189.05824574 165.78265867 189.7523946 C165.78385989 193.16596917 165.78507533 196.57954373 165.78630066 199.99311829 C165.78666088 201.00927681 165.78666088 201.00927681 165.78702839 202.04596379 C165.79492393 224.01749611 165.81836069 245.98897449 165.8508566 267.96048325 C165.88513481 291.17935835 165.90486281 314.39820317 165.90815896 337.61710757 C165.91032774 350.27834008 165.91913018 362.93949331 165.94462013 375.60070229 C165.9662716 386.38041985 165.97440498 397.1600389 165.96465335 407.93977574 C165.9600926 413.44313524 165.96209754 418.94629121 165.98141479 424.44962311 C165.99893287 429.48368888 165.99814176 434.51740095 165.9825175 439.55146988 C165.98012407 441.37652489 165.98455394 443.20160367 165.99634615 445.02662215 C166.01134648 447.50059402 166.00187601 449.97329325 165.98611927 452.44723225 C165.99634148 453.16189831 166.00656368 453.87656438 166.01709566 454.612887 C165.95043898 459.38207946 164.86331425 461.79561944 161.49113464 465.14717102 C158.62850253 466.57848708 156.18337415 466.28309034 152.98226929 466.29434204 C152.30621857 466.29801873 151.63016786 466.30169542 150.93363076 466.30548352 C148.65746236 466.31653863 146.38133958 466.32036726 144.10514832 466.32417297 C142.47751723 466.33043622 140.84988759 466.33708289 139.22225952 466.34408569 C134.79243643 466.36150763 130.36262413 466.37205058 125.93277526 466.38029122 C123.16646813 466.38543857 120.40016438 466.3915144 117.63385963 466.39780235 C108.98249435 466.41685726 100.33113763 466.43108809 91.67975539 466.43941432 C81.68610597 466.44919062 71.69267782 466.47551908 61.6991064 466.51591522 C53.97930466 466.5460518 46.25956644 466.56088083 38.53970701 466.56419533 C33.92676411 466.56654853 29.31405751 466.57554377 24.7011776 466.60065651 C20.36157822 466.62389954 16.02237135 466.62818578 11.68272591 466.61789513 C10.08999198 466.61739874 8.49723897 466.62374939 6.9045639 466.63745117 C4.72955407 466.65511577 2.55596121 466.6480925 0.38095093 466.63491821 C-1.44445079 466.63850074 -1.44445079 466.63850074 -3.30672932 466.64215565 C-7.12977608 466.05119094 -8.77663822 464.83150387 -11.50886536 462.14717102 C-13.0029188 459.15906414 -12.64982274 456.10154294 -12.64308643 452.82475567 C-12.64543866 452.05742431 -12.64779089 451.29009295 -12.6502144 450.49950913 C-12.65692702 447.90122946 -12.6564455 445.30299954 -12.65603638 442.70471191 C-12.65933359 440.83388912 -12.66305885 438.96306704 -12.66717786 437.09224588 C-12.67722208 431.93010206 -12.68091853 426.76796988 -12.68356717 421.60581768 C-12.68746301 416.04673635 -12.69704178 410.48766429 -12.70578003 404.92858887 C-12.72556401 391.49361467 -12.73561273 378.0586397 -12.74450782 364.62365457 C-12.74888723 358.30292856 -12.7542549 351.98220339 -12.75949669 345.66147804 C-12.77651029 324.66072745 -12.79103083 303.65997703 -12.79824543 282.6592207 C-12.79872019 281.30066771 -12.79919608 279.94211472 -12.79967309 278.58356174 C-12.79990947 277.90982902 -12.80014584 277.2360963 -12.80038938 276.54194744 C-12.80159061 273.12837287 -12.80280605 269.71479831 -12.80403137 266.30122375 C-12.80427152 265.62378474 -12.80451167 264.94634573 -12.8047591 264.24837826 C-12.81265464 242.27684594 -12.8360914 220.30536755 -12.86858732 198.33385879 C-12.90286553 175.11498369 -12.92259352 151.89613887 -12.92588967 128.67723447 C-12.92805845 116.01600196 -12.9368609 103.35484873 -12.96235085 90.69363976 C-12.98400231 79.91392219 -12.99213569 69.13430314 -12.98238406 58.3545663 C-12.97782332 52.8512068 -12.97982825 47.34805083 -12.99914551 41.84471893 C-13.01666358 36.81065316 -13.01587247 31.77694109 -13.00024822 26.74287216 C-12.99785478 24.91781715 -13.00228466 23.09273837 -13.01407687 21.26771989 C-13.02907719 18.79374802 -13.01960672 16.32104879 -13.00384998 13.84710979 C-13.01407219 13.13244373 -13.0242944 12.41777766 -13.03482637 11.68145505 C-12.9681697 6.91226258 -11.88104496 4.4987226 -8.50886536 1.14717102 C-5.64623325 -0.28414503 -3.20110486 0.01125171 0 0 Z M5.49113464 18.14717102 C5.49113464 160.04717102 5.49113464 301.94717102 5.49113464 448.14717102 C52.35113464 448.14717102 99.21113464 448.14717102 147.49113464 448.14717102 C147.49113464 443.52717102 147.49113464 438.90717102 147.49113464 434.14717102 C145.67226746 434.13299133 143.85340027 434.11881165 141.97941589 434.10420227 C139.58746345 434.05730124 137.19553714 434.00905387 134.80363464 433.95967102 C133.60545105 433.95387024 132.40726746 433.94806946 131.17277527 433.9420929 C121.25277191 433.693402 121.25277191 433.693402 118.19816589 430.78388977 C116.07100305 427.49822634 115.69146927 425.9855648 116.49113464 422.14717102 C118.14772896 419.58835828 118.89098557 418.57975822 121.49113464 417.14717102 C125.92206069 416.37753315 130.31428845 416.35640535 134.80363464 416.33467102 C136.62991394 416.29696594 136.62991394 416.29696594 138.49308777 416.25849915 C141.49208983 416.19969518 144.49164727 416.17055469 147.49113464 416.14717102 C147.49113464 411.52717102 147.49113464 406.90717102 147.49113464 402.14717102 C145.76032654 402.14306213 144.02951843 402.13895325 142.2462616 402.13471985 C136.51840044 402.11529978 130.7910136 402.07295772 125.06341267 402.01508045 C121.59172289 401.98083406 118.12047201 401.95570434 114.64860535 401.95161438 C110.65417997 401.94650508 106.66106758 401.90137636 102.66691589 401.85420227 C101.42404312 401.85813492 100.18117035 401.86206757 98.90063477 401.86611938 C89.29621707 401.70359674 89.29621707 401.70359674 86.20671082 398.79048157 C84.07199152 395.50136732 83.69009768 393.99214844 84.49113464 390.14717102 C86.14570533 387.59785598 86.90347143 386.58068624 89.49113464 385.14717102 C93.87469439 384.37640961 98.22515744 384.42608534 102.66691589 384.44013977 C103.94721176 384.42501846 105.22750763 384.40989716 106.54660034 384.39431763 C109.93819534 384.35453717 113.32925332 384.3442819 116.72105408 384.34028625 C120.18689696 384.33094135 123.65242605 384.29351958 127.11808777 384.25849915 C133.90916885 384.19556474 140.69978758 384.16329348 147.49113464 384.14717102 C147.49113464 379.52717102 147.49113464 374.90717102 147.49113464 370.14717102 C145.67226746 370.13299133 143.85340027 370.11881165 141.97941589 370.10420227 C139.58746345 370.05730124 137.19553714 370.00905387 134.80363464 369.95967102 C133.60545105 369.95387024 132.40726746 369.94806946 131.17277527 369.9420929 C121.25277191 369.693402 121.25277191 369.693402 118.19816589 366.78388977 C116.07100305 363.49822634 115.69146927 361.9855648 116.49113464 358.14717102 C118.14772896 355.58835828 118.89098557 354.57975822 121.49113464 353.14717102 C125.92206069 352.37753315 130.31428845 352.35640535 134.80363464 352.33467102 C136.62991394 352.29696594 136.62991394 352.29696594 138.49308777 352.25849915 C141.49208983 352.19969518 144.49164727 352.17055469 147.49113464 352.14717102 C147.49113464 347.52717102 147.49113464 342.90717102 147.49113464 338.14717102 C145.76032654 338.14306213 144.02951843 338.13895325 142.2462616 338.13471985 C136.51840044 338.11529978 130.7910136 338.07295772 125.06341267 338.01508045 C121.59172289 337.98083406 118.12047201 337.95570434 114.64860535 337.95161438 C110.65417997 337.94650508 106.66106758 337.90137636 102.66691589 337.85420227 C101.42404312 337.85813492 100.18117035 337.86206757 98.90063477 337.86611938 C89.29621707 337.70359674 89.29621707 337.70359674 86.20671082 334.79048157 C84.07199152 331.50136732 83.69009768 329.99214844 84.49113464 326.14717102 C86.14570533 323.59785598 86.90347143 322.58068624 89.49113464 321.14717102 C93.87469439 320.37640961 98.22515744 320.42608534 102.66691589 320.44013977 C103.94721176 320.42501846 105.22750763 320.40989716 106.54660034 320.39431763 C109.93819534 320.35453717 113.32925332 320.3442819 116.72105408 320.34028625 C120.18689696 320.33094135 123.65242605 320.29351958 127.11808777 320.25849915 C133.90916885 320.19556474 140.69978758 320.16329348 147.49113464 320.14717102 C147.49113464 315.52717102 147.49113464 310.90717102 147.49113464 306.14717102 C145.67226746 306.13299133 143.85340027 306.11881165 141.97941589 306.10420227 C139.58746345 306.05730124 137.19553714 306.00905387 134.80363464 305.95967102 C133.60545105 305.95387024 132.40726746 305.94806946 131.17277527 305.9420929 C121.25277191 305.693402 121.25277191 305.693402 118.19816589 302.78388977 C116.07100305 299.49822634 115.69146927 297.9855648 116.49113464 294.14717102 C118.14772896 291.58835828 118.89098557 290.57975822 121.49113464 289.14717102 C125.92206069 288.37753315 130.31428845 288.35640535 134.80363464 288.33467102 C136.62991394 288.29696594 136.62991394 288.29696594 138.49308777 288.25849915 C141.49208983 288.19969518 144.49164727 288.17055469 147.49113464 288.14717102 C147.49113464 283.52717102 147.49113464 278.90717102 147.49113464 274.14717102 C145.76032654 274.14306213 144.02951843 274.13895325 142.2462616 274.13471985 C136.51840044 274.11529978 130.7910136 274.07295772 125.06341267 274.01508045 C121.59172289 273.98083406 118.12047201 273.95570434 114.64860535 273.95161438 C110.65417997 273.94650508 106.66106758 273.90137636 102.66691589 273.85420227 C101.42404312 273.85813492 100.18117035 273.86206757 98.90063477 273.86611938 C89.29621707 273.70359674 89.29621707 273.70359674 86.20671082 270.79048157 C84.07199152 267.50136732 83.69009768 265.99214844 84.49113464 262.14717102 C86.14570533 259.59785598 86.90347143 258.58068624 89.49113464 257.14717102 C93.87469439 256.37640961 98.22515744 256.42608534 102.66691589 256.44013977 C103.94721176 256.42501846 105.22750763 256.40989716 106.54660034 256.39431763 C109.93819534 256.35453717 113.32925332 256.3442819 116.72105408 256.34028625 C120.18689696 256.33094135 123.65242605 256.29351958 127.11808777 256.25849915 C133.90916885 256.19556474 140.69978758 256.16329348 147.49113464 256.14717102 C147.49113464 251.52717102 147.49113464 246.90717102 147.49113464 242.14717102 C145.67226746 242.13299133 143.85340027 242.11881165 141.97941589 242.10420227 C139.58746345 242.05730124 137.19553714 242.00905387 134.80363464 241.95967102 C133.60545105 241.95387024 132.40726746 241.94806946 131.17277527 241.9420929 C121.25277191 241.693402 121.25277191 241.693402 118.19816589 238.78388977 C116.07100305 235.49822634 115.69146927 233.9855648 116.49113464 230.14717102 C118.14772896 227.58835828 118.89098557 226.57975822 121.49113464 225.14717102 C125.92206069 224.37753315 130.31428845 224.35640535 134.80363464 224.33467102 C136.02115417 224.3095343 137.23867371 224.28439758 138.49308777 224.25849915 C141.49208983 224.19969518 144.49164727 224.17055469 147.49113464 224.14717102 C147.49113464 219.52717102 147.49113464 214.90717102 147.49113464 210.14717102 C145.76032654 210.14306213 144.02951843 210.13895325 142.2462616 210.13471985 C136.51840044 210.11529978 130.7910136 210.07295772 125.06341267 210.01508045 C121.59172289 209.98083406 118.12047201 209.95570434 114.64860535 209.95161438 C110.65417997 209.94650508 106.66106758 209.90137636 102.66691589 209.85420227 C101.42404312 209.85813492 100.18117035 209.86206757 98.90063477 209.86611938 C89.29621707 209.70359674 89.29621707 209.70359674 86.20671082 206.79048157 C84.07199152 203.50136732 83.69009768 201.99214844 84.49113464 198.14717102 C86.14570533 195.59785598 86.90347143 194.58068624 89.49113464 193.14717102 C93.87469439 192.37640961 98.22515744 192.42608534 102.66691589 192.44013977 C103.94721176 192.42501846 105.22750763 192.40989716 106.54660034 192.39431763 C109.93819534 192.35453717 113.32925332 192.3442819 116.72105408 192.34028625 C120.18689696 192.33094135 123.65242605 192.29351958 127.11808777 192.25849915 C133.90916885 192.19556474 140.69978758 192.16329348 147.49113464 192.14717102 C147.49113464 187.52717102 147.49113464 182.90717102 147.49113464 178.14717102 C145.67226746 178.13299133 143.85340027 178.11881165 141.97941589 178.10420227 C139.58746345 178.05730124 137.19553714 178.00905387 134.80363464 177.95967102 C133.60545105 177.95387024 132.40726746 177.94806946 131.17277527 177.9420929 C121.25277191 177.693402 121.25277191 177.693402 118.19816589 174.78388977 C116.07100305 171.49822634 115.69146927 169.9855648 116.49113464 166.14717102 C118.14772896 163.58835828 118.89098557 162.57975822 121.49113464 161.14717102 C125.92206069 160.37753315 130.31428845 160.35640535 134.80363464 160.33467102 C136.02115417 160.3095343 137.23867371 160.28439758 138.49308777 160.25849915 C141.49208983 160.19969518 144.49164727 160.17055469 147.49113464 160.14717102 C147.49113464 155.52717102 147.49113464 150.90717102 147.49113464 146.14717102 C145.76032654 146.14306213 144.02951843 146.13895325 142.2462616 146.13471985 C136.51840044 146.11529978 130.7910136 146.07295772 125.06341267 146.01508045 C121.59172289 145.98083406 118.12047201 145.95570434 114.64860535 145.95161438 C110.65417997 145.94650508 106.66106758 145.90137636 102.66691589 145.85420227 C101.42404312 145.85813492 100.18117035 145.86206757 98.90063477 145.86611938 C89.29621707 145.70359674 89.29621707 145.70359674 86.20671082 142.79048157 C84.07199152 139.50136732 83.69009768 137.99214844 84.49113464 134.14717102 C86.14570533 131.59785598 86.90347143 130.58068624 89.49113464 129.14717102 C93.87469439 128.37640961 98.22515744 128.42608534 102.66691589 128.44013977 C103.94721176 128.42501846 105.22750763 128.40989716 106.54660034 128.39431763 C109.93819534 128.35453717 113.32925332 128.3442819 116.72105408 128.34028625 C120.18689696 128.33094135 123.65242605 128.29351958 127.11808777 128.25849915 C133.90916885 128.19556474 140.69978758 128.16329348 147.49113464 128.14717102 C147.49113464 123.52717102 147.49113464 118.90717102 147.49113464 114.14717102 C145.67226746 114.13299133 143.85340027 114.11881165 141.97941589 114.10420227 C139.58746345 114.05730124 137.19553714 114.00905387 134.80363464 113.95967102 C133.60545105 113.95387024 132.40726746 113.94806946 131.17277527 113.9420929 C121.25277191 113.693402 121.25277191 113.693402 118.19816589 110.78388977 C116.07100305 107.49822634 115.69146927 105.9855648 116.49113464 102.14717102 C118.14772896 99.58835828 118.89098557 98.57975822 121.49113464 97.14717102 C125.92206069 96.37753315 130.31428845 96.35640535 134.80363464 96.33467102 C136.02115417 96.3095343 137.23867371 96.28439758 138.49308777 96.25849915 C141.49208983 96.19969518 144.49164727 96.17055469 147.49113464 96.14717102 C147.49113464 91.52717102 147.49113464 86.90717102 147.49113464 82.14717102 C145.76032654 82.14306213 144.02951843 82.13895325 142.2462616 82.13471985 C136.51840044 82.11529978 130.7910136 82.07295772 125.06341267 82.01508045 C121.59172289 81.98083406 118.12047201 81.95570434 114.64860535 81.95161438 C110.65417997 81.94650508 106.66106758 81.90137636 102.66691589 81.85420227 C101.42404312 81.85813492 100.18117035 81.86206757 98.90063477 81.86611938 C89.29621707 81.70359674 89.29621707 81.70359674 86.20671082 78.79048157 C84.07199152 75.50136732 83.69009768 73.99214844 84.49113464 70.14717102 C86.14570533 67.59785598 86.90347143 66.58068624 89.49113464 65.14717102 C93.87469439 64.37640961 98.22515744 64.42608534 102.66691589 64.44013977 C103.94721176 64.42501846 105.22750763 64.40989716 106.54660034 64.39431763 C109.93819534 64.35453717 113.32925332 64.3442819 116.72105408 64.34028625 C120.18689696 64.33094135 123.65242605 64.29351958 127.11808777 64.25849915 C133.90916885 64.19556474 140.69978758 64.16329348 147.49113464 64.14717102 C147.49113464 59.52717102 147.49113464 54.90717102 147.49113464 50.14717102 C145.67226746 50.13299133 143.85340027 50.11881165 141.97941589 50.10420227 C139.58746345 50.05730124 137.19553714 50.00905387 134.80363464 49.95967102 C133.60545105 49.95387024 132.40726746 49.94806946 131.17277527 49.9420929 C121.25277191 49.693402 121.25277191 49.693402 118.19816589 46.78388977 C116.07100305 43.49822634 115.69146927 41.9855648 116.49113464 38.14717102 C118.14772896 35.58835828 118.89098557 34.57975822 121.49113464 33.14717102 C125.92206069 32.37753315 130.31428845 32.35640535 134.80363464 32.33467102 C136.02115417 32.3095343 137.23867371 32.28439758 138.49308777 32.25849915 C141.49208983 32.19969518 144.49164727 32.17055469 147.49113464 32.14717102 C147.49113464 27.52717102 147.49113464 22.90717102 147.49113464 18.14717102 C100.63113464 18.14717102 53.77113464 18.14717102 5.49113464 18.14717102 Z " fill="#000000" transform="translate(131.5088653564453,22.852828979492188)"/>
<path d="M0 0 C7.7625173 5.29002082 14.32347923 13.17185566 20.9387207 19.80834961 C22.95344771 21.82849057 24.97353385 23.84316383 26.99414062 25.85742188 C28.2763629 27.14030401 29.55827545 28.42349581 30.83984375 29.70703125 C31.44392563 30.3090889 32.04800751 30.91114655 32.6703949 31.53144836 C37.86131892 36.75187029 37.86131892 36.75187029 38.3125 40.8125 C37.92835642 44.7307645 36.70743683 46.21293267 34 49 C30.98221063 50.50889469 29.37677363 50.50026276 26 50 C18.95319395 45.35866822 12.71665218 37.71665218 7 32 C7 164.66 7 297.32 7 434 C12.61 428.39 18.22 422.78 24 417 C26.85324437 415.57337781 28.83454549 415.68966132 32 416 C34.69990662 417.79993774 36.5418865 419.083773 38 422 C38.5 424.625 38.5 424.625 38 428 C32.70997918 435.7625173 24.82814434 442.32347923 18.19165039 448.9387207 C16.17150943 450.95344771 14.15683617 452.97353385 12.14257812 454.99414062 C10.85969599 456.2763629 9.57650419 457.55827545 8.29296875 458.83984375 C7.6909111 459.44392563 7.08885345 460.04800751 6.46855164 460.6703949 C1.37135548 465.73878943 1.37135548 465.73878943 -2.625 466.5 C-11.82010458 465.13776228 -20.53618355 452.61475668 -26.9387207 446.19165039 C-28.95344771 444.17150943 -30.97353385 442.15683617 -32.99414062 440.14257812 C-34.2763629 438.85969599 -35.55827545 437.57650419 -36.83984375 436.29296875 C-37.44392563 435.6909111 -38.04800751 435.08885345 -38.6703949 434.46855164 C-43.86131892 429.24812971 -43.86131892 429.24812971 -44.3125 425.1875 C-43.92835642 421.2692355 -42.70743683 419.78706733 -40 417 C-36.98221063 415.49110531 -35.37677363 415.49973724 -32 416 C-24.95319395 420.64133178 -18.71665218 428.28334782 -13 434 C-13 301.34 -13 168.68 -13 32 C-18.61 37.61 -24.22 43.22 -30 49 C-32.85324437 50.42662219 -34.83454549 50.31033868 -38 50 C-40.69990662 48.20006226 -42.5418865 46.916227 -44 44 C-44.5 41.375 -44.5 41.375 -44 38 C-38.70997918 30.2374827 -30.82814434 23.67652077 -24.19165039 17.0612793 C-22.17150943 15.04655229 -20.15683617 13.02646615 -18.14257812 11.00585938 C-16.85969599 9.7236371 -15.57650419 8.44172455 -14.29296875 7.16015625 C-13.6909111 6.55607437 -13.08885345 5.95199249 -12.46855164 5.3296051 C-8.23406567 1.11904602 -6.11718917 -0.90625025 0 0 Z " fill="#313132" transform="translate(355,23)"/>
</svg>
