<?xml version="1.0" encoding="UTF-8"?>
<svg version="1.1" xmlns="http://www.w3.org/2000/svg" width="512" height="512">
<path d="M0 0 C1.21065347 -0.00569124 2.42130694 -0.01138248 3.66864687 -0.01724619 C5.02428844 -0.01853895 6.37993012 -0.01972695 7.73557186 -0.02082157 C9.16631568 -0.02555027 10.59705816 -0.03070087 12.02779907 -0.03623921 C15.97364948 -0.05017528 19.91949064 -0.05773738 23.86535943 -0.0642122 C27.24641314 -0.07057475 30.62745159 -0.08064609 34.00849582 -0.09077286 C45.15072304 -0.12413027 56.29295956 -0.1456257 67.43522039 -0.16397271 C70.33615172 -0.1687663 73.23708267 -0.1737498 76.1380136 -0.17877793 C94.14628475 -0.20975036 112.15455909 -0.23644059 130.16284943 -0.25319672 C134.33601099 -0.25714633 138.5091725 -0.26114931 142.68233395 -0.2652216 C143.71957609 -0.26622996 144.75681823 -0.26723832 145.82549196 -0.26827724 C162.62586008 -0.28528182 179.42608084 -0.32638683 196.22637702 -0.37724458 C213.46934258 -0.42901348 230.71223237 -0.45813814 247.955275 -0.4653936 C257.63881538 -0.47005707 267.32211456 -0.48482079 277.00557804 -0.5251379 C285.25339136 -0.55943553 293.50091998 -0.57337839 301.74880052 -0.56071376 C305.95663898 -0.55488599 310.16387533 -0.55875841 314.37162304 -0.5888834 C318.2267806 -0.61625849 322.08090868 -0.61573887 325.93608927 -0.59337295 C327.32785109 -0.59015204 328.719682 -0.59700698 330.11132903 -0.61517017 C338.70377348 -0.72048163 344.95749387 0.0142267 351.34419918 6.1398077 C355.93345992 12.0776463 356.49434717 17.72442388 356.50533199 24.99429989 C356.5102969 25.78182644 356.5152618 26.56935299 356.52037716 27.38074398 C356.53496574 29.9827325 356.54179582 32.58466002 356.54732418 35.1866827 C356.55307903 37.000261 356.55883673 38.81383929 356.56459713 40.62741756 C356.57509819 44.43037861 356.58094649 48.23331858 356.58443356 52.03629208 C356.58991166 56.89618048 356.61392883 61.75578779 356.64240551 66.61558819 C356.66108193 70.36294001 356.66624018 74.11022486 356.66776943 77.85761929 C356.67078598 79.64848267 356.67878063 81.43934515 356.69195461 83.23016262 C356.7091176 85.74290137 356.70710996 88.2549629 356.70064449 90.76773739 C356.70985928 91.49945156 356.71907406 92.23116573 356.72856808 92.98505306 C356.67597272 99.55034171 354.99985145 105.83759256 350.65669918 110.9523077 C350.21970699 111.49500301 349.78271481 112.03769833 349.33248043 112.59683895 C342.23236731 118.10674992 334.00393242 117.56471486 325.45235348 117.52075863 C324.04046518 117.52421858 322.62857958 117.52898541 321.2166996 117.53494036 C317.35080702 117.54743372 313.48513736 117.54128763 309.6192441 117.53198171 C305.44467173 117.52518471 301.27013727 117.53567567 297.09557247 117.54392147 C288.92307374 117.55725405 280.75065771 117.55438318 272.57815576 117.54568355 C265.93557796 117.53890555 259.29302333 117.53799079 252.65044308 117.541255 C251.70466324 117.5417147 250.75888339 117.5421744 249.78444356 117.54264802 C247.86304767 117.54360721 245.94165179 117.54457985 244.02025592 117.5455658 C226.00771163 117.5541183 207.99521316 117.54428775 189.98267639 117.5281647 C174.53056989 117.51476165 159.07853102 117.51708978 143.62642574 117.53092098 C125.67787755 117.54697926 107.7293695 117.55329434 89.78081512 117.54408419 C87.86652852 117.54312855 85.9522419 117.54218544 84.03795528 117.541255 C82.62519511 117.54056076 82.62519511 117.54056076 81.18389434 117.53985249 C74.55009413 117.53726335 67.91631941 117.54163198 61.28252316 117.54869366 C53.19699499 117.55711159 45.11155419 117.55482233 37.02603602 117.53885143 C32.90149773 117.53097267 28.77710505 117.52787035 24.65256786 117.53779888 C20.87503662 117.54675451 17.09778563 117.54179878 13.32027972 117.52586623 C11.31043886 117.52094094 9.30057847 117.53070718 7.29075813 117.54103792 C-0.27504029 117.49180871 -6.76512667 117.25776956 -12.89798832 112.3429327 C-13.43681644 111.69840145 -13.97564457 111.0538702 -14.53080082 110.3898077 C-15.36224613 109.43847958 -15.36224613 109.43847958 -16.21048832 108.4679327 C-19.57308843 103.05142009 -19.95410008 97.20074343 -19.94632816 90.97647762 C-19.95304539 90.19172558 -19.95976261 89.40697353 -19.96668339 88.59844112 C-19.98557106 86.02232056 -19.98958291 83.44646181 -19.99173832 80.87027645 C-19.99817276 79.06577609 -20.0049016 77.26127675 -20.01191044 75.45677853 C-20.02386021 71.68011718 -20.02759365 67.90354715 -20.02640629 64.12686825 C-20.02620326 59.30861976 -20.05349939 54.49096212 -20.08795071 49.67285347 C-20.1102856 45.94685378 -20.11424181 42.22099479 -20.11318684 38.49493504 C-20.11553311 36.71967503 -20.12430123 34.94441056 -20.13985157 33.16921711 C-20.30632044 12.20273189 -20.30632044 12.20273189 -13.58548832 4.88590145 C-12.90744144 4.45406551 -12.22939457 4.02222958 -11.53080082 3.5773077 C-10.84759769 3.12226864 -10.16439457 2.66722958 -9.46048832 2.19840145 C-6.04946353 0.19756223 -3.97833768 0.01086885 0 0 Z M-3.65580082 17.1398077 C-5.14667503 20.12155612 -4.82049021 23.17681512 -4.83280277 26.44766903 C-4.83937397 27.20070812 -4.84594517 27.95374722 -4.85271549 28.72960567 C-4.87246064 31.22701774 -4.88411381 33.72436963 -4.89408207 36.22183895 C-4.8981576 37.07430391 -4.90223312 37.92676888 -4.90643215 38.80506611 C-4.92729819 43.31711619 -4.94159752 47.82913581 -4.95096684 52.34122372 C-4.96203182 57.00201909 -4.99643096 61.66233711 -5.03613853 66.32296371 C-5.06228289 69.90635218 -5.07065672 73.48962654 -5.07424831 77.073102 C-5.07912002 78.79110278 -5.09075068 80.50909827 -5.10928631 82.22700596 C-5.13363193 84.63297633 -5.13272161 87.03770697 -5.12577152 89.44376278 C-5.13858158 90.15200191 -5.15139164 90.86024105 -5.16458988 91.58994198 C-5.1135875 96.43975483 -4.07105478 98.74212231 -0.65580082 102.1398077 C2.05119958 102.88471568 2.05119958 102.88471568 5.10388851 102.7690134 C6.28677361 102.78205214 7.46965872 102.79509088 8.68838882 102.80852473 C9.9891495 102.79737112 11.28991018 102.78621751 12.63008785 102.77472591 C14.02488219 102.78048558 15.41966894 102.78842567 16.81443977 102.79836214 C20.65161762 102.81928062 24.48817561 102.8088981 28.32535601 102.79343104 C32.46177674 102.78214169 36.59808912 102.79956819 40.73448849 102.81333065 C48.83939777 102.83559353 56.94407587 102.83074835 65.0489943 102.81626745 C71.63450633 102.80498716 78.21995346 102.80343905 84.80547237 102.80888653 C86.21003525 102.81003578 86.21003525 102.81003578 87.64297312 102.81120824 C89.54505008 102.81280683 91.44712702 102.81442789 93.34920394 102.8160712 C111.1956826 102.83033763 129.04203295 102.81392196 146.88849056 102.78706937 C162.21005406 102.76472977 177.53142816 102.76860965 192.85298824 102.79166317 C210.63448647 102.8184054 228.41587217 102.82896425 246.1973877 102.81360185 C248.09256711 102.81200906 249.98774654 102.81043721 251.88292599 102.80888653 C252.81545246 102.80811515 253.74797893 102.80734377 254.70876378 102.80654902 C261.28830929 102.80222728 267.86778359 102.80952876 274.44731808 102.82128429 C282.46284836 102.83529034 290.47813376 102.83154944 298.49363589 102.80488057 C302.58533476 102.79171667 306.67662496 102.78663337 310.76832104 102.80312634 C314.51144638 102.81798637 318.2537829 102.8099044 321.9968363 102.78323857 C323.99789474 102.7749754 325.9990076 102.79136677 328.00000954 102.80852473 C329.77433719 102.78896662 329.77433719 102.78896662 331.58450985 102.7690134 C333.11912475 102.76779576 333.11912475 102.76779576 334.68474197 102.76655352 C338.34906677 101.90299375 339.38834791 100.27793957 341.34419918 97.1398077 C341.72626546 94.44468584 341.88276523 92.16353285 341.84590816 89.47550106 C341.85131115 88.72041759 341.85671413 87.96533413 341.86228085 87.18736935 C341.87474917 84.70105996 341.85829233 82.21591275 341.84029293 79.72965145 C341.84044795 77.99760026 341.84193738 76.26554871 341.84470272 74.53349972 C341.8460858 70.90789059 341.8335428 67.28267749 341.81075191 63.65714169 C341.78234618 59.0109197 341.78511149 54.36535454 341.79784203 49.71908379 C341.80479756 46.14427235 341.79701175 42.56961266 341.784585 38.99482059 C341.78007076 37.28161418 341.77973346 35.56839148 341.7836504 33.8551836 C341.78656197 31.46135595 341.77005993 29.06843309 341.74825191 26.67471981 C341.75275356 25.96759853 341.75725521 25.26047726 341.76189327 24.53192806 C341.71595156 21.49573412 341.49286777 19.40746407 340.00644588 16.73137569 C336.59463158 13.4646317 332.73714311 14.02391813 328.26998043 14.04215145 C327.58614788 14.0435664 326.90231533 14.04498135 326.19776058 14.04643917 C324.01736196 14.05202894 321.83706667 14.06457948 319.65669918 14.0773077 C318.17688296 14.08232403 316.69706512 14.0868867 315.21724606 14.09097958 C311.59286361 14.10199499 307.96854149 14.11925258 304.34419918 14.1398077 C304.34055355 14.80966198 304.33690792 15.47951626 304.33315182 16.16966915 C304.29140711 23.12890222 304.22211812 30.08747082 304.13667965 37.04630184 C304.10841849 39.64486712 304.08722973 42.24351918 304.07320309 44.84220028 C304.05184552 48.57336689 304.00522972 52.30348425 303.95357418 56.03433895 C303.95234554 57.20003918 303.95111691 58.3657394 303.94985104 59.56676388 C303.93013241 60.64765789 303.91041378 61.7285519 303.89009762 62.84220028 C303.88121517 63.79484264 303.87233273 64.74748501 303.86318111 65.72899532 C303.34419918 68.1398077 303.34419918 68.1398077 301.53664303 69.97481441 C298.1865648 71.75493692 295.91373154 71.13134447 292.34419918 70.1398077 C290.27124879 67.12548596 290.07774761 64.5101333 290.02535152 60.91226864 C289.99554699 59.35110317 289.99554699 59.35110317 289.96514034 57.75839901 C289.94781353 56.08321194 289.94781353 56.08321194 289.93013668 54.3741827 C289.90108746 52.65138088 289.90108746 52.65138088 289.87145138 50.89377499 C289.81167793 47.22586141 289.76527854 43.55791641 289.71919918 39.8898077 C289.6810174 37.40281486 289.64196556 34.91583521 289.60201168 32.4288702 C289.50434089 26.33258473 289.42475273 20.23643964 289.34419918 14.1398077 C277.46419918 14.1398077 265.58419918 14.1398077 253.34419918 14.1398077 C253.13431445 25.14882264 253.13431445 25.14882264 252.95625973 36.15836239 C252.92396181 37.54282978 252.89058694 38.92727265 252.85591793 40.3116827 C252.84967403 41.02533993 252.84343014 41.73899715 252.83699703 42.47428036 C252.7472577 45.57871752 252.50358135 47.84101428 251.03096676 50.60172176 C249.34419918 52.1398077 249.34419918 52.1398077 245.84419918 52.5773077 C242.34419918 52.1398077 242.34419918 52.1398077 240.6574316 51.10929012 C238.60442039 48.0303458 238.86270324 44.77423453 238.83248043 41.19058895 C238.81584347 40.50557308 238.7992065 39.82055721 238.78206539 39.11478329 C238.72432181 36.56093565 238.69202728 34.00656376 238.65669918 31.4523077 C238.55357418 25.7391827 238.45044918 20.0260577 238.34419918 14.1398077 C226.13419918 14.1398077 213.92419918 14.1398077 201.34419918 14.1398077 C201.31841793 18.00312801 201.29263668 21.86644833 201.26607418 25.84683895 C201.22768443 29.58006806 201.18251409 33.31315761 201.13667965 37.04630184 C201.10841849 39.64486712 201.08722973 42.24351918 201.07320309 44.84220028 C201.05184552 48.57336689 201.00522972 52.30348425 200.95357418 56.03433895 C200.95234554 57.20003918 200.95111691 58.3657394 200.94985104 59.56676388 C200.93013241 60.64765789 200.91041378 61.7285519 200.89009762 62.84220028 C200.88121517 63.79484264 200.87233273 64.74748501 200.86318111 65.72899532 C200.34419918 68.1398077 200.34419918 68.1398077 198.44386959 69.96626949 C194.91176525 71.94041714 192.22774738 70.85179154 188.34419918 70.1398077 C187.56750613 66.67710491 187.20046717 63.43637888 187.13887691 59.89054012 C187.11893169 58.86985943 187.09898647 57.84917873 187.07843685 56.79756832 C187.05336811 55.16293385 187.05336811 55.16293385 187.02779293 53.49527645 C186.99662128 51.80789112 186.99662128 51.80789112 186.96481991 50.0864172 C186.89954126 46.5001083 186.84054019 42.91372743 186.78169918 39.3273077 C186.73849335 36.89305553 186.6948784 34.45881058 186.65083981 32.02457333 C186.54311381 26.06305742 186.4438786 20.1014853 186.34419918 14.1398077 C174.46419918 14.1398077 162.58419918 14.1398077 150.34419918 14.1398077 C150.1342226 25.52297539 150.1342226 25.52297539 149.95625973 36.9066534 C149.92397192 38.33465861 149.89059849 39.76263986 149.85591793 41.19058895 C149.84967403 41.93095394 149.84343014 42.67131893 149.83699703 43.43411922 C149.69145717 48.61798463 149.69145717 48.61798463 148.03096676 51.11319637 C145.14708299 52.86840426 142.61100976 52.48982312 139.34419918 52.1398077 C137.6574316 51.11319637 137.6574316 51.11319637 136.34419918 49.1398077 C136.0134489 46.42152968 135.85544449 43.91353428 135.83248043 41.19058895 C135.81584347 40.50557308 135.7992065 39.82055721 135.78206539 39.11478329 C135.72432181 36.56093565 135.69202728 34.00656376 135.65669918 31.4523077 C135.55357418 25.7391827 135.45044918 20.0260577 135.34419918 14.1398077 C123.46419918 14.1398077 111.58419918 14.1398077 99.34419918 14.1398077 C99.28361324 17.76336239 99.22302731 21.38691708 99.16060543 25.12027645 C99.09878784 28.6317717 99.0354118 32.1432356 98.97188473 35.65470028 C98.92858709 38.094125 98.88690835 40.53357902 98.84688473 42.97305965 C98.7890571 46.48055504 98.72539833 49.98790367 98.66060543 53.49527645 C98.64389294 54.58503277 98.62718044 55.67478909 98.60996151 56.79756832 C98.59001629 57.81824902 98.57007107 58.83892971 98.54952145 59.89054012 C98.53397717 60.78544659 98.51843288 61.68035305 98.50241756 62.60237789 C98.34092368 65.19233862 97.91156913 67.6103226 97.34419918 70.1398077 C89.97291921 71.49120903 89.97291921 71.49120903 87.24452877 69.96626949 C85.34419918 68.1398077 85.34419918 68.1398077 84.82521725 65.72899532 C84.8163348 64.77635296 84.80745235 63.82371059 84.79830074 62.84220028 C84.77858212 61.76130627 84.75886349 60.68041225 84.73854733 59.56676388 C84.73731869 58.40106365 84.73609005 57.23536343 84.73482418 56.03433895 C84.71828793 54.83999737 84.70175167 53.64565578 84.68471432 52.41512203 C84.63606415 48.59413251 84.61482468 44.77354144 84.59419918 40.9523077 C84.56605389 38.36439684 84.53612852 35.77650469 84.50435543 33.18863583 C84.42694374 26.83884008 84.38657832 20.49032136 84.34419918 14.1398077 C72.13419918 14.1398077 59.92419918 14.1398077 47.34419918 14.1398077 C47.1342226 25.52297539 47.1342226 25.52297539 46.95625973 36.9066534 C46.92397192 38.33465861 46.89059849 39.76263986 46.85591793 41.19058895 C46.84967403 41.93095394 46.84343014 42.67131893 46.83699703 43.43411922 C46.69142689 48.61906296 46.69142689 48.61906296 45.03096676 51.10929012 C42.11084083 52.89331842 39.64957306 52.55297944 36.34419918 52.1398077 C33.68129305 49.71162582 33.3480894 48.17197502 32.91182613 44.56461239 C32.87059461 43.14732208 32.84501025 41.72951727 32.83248043 40.3116827 C32.81452923 39.56267696 32.79657803 38.81367123 32.77808285 38.04196835 C32.72405375 35.65797146 32.69010915 33.2741739 32.65669918 30.8898077 C32.62351943 29.26998834 32.58902915 27.65019526 32.55318356 26.0304327 C32.46833202 22.06703504 32.40148629 18.10369573 32.34419918 14.1398077 C28.02091114 14.0654064 23.69796663 14.01108802 19.37422848 13.97501278 C17.90476136 13.95996704 16.43533884 13.93952532 14.96602535 13.91348934 C12.84848148 13.87691815 10.73153353 13.86003969 8.61373043 13.84683895 C7.34118404 13.8311285 6.06863766 13.81541805 4.75752926 13.79923153 C1.10197369 14.16397654 -0.7565444 14.93019491 -3.65580082 17.1398077 Z " fill="#727272" transform="translate(87.65580081939697,252.86019229888916)"/>
<path d="M0 0 C2 2.1875 2 2.1875 3 5 C2 11 2 11 -11 24 C94.6 24 200.2 24 309 24 C305.04 20.04 301.08 16.08 297 12 C295.43569752 8.87139505 295.64372716 6.44397075 296 3 C298.0625 0.5 298.0625 0.5 301 -1 C306.51885237 -0.94462137 309.22305339 0.51889968 313.03646851 4.20278931 C313.60966827 4.78813446 314.18286804 5.37347961 314.7734375 5.9765625 C315.38265045 6.5800351 315.9918634 7.18350769 316.61953735 7.80526733 C317.89908806 9.08074873 319.17114762 10.36378444 320.43603516 11.65380859 C322.36924967 13.6191541 324.33238784 15.55043024 326.30078125 17.48046875 C327.54359492 18.72724751 328.78454595 19.97588635 330.0234375 21.2265625 C330.90145523 22.08636215 330.90145523 22.08636215 331.79721069 22.96353149 C335.45872948 26.7537892 337.0735089 29.49495471 337 35 C335.96411133 37.03149414 335.96411133 37.03149414 334.26953125 38.72265625 C333.62064941 39.39055176 332.97176758 40.05844727 332.30322266 40.74658203 C331.54315918 41.49020996 330.7830957 42.23383789 330 43 C328.66651198 44.36789096 327.33304115 45.73579875 325.99996948 47.10409546 C324.0757041 49.06716 322.1302904 51.00843672 320.18237305 52.94799805 C318.66921334 54.45572096 317.16157115 55.96881759 315.65429688 57.48242188 C314.69042526 58.44563392 313.72624416 59.4085364 312.76171875 60.37109375 C311.4617395 61.6693811 311.4617395 61.6693811 310.13549805 62.99389648 C307.57887201 65.39561092 306.61509476 65.93314187 303.125 66.3125 C300 66 300 66 297.625 64.4375 C296 62 296 62 295.1875 58.875 C296.46665793 52.77440065 300.66472111 49.28503559 305 45 C306.32 43.68 307.64 42.36 309 41 C203.4 41 97.8 41 -11 41 C-6.71 45.29 -2.42 49.58 2 54 C3 60 3 60 1.6875 62.8125 C-0.37645597 65.48799848 -1.33037593 65.87245256 -4.625 66.5 C-13.30392016 65.21423405 -21.00746089 54.14219623 -26.9375 48.1875 C-27.90412902 47.22444087 -28.8709249 46.26154919 -29.83789062 45.29882812 C-30.74603516 44.38939453 -31.65417969 43.47996094 -32.58984375 42.54296875 C-33.41347412 41.71821045 -34.23710449 40.89345215 -35.08569336 40.04370117 C-37.69087548 37.26242588 -38.6891164 34.96757199 -38.5625 31.08203125 C-37.38472302 26.72262063 -33.84270133 23.8160193 -30.71826172 20.71240234 C-28.63600406 18.63724531 -26.5871057 16.53090556 -24.53515625 14.42578125 C-22.9207322 12.78241725 -21.30483232 11.14050187 -19.6875 9.5 C-18.50438232 8.29670044 -18.50438232 8.29670044 -17.29736328 7.0690918 C-16.54310059 6.314104 -15.78883789 5.55911621 -15.01171875 4.78125 C-14.33584717 4.10126953 -13.65997559 3.42128906 -12.96362305 2.72070312 C-8.62106422 -1.08463749 -5.65192888 -1.54143515 0 0 Z " fill="#727272" transform="translate(107,143)"/>
</svg>
