<?xml version="1.0" encoding="UTF-8"?>
<svg version="1.1" xmlns="http://www.w3.org/2000/svg" width="512" height="512">
<path d="M0 0 C2.17209336 -0.00543423 4.34418303 -0.01256412 6.51626587 -0.02124023 C12.36129001 -0.03932071 18.2060286 -0.03247 24.0510571 -0.01972389 C30.19964889 -0.00951771 36.34821805 -0.01901043 42.49681091 -0.02526855 C52.81644022 -0.03252238 63.13595459 -0.02301634 73.45556641 -0.00390625 C85.34812488 0.01786378 97.240409 0.01080083 109.13296086 -0.01121187 C119.3866069 -0.0294237 129.64017085 -0.03189617 139.89382786 -0.0214572 C145.99916031 -0.01525472 152.10436424 -0.01429668 158.20968819 -0.02760315 C163.9514359 -0.03924576 169.69283333 -0.03098361 175.43454361 -0.00802612 C177.52857446 -0.00278391 179.62263533 -0.00417471 181.71665382 -0.01307678 C207.08183174 -0.11088242 229.94008332 5.86826226 249.75561523 22.51757812 C250.8480957 23.3915625 250.8480957 23.3915625 251.96264648 24.28320312 C270.50520411 39.74074678 281.04054309 62.82766055 283.75561523 86.51757812 C284.11973425 93.02246329 284.02966892 99.54539648 284.0144043 106.05786133 C284.01711903 108.01243723 284.02068266 109.96701211 284.02502441 111.92158508 C284.03409989 117.20326785 284.03062243 122.48487198 284.02426624 127.76655602 C284.01917319 133.32379877 284.02390756 138.88103516 284.02703857 144.4382782 C284.03067196 153.77990922 284.02589908 163.12150856 284.01635742 172.46313477 C284.00550919 183.20680972 284.00897451 193.95040854 284.02001023 204.6940816 C284.02914313 213.96170422 284.03033824 223.22930415 284.02513289 232.49692982 C284.02204143 238.01229704 284.02152424 243.52762873 284.02820587 249.04299355 C284.11051709 327.91566774 284.11051709 327.91566774 261.75561523 355.51757812 C261.15362305 356.28328125 260.55163086 357.04898437 259.93139648 357.83789062 C243.44078098 377.68194366 219.71498648 386.69653111 194.58398438 389.0592804 C185.94034038 389.74966592 177.29180166 389.66557144 168.62670898 389.6628418 C166.71652664 389.66583924 164.8063449 389.6692431 162.89616394 389.67301941 C157.73660204 389.68180611 152.57705676 389.68419532 147.4174881 389.6848352 C144.18365815 389.68554896 140.94983234 389.68768949 137.71600342 389.69033241 C126.40449763 389.69956965 115.09300358 389.70366951 103.78149414 389.70288086 C93.28656427 389.70228117 82.79168598 389.71281588 72.29676914 389.72862452 C63.24745476 389.74176316 54.1981571 389.74706209 45.14883327 389.74642545 C39.76154704 389.74617223 34.37430665 389.74892496 28.98703003 389.7596035 C23.91110248 389.76939107 18.83526361 389.76929185 13.75933266 389.76208687 C11.91328105 389.76105398 10.06722361 389.76332512 8.22118187 389.76944733 C-25.45869775 389.87376339 -53.73551207 385.31231606 -78.93188477 361.26757812 C-111.23087501 327.8067537 -106.40583274 280.64975239 -106.41164184 237.59040117 C-106.41235996 234.59222134 -106.41450823 231.59404589 -106.41713905 228.59586716 C-106.42633653 218.098251 -106.43048025 207.6006474 -106.4296875 197.10302734 C-106.42908537 187.37408896 -106.43967817 177.64520576 -106.45543116 167.91628134 C-106.46855674 159.50542781 -106.47386943 151.09459225 -106.47323209 142.68372858 C-106.47297896 137.68514508 -106.47572794 132.686611 -106.48641014 127.68803787 C-106.49617865 122.99117 -106.49611117 118.29439805 -106.48889351 113.59752655 C-106.48785908 111.88888532 -106.49014132 110.18023782 -106.49625397 108.47160721 C-106.52441234 100.0462582 -106.3203852 91.74097898 -105.35810852 83.36410522 C-105.28110094 82.69123242 -105.20409336 82.01835962 -105.12475222 81.32509673 C-102.8371999 63.42350946 -94.46852975 45.75859889 -82.24438477 32.51757812 C-81.36137695 31.54304688 -80.47836914 30.56851563 -79.56860352 29.56445312 C-58.14253384 6.63093094 -30.4348801 -0.12952211 0 0 Z M-41.24438477 30.51757812 C-40.60486764 34.8682481 -38.9975065 38.5347313 -37.10375977 42.45898438 C-36.78490311 43.13151245 -36.46604645 43.80404053 -36.13752747 44.49694824 C-35.09482693 46.69374888 -34.04461712 48.88686972 -32.99438477 51.08007812 C-31.90629217 53.36731832 -30.8201356 55.65547093 -29.73414612 57.94371033 C-28.99619141 59.49841834 -28.25761069 61.05282936 -27.51841736 62.60694885 C-25.09311788 67.71023674 -22.69669679 72.82601474 -20.32641602 77.95507812 C-19.87360764 78.93467751 -19.87360764 78.93467751 -19.41165161 79.93406677 C-17.98614621 83.02056211 -16.5639303 86.10853619 -15.14379883 89.19750977 C-14.64203125 90.28410889 -14.14026367 91.37070801 -13.62329102 92.49023438 C-13.18573486 93.44164307 -12.74817871 94.39305176 -12.29736328 95.37329102 C-11.42202278 97.44761579 -11.42202278 97.44761579 -10.24438477 98.51757812 C-8.12757159 98.61179553 -6.00757718 98.63500574 -3.88867188 98.63110352 C-2.89358864 98.63132256 -2.89358864 98.63132256 -1.87840271 98.63154602 C0.32385479 98.63084693 2.52602868 98.62305477 4.72827148 98.61523438 C6.2514186 98.61337018 7.77456631 98.61194628 9.29771423 98.61094666 C13.31399175 98.60712159 17.33023331 98.59729141 21.34649658 98.58624268 C25.44184889 98.57602831 29.53720699 98.57144898 33.63256836 98.56640625 C41.67360051 98.55566912 49.71460341 98.53859284 57.75561523 98.51757812 C55.11200402 92.09848659 52.45663214 85.70698584 49.47827148 79.43554688 C48.8826274 78.17514077 48.28700663 76.91472364 47.69140625 75.65429688 C47.23303879 74.6882251 47.23303879 74.6882251 46.76541138 73.70263672 C40.99265713 61.52965898 35.34794383 49.30274152 29.81811523 37.01757812 C29.35503464 35.98883072 29.35503464 35.98883072 28.88259888 34.93930054 C27.17037777 31.13350338 25.4614752 27.32623166 23.75561523 23.51757812 C18.33368834 23.44240744 12.91207668 23.38850343 7.48974609 23.3527832 C5.65212712 23.33786408 3.81454266 23.31752145 1.97705078 23.29125977 C-13.30187878 23.0786471 -27.14378703 23.98153635 -41.24438477 30.51757812 Z M49.75561523 23.51757812 C51.77609137 29.57900654 53.80875002 35.10647053 56.56420898 40.79492188 C57.10907455 41.93680717 57.10907455 41.93680717 57.66494751 43.10176086 C58.43820446 44.72105998 59.21376608 46.33926033 59.9914856 47.9564209 C62.02464946 52.18416248 64.04129707 56.41978078 66.06030273 60.65429688 C66.46166946 61.49485626 66.86303619 62.33541565 67.27656555 63.20144653 C72.23123025 73.58833398 77.03812632 84.04224153 81.82617188 94.50683594 C82.44865134 95.85349759 83.09214281 97.19063328 83.75561523 98.51757812 C100.91561523 98.51757812 118.07561523 98.51757812 135.75561523 98.51757812 C134.05558145 93.40369783 134.05558145 93.40369783 131.99072266 88.51708984 C131.65201141 87.78614609 131.31330017 87.05520233 130.96432495 86.30210876 C130.41822067 85.13646141 130.41822067 85.13646141 129.86108398 83.94726562 C129.47687286 83.12041763 129.09266174 82.29356964 128.69680786 81.44166565 C127.44859032 78.75722221 126.19588721 76.0748987 124.94311523 73.39257812 C124.08432608 71.54775139 123.22584797 69.70277983 122.36767578 67.85766602 C120.64800444 64.16136094 118.92667437 60.46583605 117.20385742 56.77099609 C114.43229248 50.82595275 111.6704552 44.87641867 108.91040039 38.92602539 C106.52716566 33.78909021 104.14113145 28.65345422 101.75561523 23.51757812 C84.59561523 23.51757812 67.43561523 23.51757812 49.75561523 23.51757812 Z M127.75561523 23.51757812 C129.20760552 27.98285352 130.90038538 32.14008492 132.92358398 36.38085938 C133.23555725 37.03825607 133.54753052 37.69565277 133.86895752 38.37297058 C134.54116411 39.78932613 135.21476135 41.20502237 135.88961792 42.62011719 C137.69195451 46.40094644 139.4824685 50.18734698 141.27124023 53.97460938 C141.63982651 54.75494537 142.00841278 55.53528137 142.38816833 56.33926392 C148.24120234 68.76057289 153.87261379 81.28457354 159.51904297 93.80078125 C160.239891 95.38451212 160.97743462 96.96121689 161.75561523 98.51757812 C181.22561523 98.51757812 200.69561523 98.51757812 220.75561523 98.51757812 C218.82081026 92.7131632 217.05119295 87.70863543 214.45483398 82.29101562 C214.14154144 81.63235001 213.8282489 80.97368439 213.50546265 80.2950592 C212.83545237 78.88708701 212.16326416 77.48014943 211.48904419 76.07418823 C209.69409553 72.3302646 207.91579643 68.5784664 206.13842773 64.82617188 C205.77517899 64.05980911 205.41193024 63.29344635 205.03767395 62.50386047 C200.56101788 53.03138002 196.27893271 43.47139078 192.01025391 33.90380859 C191.72953033 33.27663437 191.44880676 32.64946014 191.15957642 32.00328064 C190.40443916 30.31553273 189.65230524 28.62644196 188.90039062 26.93725586 C187.97028008 24.61998377 187.97028008 24.61998377 186.75561523 23.51757812 C184.91443494 23.4237651 183.06963882 23.40013858 181.22607422 23.40405273 C179.45435097 23.40416603 179.45435097 23.40416603 177.64683533 23.40428162 C175.71874779 23.41202354 175.71874779 23.41202354 173.75170898 23.41992188 C172.44355728 23.42133682 171.13540558 23.42275177 169.78761292 23.42420959 C166.30398664 23.42803403 162.82040184 23.43786366 159.33679199 23.44891357 C155.78434816 23.4591293 152.23189764 23.46370756 148.67944336 23.46875 C141.70481691 23.479486 134.73021806 23.49656153 127.75561523 23.51757812 Z M216.75561523 30.51757812 C217.40429356 35.29415649 219.32494451 39.18751977 221.40405273 43.47460938 C221.77286057 44.24703979 222.1416684 45.01947021 222.52165222 45.81530762 C223.71974488 48.32260718 224.92521901 50.82628287 226.13061523 53.33007812 C227.77524093 56.76629122 229.41593185 60.20437695 231.05639648 63.64257812 C231.4617009 64.49080643 231.86700531 65.33903473 232.28459167 66.21296692 C236.17763401 74.37251248 239.94996112 82.58325167 243.66918945 90.82348633 C244.07024902 91.70866943 244.47130859 92.59385254 244.88452148 93.50585938 C245.39607788 94.64341675 245.39607788 94.64341675 245.91796875 95.80395508 C246.63433696 97.50454678 246.63433696 97.50454678 247.75561523 98.51757812 C249.77525722 98.59001866 251.79728647 98.60135001 253.81811523 98.58007812 C254.9228418 98.57105469 256.02756836 98.56203125 257.16577148 98.55273438 C258.02041992 98.54113281 258.87506836 98.52953125 259.75561523 98.51757812 C260.86832112 80.18883958 254.85330497 62.80817935 242.90795898 48.82226562 C235.77186898 41.18108032 228.17854117 35.15449263 218.75561523 30.51757812 C218.09561523 30.51757812 217.43561523 30.51757812 216.75561523 30.51757812 Z M-62.24438477 45.51757812 C-76.2618023 60.05933796 -82.24438477 78.70067351 -82.24438477 98.51757812 C-67.06438477 98.51757812 -51.88438477 98.51757812 -36.24438477 98.51757812 C-41.94984202 85.83878423 -47.70273946 73.24899758 -53.80688477 60.76757812 C-54.53697567 59.26901328 -55.26679381 57.77031551 -55.99633789 56.27148438 C-57.74257792 52.68532424 -59.49238806 49.10092915 -61.24438477 45.51757812 C-61.57438477 45.51757812 -61.90438477 45.51757812 -62.24438477 45.51757812 Z M-82.24438477 122.51757812 C-96.57811067 226.20358289 -96.57811067 226.20358289 -60.24438477 346.51757812 C-32.70699427 370.73855759 4.89155812 366.8363123 39.23450923 366.78622913 C43.90093491 366.78106798 48.56735381 366.78588809 53.23377991 366.78900146 C61.06260618 366.79261265 68.89139439 366.7879181 76.72021484 366.77832031 C85.69296731 366.76744517 94.66562877 366.77096618 103.63837904 366.78197312 C111.42525589 366.79113274 119.21210579 366.79228935 126.9989863 366.78709579 C131.61330656 366.78402266 136.22758447 366.78343468 140.84190178 366.79016876 C194.49157754 368.62753905 194.49157754 368.62753905 240.13452148 344.20507812 C257.95806534 325.38631101 260.09890912 302.48245808 259.98266602 277.8203125 C259.98205155 276.08623514 259.98232338 274.35215728 259.98339653 272.61808014 C259.98384317 268.02565696 259.97235564 263.43334061 259.95817566 258.84094238 C259.94668138 254.51212269 259.9462438 250.18332737 259.94482422 245.85449219 C259.93438075 233.24217366 259.90645823 220.6298745 259.88061523 208.01757812 C259.81874023 165.69507813 259.81874023 165.69507813 259.75561523 122.51757812 C146.89561523 122.51757812 34.03561523 122.51757812 -82.24438477 122.51757812 Z " fill="#000000" transform="translate(166.244384765625,61.482421875)"/>
<path d="M0 0 C7.38831681 3.80114752 14.22881683 8.10219501 21.03881836 12.85522461 C22.66800042 13.97914156 24.29718862 15.10304982 25.92684937 16.22627258 C27.03242858 16.98910536 28.1372681 17.75301131 29.24136353 18.51799011 C32.95295164 21.08956448 36.68448808 23.62940677 40.42944336 26.15209961 C41.41702637 26.81862549 42.40460938 27.48515137 43.42211914 28.171875 C45.27814867 29.42361217 47.13579478 30.67295704 48.99536133 31.91943359 C64.93103706 42.71756946 64.93103706 42.71756946 67.16381836 50.91772461 C67.88844225 57.64519872 68.28593688 64.2320439 64.16381836 69.91772461 C57.45751217 77.6102523 48.40619749 83.23966353 39.94116211 88.80444336 C38.99624405 89.42873734 38.05132599 90.05303131 37.07777405 90.69624329 C35.09489902 92.00475015 33.1107863 93.31138323 31.12548828 94.61621094 C28.10233266 96.6045575 25.08503457 98.60157267 22.06811523 100.59936523 C20.13031075 101.8765839 18.19217102 103.15329409 16.25366211 104.42944336 C15.36073959 105.02117844 14.46781708 105.61291351 13.5478363 106.22257996 C-3.55146494 117.42524955 -3.55146494 117.42524955 -14.26196289 115.47631836 C-19.99664935 113.78964587 -24.68592636 111.19135043 -28.05493164 106.06225586 C-31.566958 99.57755004 -31.95852791 93.0726314 -31.98144531 85.76416016 C-31.98480392 85.08669739 -31.98816254 84.40923462 -31.99162292 83.71124268 C-32.00104916 81.49229043 -32.00307184 79.27341433 -32.00415039 77.05444336 C-32.00736887 75.49656647 -32.01073338 73.93868987 -32.01423645 72.3808136 C-32.020207 69.12203268 -32.0220785 65.86327819 -32.02148438 62.60449219 C-32.0213829 58.45229231 -32.03502942 54.30026397 -32.05225658 50.14810467 C-32.06343804 46.93167866 -32.0654017 43.71529331 -32.06487465 40.49884987 C-32.06604574 38.96922019 -32.0704179 37.43958916 -32.07820702 35.90997887 C-32.18165424 13.4970391 -32.18165424 13.4970391 -25.83618164 5.91772461 C-18.70413263 -1.13573433 -9.61015844 -3.66719741 0 0 Z M-7.83618164 23.91772461 C-7.83618164 46.02772461 -7.83618164 68.13772461 -7.83618164 90.91772461 C-0.74860814 87.02363819 -0.74860814 87.02363819 6.04101562 82.77978516 C6.88120743 82.21958176 7.72139923 81.65937836 8.58705139 81.0821991 C9.89542213 80.20221001 9.89542213 80.20221001 11.23022461 79.30444336 C12.14972397 78.69002884 13.06922333 78.07561432 14.0165863 77.44258118 C16.92203457 75.50006611 19.82421677 73.55273509 22.72631836 71.60522461 C24.70852544 70.2787317 26.6909453 68.9525567 28.67358398 67.62670898 C33.50612759 64.39405124 38.33600684 61.15744466 43.16381836 57.91772461 C40.83462632 55.50747021 38.59037473 53.3703217 35.78491211 51.53491211 C35.12362305 51.09824219 34.46233398 50.66157227 33.78100586 50.21166992 C33.06170898 49.74341797 32.34241211 49.27516602 31.60131836 48.79272461 C30.00590822 47.74378984 28.41088257 46.69427012 26.81616211 45.64428711 C25.9317041 45.06324219 25.04724609 44.48219727 24.13598633 43.88354492 C20.7591533 41.65007527 17.40015293 39.39114015 14.04272461 37.12866211 C12.19603458 35.88697567 10.34905773 34.64571709 8.50198364 33.40460205 C7.27647701 32.57997462 6.05192711 31.75392355 4.82833862 30.92645264 C3.09924496 29.75781087 1.36636944 28.59499171 -0.36743164 27.43334961 C-1.37354492 26.755625 -2.3796582 26.07790039 -3.41625977 25.37963867 C-5.65028863 23.74536327 -5.65028863 23.74536327 -7.83618164 23.91772461 Z " fill="#000000" transform="translate(246.836181640625,240.082275390625)"/>
</svg>
