<svg xmlns="http://www.w3.org/2000/svg" xmlns:xlink="http://www.w3.org/1999/xlink" xmlns:xodm="http://www.corel.com/coreldraw/odm/2003" xml:space="preserve" version="1.1" style="shape-rendering:geometricPrecision;text-rendering:geometricPrecision;image-rendering:optimizeQuality;" viewBox="0 0 60000 75000" x="0px" y="0px" fill-rule="evenodd" clip-rule="evenodd"><defs><style type="text/css">
   
    .fil0 {fill:black;fill-rule:nonzero}
   
  </style></defs><g><path class="fil0" d="M28312.78 6128.49c94.37,321 221.18,614.99 417.04,871.56 194.27,254.49 461.46,478.33 840.01,664.19 298.05,146.34 472.8,220.16 609.64,219.59 134.6,-0.56 306.1,-75.51 599.97,-226.68 870.2,-447.65 1203.61,-1157.35 1388.34,-2001.25 22.99,-459.44 -29.18,-834.4 -124.38,-1126.56 -106.16,-325.77 -256.81,-532.48 -404.22,-624.66 -327.54,-204.82 -579.9,-322.54 -787.57,-419.42 -493.25,-230.1 -786.56,-367 -1097.78,-959.84 -276.33,276.45 -527.12,595.04 -752.45,946.89 -349.12,545.13 -588.48,1517.61 -688.6,2656.18zm-3813.93 16318.36c-160.51,151.01 -413.06,143.32 -564.07,-17.19 -151.01,-160.51 -143.32,-413.06 17.19,-564.07 134.32,-126.92 243.51,-241.84 344.87,-349.94 -879.02,-141.67 -1500.94,178.72 -2251.01,622.55l960.16 560.09c895.41,522.34 984.49,470.9 1544.1,147.63 103.94,-60.04 49.66,-29.56 134.26,-77.99 545.72,-312.4 998.35,-414.87 1448.43,-373.88 432.83,39.42 828.95,211.14 1293.27,454.14 195.02,101.83 270.58,342.49 168.75,537.51 -101.83,195.02 -342.49,270.58 -537.51,168.75 -380.86,-199.32 -695.48,-339.23 -996.39,-366.64 -219.08,-19.95 -450.46,20.53 -724.94,143.31 3.98,28.65 4.91,58.18 2.44,88.22l-1524.94 17978.24 -1.32 13.13c-29.68,473.33 -35.99,814.72 31.83,1035.94 47.17,153.83 153.77,255.88 359.17,328.72 53.07,18.81 209.15,75.31 379.6,137 1056.63,382.39 2837.29,1026.83 4377.96,1215.02 1051.73,128.46 2082.63,-144.46 3106.7,-415.56 1285.67,-340.36 2561.47,-678.11 3957.8,-308.83 297.09,78.57 576.47,174.37 897.36,284.4 239.34,82.07 499.21,171.18 689.01,231.67 270.91,86.34 502.08,101.63 683.44,57.4 99.51,-24.27 181.93,-66.71 244.69,-124.79 62.17,-57.54 109.37,-134.13 139.04,-227.22 50.01,-156.92 51.82,-358.59 -3.59,-597.35l-2196.93 -6967.31c-65.58,-210.55 51.95,-434.42 262.5,-500 210.55,-65.58 434.42,51.95 500,262.5l1982.27 6286.54c101.44,-31.6 217.67,-67.04 334.35,-102.61 455.31,-138.79 919.06,-280.17 1270.82,-463.65 478.17,-249.42 742.4,-619.42 380.8,-1312.65 -3.03,-5.81 -5.9,-11.66 -8.61,-17.54l-0.76 0.35 -3009.28 -6485.75c-92.33,-200.2 -4.89,-437.36 195.31,-529.69 200.2,-92.33 437.36,-4.89 529.69,195.31l3009.28 6485.75 -0.47 0.22c639.74,1241.45 149.99,1912.71 -727.2,2370.26 -198.18,103.37 -414.8,191.99 -640.13,272.55 599.83,2094.56 1331.59,4101.48 2063.66,6109.16 764.29,2096.03 1528.91,4192.97 2144.83,6382.15 221.48,787.25 85.57,1452.58 -263.27,1992.08 -399.68,618.12 -1078.13,1049.81 -1805.24,1296.55 -616.37,209.18 -1177.68,309.26 -1723.92,344.15 -534.43,34.13 -1052.2,4.43 -1593.73,-46.1 -1585.48,-147.92 -1887.23,-36.61 -2973.61,364.12l-4 1.48c-479.32,176.8 -1035.22,317.87 -1635.04,388.91 -528.45,62.6 -1092.15,71.18 -1669.21,2.51 -378.47,-45.04 -689.22,-170.64 -926.3,-380.79 -242.13,-214.63 -394.57,-502.98 -450.56,-868.31 -64.52,-420.97 -140.29,-1092.84 -221.29,-1919.39 -54.42,458.29 -107.75,910.41 -147.73,1314.02 -72.24,729.36 -611.76,1077.81 -1316.32,1218.23 -549.78,109.58 -1207.19,83.69 -1776,26.05 -83.17,227.51 -266.93,421.04 -577.43,534.66 -267.42,97.86 -967.71,106.32 -1732.07,66.81 -861.93,-44.55 -1835.39,-145.92 -2330.87,-243.53 -185.21,-25.25 -371.21,-70.32 -557.86,-139.17l-3.85 -1.42c-1086.5,-400.81 -1388.21,-512.11 -2973.76,-364.18 -541.52,50.53 -1059.3,80.23 -1593.73,46.1 -546.24,-34.88 -1107.54,-134.97 -1723.92,-344.15 -690.29,-234.25 -1173.2,-537.38 -1438.27,-1019.24 -262.77,-477.68 -284.15,-1086.62 -48.16,-1925.43 1270.14,-4514.48 2420.72,-9041.52 3569.13,-13560.13 1512.73,-5952.08 3021.78,-11889.54 4833.9,-17890.02 -103.14,-26.4 -215.69,-67.86 -343.66,-125.54 -1311.7,424.53 -2272.37,652.56 -3002.68,733.06 -789.33,87.01 -1332.68,5.36 -1760.92,-188.78 -530.75,-240.62 -810.16,-575.57 -958.99,-979.29 -134.78,-365.64 -145.19,-760.88 -145.71,-1189.89 -1.19,-987.14 200.49,-2000.3 560.28,-2942.09 365.64,-957.11 895.65,-1846.19 1543.19,-2565.32 1150.64,-1277.86 2172.1,-3384.1 2514.29,-4089.7 65.8,-135.67 108.94,-224.61 131.76,-263.24 386.94,-654.63 839.02,-1123.39 1307.92,-1454.7 743.25,-525.15 1525.09,-700.26 2159.26,-721.6 627.82,-21.12 1141.49,120.08 1336.61,223.19 61.16,-14.93 153.49,-37.56 338.22,-83.02 132.42,-32.59 253.56,-72.13 361.35,-121.61 -1264.04,-874.46 -1740.32,-2140.31 -1786.21,-3513.1 -45.65,-1365.7 343.41,-2825.46 791.09,-4087.13 168.24,-474.15 485.18,-865.87 892.68,-1169.84 508.61,-379.4 1162.86,-622.84 1839.15,-716.7 672.77,-93.36 1373.69,-39.31 1979.66,175.7 516.21,183.16 966.93,482.17 1282.81,905.63 108.11,144.94 200.67,304.54 276.47,480.37 419.46,685.74 762.88,2185.05 928.53,3820.97 153.44,1515.28 160.11,3167.85 -61.58,4408.45 1859.86,457.12 2511.15,701.81 2924.87,2348.26 342.05,1361.35 134.8,3948.93 -48,6023.42 1159.33,3133.02 1132.69,5164.93 1100.86,7572.92 -4.68,354.66 -9.49,717.64 -10.51,1087.09 -1.7,619.07 44.23,1156 122.59,1671.74 79.64,524.25 190.19,1014.06 317.58,1540.25 375.69,1551.96 12.41,1997.76 -737.16,2917.6 -192.12,235.76 -413.51,507.43 -655.58,848.72 -127.71,179.49 -376.76,221.46 -556.25,93.75 -179.49,-127.71 -221.46,-376.76 -93.75,-556.25 254.57,-358.91 485.98,-642.89 686.82,-889.34 581.62,-713.73 863.5,-1059.65 580.92,-2226.98 -135.28,-558.78 -252.09,-1075.05 -333.2,-1608.99 -82.41,-542.44 -130.7,-1115.91 -128.85,-1790.5 1.05,-381.32 5.84,-743.04 10.51,-1096.47 24.3,-1838.52 45.57,-3450.18 -492.72,-5522.77 -63.79,152.64 -219.03,255.39 -393.43,244.45 -220.05,-13.8 -387.24,-203.39 -373.44,-423.44 30.29,-480.93 78.49,-1024.54 131.49,-1622.63 182.91,-2063.76 422.95,-4772.04 97.12,-6068.81 -320.85,-1276.9 -908.22,-1419.75 -2679.95,-1850.63l-407.47 -99.13c-395.81,-97.42 -736.7,-249.87 -1007.06,-504.32 -277.6,-261.28 -466.64,-614.84 -545.2,-1104.35l-174.74 -1088.78c-18.5,9.86 -37.18,19.67 -56.08,29.39 -406.59,209.16 -665.3,312.93 -962.47,314.18 -283.01,1.19 -532.74,-91.99 -913.91,-277l-164.06 1022.21c-78.55,489.51 -267.59,843.08 -545.2,1104.35 -256.51,241.41 -576.51,391.01 -946.66,488.9 1172.39,1366.41 2586.7,1903.91 3937.14,2416.97 917.9,348.72 1808.14,686.95 2612.08,1258.92 68.35,48.63 130.92,104.43 188.16,166.69l275.81 -674.2c82.84,-203.65 315.1,-301.59 518.75,-218.75 203.65,82.84 301.59,315.1 218.75,518.75l-476.25 1164.17c-23.05,56.67 -57.69,105.15 -100.05,143.83 252.95,1133.34 20.27,2771.85 -155.95,4012.66 -8.66,61.09 -16.85,122.44 -26.02,183.44l0.23 0.03c-19.69,138.35 -104.24,732.54 270.66,1480.64 777.24,1550.97 1257.68,2938.04 1460.19,4663.71 200.29,1706.69 126.09,3735.74 -203.84,6582.47 -25.02,219.19 -223,376.59 -442.19,351.57 -219.19,-25.02 -376.59,-223 -351.57,-442.19 322.74,-2784.7 396.6,-4758.66 203.84,-6401.23 -190.54,-1623.61 -644.33,-2932.19 -1378.93,-4398.07 -487.7,-973.19 -375.02,-1765.01 -348.78,-1949.4l0.22 0.03 25.57 -180.38c223.35,-1572.57 548.64,-3863.05 -141.1,-4353.77 -719.42,-511.83 -1562.04,-831.97 -2430.84,-1162.04 -1603.99,-609.39 -3291.84,-1250.87 -4666.91,-3159.01 -132.43,-55.79 -453.75,-122.38 -889.82,-107.71 -505.48,17.01 -1129.54,157.2 -1724.88,577.84 -382.87,270.52 -755.35,658.92 -1079.8,1207.84 -9.08,15.37 -45.29,90.03 -100.5,203.86 -355.02,732.07 -1414.81,2917.34 -2639.29,4277.2 -581.29,645.56 -1058.76,1448.09 -1390.07,2315.32 -327.66,857.7 -511.34,1773.26 -510.28,2657.71 0.43,349.2 7.54,667.23 98.83,914.89 77.25,209.57 232.55,388.1 537.11,526.17 303.58,137.63 714.96,192.62 1345.3,123.14 541.11,-59.64 1227.06,-209.14 2116.41,-472.09l-1108.17 -646.43c-28.97,16.32 -58.24,32.68 -87.83,49.09 -263.85,146.3 -536.3,284.18 -820.76,403.24 -291.54,122.04 -598.31,226.28 -925.24,302.79 -214.87,50.05 -429.64,-83.56 -479.69,-298.43 -50.05,-214.87 83.56,-429.64 298.43,-479.69 281.66,-65.92 547.12,-156.22 800.24,-262.17 260.18,-108.9 504.91,-232.53 739.52,-362.62 235.21,-130.42 456.68,-262.6 667.19,-388.24 1147.94,-685.15 1999.19,-1193 3543.57,-702.92 325.14,-220.96 704.61,-321.88 1279.52,-202.15 722.13,150.37 1419.55,547.51 2011.14,884.39 103.55,58.97 203.97,116.16 277.23,156.91 192.43,107 261.69,349.76 154.69,542.19 -107,192.43 -349.76,261.69 -542.19,154.69 -107.02,-59.53 -193.9,-109.01 -283.49,-160.03 -541.6,-308.41 -1180.08,-671.99 -1779.88,-796.89 -546.33,-113.77 -825.83,184.78 -1195.98,580.2 -131.02,139.97 -270.58,289.05 -414.19,424.74zm14865.42 35350.81l-1627.83 -6603.52c-52.63,-214.01 78.18,-430.18 292.19,-482.81 214.01,-52.63 430.18,78.18 482.81,292.19l1689.39 6853.26c240.44,8.43 479.69,7.29 722.02,-8.18 479.63,-30.64 973.57,-118.88 1517.66,-303.53 573.42,-194.59 1099.36,-520.95 1392.74,-974.67 229.04,-354.22 315.53,-800.88 163.27,-1342.08 -609.99,-2168.11 -1368.19,-4247.45 -2126.07,-6325.89 -737.21,-2021.78 -1474.11,-4042.78 -2074.85,-6135.83l-7 2.13c-104.55,31.87 -208.61,63.59 -331.16,102.62 82.81,372.63 71.34,709.28 -19.32,993.73 -72.22,226.6 -193.71,419.11 -357.8,570.98 -163.5,151.3 -364.99,258.63 -597.81,315.41 -317.96,77.54 -695.52,59.57 -1111.56,-73.02 -326.63,-104.1 -525.09,-172.15 -707.77,-234.79 -315.84,-108.3 -590.83,-202.6 -841.1,-268.78 -1193.11,-315.53 -2367.79,-4.55 -3551.56,308.83 -273.06,72.29 -546.58,144.68 -821.86,210.45 35.11,808.74 139.09,2465.9 273.44,4362.71 0.21,2.33 0.44,4.66 0.61,7.01 9.23,121.96 17.69,241.92 25.57,360.35 69.79,972.9 146.7,1997.01 225.79,2993.91 190.52,2401.48 393.1,4631.78 536.95,5570.4 26.68,174.1 90.24,303.49 188.06,390.19 109.85,97.37 275.19,158.12 491.94,183.91 511.4,60.86 1011.86,53.14 1481.69,-2.51 235.24,-27.86 462.53,-67.67 679.48,-116.83l-1085.73 -11790.38c-19.84,-219.19 141.75,-412.98 360.94,-432.82 219.19,-19.84 412.98,141.75 432.82,360.94l1071.16 11632.14c1194.42,-440.59 1541.01,-568.2 3232.89,-415.52zm-11090.41 147.53c520.51,55.63 1126.31,85.99 1604.94,-9.41 370.12,-73.76 650.36,-224.57 678.82,-511.97 51.37,-518.61 103.52,-957.51 156.14,-1400.52 212.51,-1789 432.7,-3643.23 234.92,-6580.1 -6.7,-93.79 -13.33,-187.1 -19.89,-279.89l-2.96 -40.04c-0.28,-3.82 -0.5,-7.64 -0.68,-11.44 -126.97,-1799.45 -227,-3391.35 -267.31,-4253.96 -580.99,97.62 -1175.05,138.89 -1794.02,63.29 -1622.32,-198.16 -3461.57,-863.81 -4552.96,-1258.78 -106.33,-38.48 -202.63,-73.35 -373.34,-133.88 -473.95,-168.09 -728.61,-431.88 -856.05,-847.46 -104.46,-340.71 -101.33,-759.46 -66.22,-1320.19 0.11,-9.57 0.53,-19.2 1.33,-28.88l1470.25 -17333.46c-1809.39,5978.09 -3334.62,11979.06 -4863.56,17994.91 -1143.9,4500.84 -2289.95,9010.08 -3575.37,13578.87 -175,622.02 -177.54,1040.14 -20.6,1325.43 154.63,281.1 492.36,476.95 994.53,647.36 544.1,184.65 1038.04,272.9 1517.66,303.53 491.44,31.38 970.25,3.82 1471.85,-42.98 922.05,-86.02 1454.94,-93.25 1926.3,-16.9l2284.06 -8928.59c54.36,-214.01 271.93,-343.42 485.94,-289.06 214.01,54.36 343.42,271.93 289.06,485.94l-2285.3 8933.47c185.35,62.54 386.66,136.79 620.58,223.08l3.85 1.42c938.51,346.18 2009.53,-184.88 3015.56,-683.72l245.35 -120.47c308.91,-151.6 612.79,-155.53 876.83,-68.07l-61.35 -10869.69c-0.86,-220.05 176.83,-399.14 396.88,-400 220.05,-0.86 399.14,176.83 400,396.88l64.76 11475.28zm-793.79 549.64l-1.02 -179.96c-23.94,-43.95 -57.71,-86.04 -99.08,-122.7 -109.6,-97.13 -270.77,-145.49 -433.23,-65.76 -71.58,35.13 -84.48,42.26 -242.23,120.47 -209.01,103.64 -420.47,208.46 -634.1,307.93 639.32,30.98 1186.11,32.14 1339.34,-23.94 30.4,-11.12 53.55,-23.35 70.32,-36.04zm5541.12 -37132.96c112.18,-189.84 357.04,-252.8 546.88,-140.62 189.84,112.18 252.8,357.04 140.62,546.88 -324.31,545.57 -746.55,919.34 -1324.54,1221.49 -542.64,283.67 -1213.57,496.88 -2075.29,735.17 -212.28,58.68 -431.95,-65.85 -490.63,-278.13 -58.68,-212.28 65.85,-431.95 278.13,-490.63 814.45,-225.22 1441.29,-422.93 1919.03,-672.67 442.38,-231.26 763.25,-513.46 1005.8,-921.49zm-209.58 -4519.5c26.75,-219.19 226.13,-375.19 445.32,-348.44 219.19,26.75 375.19,226.13 348.44,445.32 -228.73,1856.1 -507.95,2956.52 -1080.02,3716.22 -588.48,781.49 -1430.17,1151.36 -2780.54,1544.31 -211.42,61.27 -432.48,-60.45 -493.75,-271.87 -61.27,-211.42 60.45,-432.48 271.87,-493.75 1184.14,-344.58 1909.76,-652.37 2364.92,-1256.81 471.57,-626.24 712.44,-1620.19 923.76,-3334.98zm-12888.81 3098.28c-182.94,-122.54 -231.91,-370.19 -109.37,-553.13 122.54,-182.94 370.19,-231.91 553.13,-109.37l1633.8 1091.42c182.94,122.54 231.91,370.19 109.37,553.13 -122.54,182.94 -370.19,231.91 -553.13,109.37l-1633.8 -1091.42zm1286.63 -1717.88c-118.22,-186.39 -62.95,-433.34 123.44,-551.56 186.39,-118.22 433.34,-62.95 551.56,123.44l1190.66 1871.9c118.22,186.39 62.95,433.34 -123.44,551.56 -186.39,118.22 -433.34,62.95 -551.56,-123.44l-1190.66 -1871.9zm7322.14 -10258.04c1.18,-7.44 2.58,-14.79 4.15,-22.06 -98.09,-81.61 -187.7,-166.87 -269.79,-255.56 11.13,443.02 42.81,891.08 96.38,1332.25l169.26 -1054.63zm3378.52 -119.28c18.7,36.52 32.06,76.56 38.84,119.28l214.45 1336.19c48.02,299.25 153.27,505.68 304.58,648.09 152.65,143.66 364.85,237.11 620.91,303.05 199.47,-1161.29 189.46,-2709.89 44.64,-4140.06 -26.79,-264.59 -58,-524.41 -93.13,-776.23 -24.23,151.57 -50.46,300.6 -80.26,446.72 -2.8,35.2 -10.08,69.01 -21.28,100.88 -163.75,751.89 -433.59,1423.02 -1028.75,1962.08zm-1538.4 -5835.57c24.86,27.05 46.39,57.99 63.58,92.53 201.17,403.15 404.01,497.77 753.84,660.97 233.26,108.81 516.72,241.05 871.95,463.18 132.89,83.1 263.39,201.78 382.08,355.29 2.28,-214.96 -12.48,-410.07 -43.15,-587 -55.44,-319.74 -164.07,-577.38 -318.34,-784.19 -213.28,-285.92 -526.99,-492.79 -892.09,-624.99 -291.27,107.73 -563.84,250.7 -817.87,424.21zm-538.98 -595.43c-88.02,6.1 -176,15.23 -263.53,27.38 -547.21,75.95 -1070.73,268.56 -1470.41,566.7 -286.39,213.63 -506.15,480.52 -617.68,794.84 -421.87,1188.95 -788.87,2553.8 -747.33,3796.51 28.73,859.34 257.75,1665.36 813.07,2314.08 -102.55,-956.36 -109.67,-1932.53 -33.46,-2822.31 109.06,-1273.15 392.55,-2389.2 816.13,-3050.6 347.33,-542.35 754.75,-1020.52 1223.62,-1410.16 91.05,-75.66 184.25,-147.87 279.59,-216.44z"/></g><text x="0" y="60015" fill="#000000" font-size="5px" font-weight="bold" font-family="'Helvetica Neue', Helvetica, Arial-Unicode, Arial, Sans-serif">Created by Olena Panasovska</text><text x="0" y="60020" fill="#000000" font-size="5px" font-weight="bold" font-family="'Helvetica Neue', Helvetica, Arial-Unicode, Arial, Sans-serif">from the Noun Project</text></svg>