<?xml version="1.0" encoding="UTF-8"?>
<svg version="1.1" xmlns="http://www.w3.org/2000/svg" width="512" height="512">
<path d="M0 0 C1.258125 -0.01546875 2.51625 -0.0309375 3.8125 -0.046875 C15.44243645 0.00240439 15.44243645 0.00240439 20 4.5 C24.95040182 9.82741918 24.48037405 15.00808134 24.25 21.875 C24.23195313 22.89722656 24.21390625 23.91945313 24.1953125 24.97265625 C24.14839491 27.48274749 24.08276729 29.99087764 24 32.5 C24.92554688 32.46648438 25.85109375 32.43296875 26.8046875 32.3984375 C31.02861621 32.5326944 32.76596766 33.82840806 36 36.5 C40.07648613 41.45031626 40.56684642 44.9403263 40.45410156 51.07568359 C40.45468567 51.91536682 40.45526978 52.75505005 40.45587158 53.62017822 C40.45309739 56.3800268 40.4220375 59.13877893 40.390625 61.8984375 C40.38316023 63.81799734 40.37746841 65.73756482 40.37347412 67.65713501 C40.35823638 72.69774592 40.31897054 77.73789232 40.2746582 82.77832031 C40.23366539 87.92636838 40.21545454 93.07449185 40.1953125 98.22265625 C40.15247454 108.31530772 40.08424569 118.40761516 40 128.5 C40.74761093 128.49016586 41.49522186 128.48033173 42.26548767 128.47019958 C43.25029617 128.46255081 44.23510468 128.45490204 45.24975586 128.44702148 C46.22424179 128.43718735 47.19872772 128.42735321 48.20274353 128.41722107 C58.57497051 128.72416534 68.13620096 134.10887605 76 140.5 C76.83273437 141.12648437 77.66546875 141.75296875 78.5234375 142.3984375 C87.38088871 149.91469736 93.77316016 162.16336083 96 173.5 C96.14495425 177.17384058 96.11959252 180.82585199 96 184.5 C96.99 184.45359375 97.98 184.4071875 99 184.359375 C113.36233644 183.8791753 113.36233644 183.8791753 119 188.5 C123.8463275 193.12428461 127.63249195 197.51304307 128.26742554 204.40119934 C128.27504913 205.46738998 128.28267273 206.53358063 128.29052734 207.63208008 C128.30328705 208.84716751 128.31604675 210.06225494 128.32919312 211.31416321 C128.33253159 213.27207039 128.33253159 213.27207039 128.3359375 215.26953125 C128.34237165 216.63327675 128.34910046 217.99702089 128.35610962 219.36076355 C128.36806362 222.21620887 128.37179248 225.07153339 128.37060547 227.92700195 C128.37040257 231.5685311 128.39768171 235.20927728 128.43214989 238.85062122 C128.45449725 241.66724637 128.45844061 244.48368556 128.45738602 247.30039024 C128.460864 249.2899848 128.48247958 251.27952131 128.50448608 253.26899719 C128.46254794 261.61499771 127.69028127 267.28882416 122.03515625 273.7421875 C121.38417969 274.28101563 120.73320312 274.81984375 120.0625 275.375 C119.41410156 275.92929687 118.76570313 276.48359375 118.09765625 277.0546875 C113.27257712 280.37922992 108.92872489 280.76784387 103.1875 280.625 C102.49462891 280.61597656 101.80175781 280.60695313 101.08789062 280.59765625 C99.39177605 280.57426157 97.69584129 280.53839641 96 280.5 C96.00368717 281.27083923 96.00737434 282.04167847 96.01117325 282.83587646 C96.09957685 301.60699966 96.16573518 320.37808121 96.20724869 339.14936829 C96.22785882 348.2270964 96.25594973 357.3046854 96.30175781 366.38232422 C96.34167309 374.29598905 96.36744408 382.20955311 96.37635398 390.12331581 C96.38156081 394.31219586 96.39376624 398.50078768 96.42292023 402.6895752 C96.45016362 406.63599719 96.45842712 410.58201348 96.45243073 414.52852058 C96.45352699 415.97325918 96.4614279 417.41801199 96.4768219 418.86266899 C96.56990378 428.05231677 96.26796864 434.64018415 90 441.77734375 C89.34 442.32519531 88.68 442.87304688 88 443.4375 C87.34 444.00339844 86.68 444.56929688 86 445.15234375 C83.94703863 446.53568686 82.38821676 446.97042537 80 447.5 C80.02094727 448.16531738 80.04189453 448.83063477 80.06347656 449.51611328 C80.14700609 452.55225302 80.19877603 455.58815043 80.25 458.625 C80.30027344 460.19507813 80.30027344 460.19507813 80.3515625 461.796875 C80.42829791 467.85897222 80.3557583 471.87020392 76 476.5 C71.5628015 479.97233111 68.70867373 481.0003195 63.09399414 481.00336456 C62.42027267 481.00917833 61.74655121 481.01499209 61.05241394 481.02098203 C58.7962955 481.03557271 56.54126663 481.02170232 54.28515625 481.00793457 C52.65082748 481.01254388 51.01650284 481.018897 49.38218689 481.02684355 C44.89219067 481.04355592 40.40253413 481.03528187 35.91253662 481.02289867 C31.06992277 481.01385831 26.22736782 481.02781287 21.38476562 481.03881836 C11.89851716 481.056619 2.41239519 481.05275671 -7.07385826 481.0411678 C-14.78248509 481.03213983 -22.49107643 481.03090672 -30.19970703 481.03526306 C-31.84445369 481.03618246 -31.84445369 481.03618246 -33.52242756 481.03712043 C-35.74983598 481.03839931 -37.97724439 481.03969617 -40.20465279 481.0410108 C-61.09852461 481.05242112 -81.99232628 481.03929578 -102.8861866 481.01780933 C-120.81999288 480.99993795 -138.75369559 481.00304193 -156.6875 481.02148438 C-177.50583095 481.04288308 -198.32410038 481.05132244 -219.1424408 481.03903532 C-221.36172484 481.0377611 -223.5810089 481.03650362 -225.80029297 481.03526306 C-226.89226644 481.03464596 -227.9842399 481.03402886 -229.10930347 481.03339306 C-236.81002591 481.02993716 -244.51070938 481.03577367 -252.21142578 481.04518127 C-261.59410302 481.05639152 -270.97664637 481.0533817 -280.35930824 481.0320583 C-285.14789831 481.02153479 -289.93626503 481.01744821 -294.72485352 481.03065491 C-299.10688616 481.0425577 -303.48848803 481.03605129 -307.87048149 481.0147447 C-309.45720429 481.01026965 -311.04396335 481.01256513 -312.63066292 481.02224785 C-314.78562591 481.03439148 -316.93910868 481.02195978 -319.09399414 481.00336456 C-320.29141739 481.00271515 -321.48884064 481.00206574 -322.72254944 481.00139666 C-327.81737559 480.22197108 -330.89120276 477.67855601 -334.359375 473.9921875 C-336.76435122 468.87302383 -336.42854043 464.20095502 -336.25 458.625 C-336.22292969 457.02011719 -336.22292969 457.02011719 -336.1953125 455.3828125 C-336.14837439 452.75427822 -336.08272933 450.12761087 -336 447.5 C-336.78101074 447.20053467 -337.56202148 446.90106934 -338.36669922 446.5925293 C-341.08662606 445.46405974 -342.89684146 444.22172605 -345.125 442.3125 C-345.78757812 441.76207031 -346.45015625 441.21164062 -347.1328125 440.64453125 C-352.28661033 434.72521115 -352.45688975 428.53403201 -352.43359375 421.03515625 C-352.4388356 420.0430162 -352.44407745 419.05087616 -352.44947815 418.02867126 C-352.45587779 415.93847587 -352.45458814 413.84824437 -352.44604492 411.75805664 C-352.43753523 408.57567672 -352.46632566 405.39509359 -352.49804688 402.21289062 C-352.49965922 400.1744797 -352.49908073 398.13606562 -352.49609375 396.09765625 C-352.50732773 395.15471207 -352.51856171 394.21176788 -352.53013611 393.24024963 C-352.45494815 386.04476568 -350.81855813 380.7164063 -346.03515625 375.2578125 C-345.05869141 374.44957031 -345.05869141 374.44957031 -344.0625 373.625 C-343.41410156 373.07070313 -342.76570313 372.51640625 -342.09765625 371.9453125 C-338.26313998 369.30328081 -334.78792903 368.24961819 -330.15245342 368.25390434 C-329.19849798 368.24992225 -328.24454254 368.24594015 -327.26167935 368.24183738 C-325.70185518 368.25057591 -325.70185518 368.25057591 -324.11051941 368.25949097 C-322.9996046 368.25778212 -321.88868978 368.25607327 -320.74411088 368.25431263 C-317.01448201 368.25101335 -313.28503228 368.26202885 -309.55541992 368.27294922 C-306.8847615 368.27351324 -304.21411411 368.27328506 -301.54345703 368.27206421 C-295.7900373 368.27101574 -290.03666294 368.27728841 -284.28325462 368.28853989 C-275.96480867 368.30479701 -267.64638465 368.31000311 -259.32792453 368.31251587 C-245.83164102 368.31689264 -232.3353817 368.33020125 -218.83911133 368.34912109 C-205.72908652 368.36748036 -192.61906827 368.38163664 -179.5090332 368.39013672 C-178.70087102 368.39066217 -177.89270883 368.39118761 -177.06005689 368.39172898 C-173.00572679 368.39433907 -168.95139665 368.39686648 -164.89706647 368.39935279 C-131.26469345 368.42008472 -97.63234969 368.45530976 -64 368.5 C-64.08469015 357.23336224 -64.17968275 345.96686166 -64.28752708 334.70042038 C-64.33729591 329.46795001 -64.38362643 324.23549795 -64.421875 319.00292969 C-64.45897457 313.94536768 -64.50539873 308.88796654 -64.55806351 303.83054352 C-64.57647724 301.90905859 -64.59163225 299.98753936 -64.60334396 298.06600189 C-64.74785727 273.28825186 -64.74785727 273.28825186 -76.98046875 252.3203125 C-89.32337304 241.19498678 -104.11063519 241.33668417 -119.77734375 241.296875 C-120.53105318 241.29404762 -121.28476261 241.29122025 -122.06131172 241.28830719 C-126.04633043 241.27338862 -130.03131359 241.26411161 -134.01635742 241.25976562 C-138.1092886 241.25427681 -142.20188785 241.2302192 -146.29471493 241.20179367 C-149.46477693 241.18308587 -152.63476 241.17795749 -155.80487251 241.17642975 C-157.31301255 241.1734235 -158.82115189 241.16546438 -160.32923698 241.15224457 C-173.90606535 240.92836369 -173.90606535 240.92836369 -185.82250977 246.68896484 C-186.60424561 247.52121582 -187.38598145 248.3534668 -188.19140625 249.2109375 C-189.51495117 250.58378906 -189.51495117 250.58378906 -190.86523438 251.984375 C-192.20038086 253.41523438 -192.20038086 253.41523438 -193.5625 254.875 C-209.80026591 272.06104207 -209.80026591 272.06104207 -221.6484375 272.6953125 C-223.49308594 272.66050781 -223.49308594 272.66050781 -225.375 272.625 C-226.62023437 272.60695313 -227.86546875 272.58890625 -229.1484375 272.5703125 C-230.08945313 272.54710937 -231.03046875 272.52390625 -232 272.5 C-231.9685791 273.45253662 -231.9685791 273.45253662 -231.93652344 274.42431641 C-231.85295419 277.32438076 -231.80121226 280.22419116 -231.75 283.125 C-231.71648437 284.12402344 -231.68296875 285.12304688 -231.6484375 286.15234375 C-231.56680336 292.31572157 -231.89470969 295.80823965 -236 300.5 C-239.04956002 303.54956002 -241.10786792 304.45856182 -245.41650391 304.65869141 C-246.67382324 304.63983887 -247.93114258 304.62098633 -249.2265625 304.6015625 C-251.12656006 304.57956787 -251.12656006 304.57956787 -253.06494141 304.55712891 C-254.03351074 304.53827637 -255.00208008 304.51942383 -256 304.5 C-255.9685791 306.46791504 -255.9685791 306.46791504 -255.93652344 308.47558594 C-255.8641203 313.34331344 -255.81819887 318.21099335 -255.78027344 323.07910156 C-255.76015874 325.18595382 -255.73286333 327.29275025 -255.69824219 329.39941406 C-255.64971832 332.42787447 -255.62702984 335.45559678 -255.609375 338.484375 C-255.58872986 339.42617615 -255.56808472 340.36797729 -255.54681396 341.33831787 C-255.54457019 347.87832075 -255.54457019 347.87832075 -257.89941406 351.09277344 C-260.16349899 352.6095314 -261.29951563 353.04219507 -264 353 C-264.99 353.01546875 -264.99 353.01546875 -266 353.03125 C-269.10173118 352.20735266 -270.08899088 351.10860113 -272 348.5 C-272.56596343 345.16071699 -272.46468015 341.86266243 -272.390625 338.484375 C-272.38496521 337.51340881 -272.37930542 336.54244263 -272.37347412 335.54205322 C-272.35110311 332.44419831 -272.30090473 329.34750467 -272.25 326.25 C-272.22993597 324.14845422 -272.21168503 322.04689028 -272.1953125 319.9453125 C-272.1512358 314.7964283 -272.08220258 309.64841097 -272 304.5 C-273.452854 304.52827881 -273.452854 304.52827881 -274.93505859 304.55712891 C-276.20172363 304.57179199 -277.46838867 304.58645508 -278.7734375 304.6015625 C-280.6594165 304.62984131 -280.6594165 304.62984131 -282.58349609 304.65869141 C-286.89213208 304.45856182 -288.95043998 303.54956002 -292 300.5 C-296.79150978 295.02398883 -296.48705962 290.19120014 -296.25 283.125 C-296.23195313 282.10277344 -296.21390625 281.08054687 -296.1953125 280.02734375 C-296.14839491 277.51725251 -296.08276729 275.00912236 -296 272.5 C-297.60875 272.54640625 -297.60875 272.54640625 -299.25 272.59375 C-305.015061 272.44962348 -308.79880602 270.56739592 -312.9921875 266.62890625 C-318.5213237 260.56062191 -320.30077045 255.8445755 -320.29052734 247.59545898 C-320.30060318 246.42358788 -320.30060318 246.42358788 -320.31088257 245.2280426 C-320.32984389 242.65066112 -320.33378669 240.07354062 -320.3359375 237.49609375 C-320.34236986 235.69352616 -320.34909855 233.8909596 -320.35610962 232.08839417 C-320.36807998 228.30817245 -320.37179101 224.52804206 -320.37060547 220.74780273 C-320.37040302 215.93193429 -320.39762969 211.11666084 -320.43214989 206.30093288 C-320.45452891 202.57484822 -320.45843956 198.84890382 -320.45738602 195.12275887 C-320.45972836 193.34915187 -320.46847377 191.57554019 -320.48405075 189.80200005 C-320.61554656 173.27443431 -317.43934256 157.8096181 -305.8125 145.18359375 C-295.90607383 135.98171944 -283.0843705 128.34472775 -269.28125 128.45703125 C-267.7972168 128.46633667 -267.7972168 128.46633667 -266.28320312 128.47583008 C-265.52974609 128.48380615 -264.77628906 128.49178223 -264 128.5 C-264.0314209 127.54746338 -264.0314209 127.54746338 -264.06347656 126.57568359 C-264.14704581 123.67561924 -264.19878774 120.77580884 -264.25 117.875 C-264.28351563 116.87597656 -264.31703125 115.87695312 -264.3515625 114.84765625 C-264.43319664 108.68427843 -264.10529031 105.19176035 -260 100.5 C-256.95043998 97.45043998 -254.89213208 96.54143818 -250.58349609 96.34130859 C-249.32617676 96.36016113 -248.06885742 96.37901367 -246.7734375 96.3984375 C-245.50677246 96.41310059 -244.24010742 96.42776367 -242.93505859 96.44287109 C-241.96648926 96.46172363 -240.99791992 96.48057617 -240 96.5 C-240.00888245 95.85742249 -240.01776489 95.21484497 -240.0269165 94.55279541 C-240.11535648 87.86959725 -240.17572054 81.1865651 -240.21972656 74.50292969 C-240.23985164 72.00806935 -240.26715452 69.51325622 -240.30175781 67.01855469 C-240.35023457 63.43412632 -240.3729602 59.85032115 -240.390625 56.265625 C-240.41127014 55.14883362 -240.43191528 54.03204224 -240.45318604 52.88140869 C-240.45363922 51.32024323 -240.45363922 51.32024323 -240.45410156 49.72753906 C-240.46298401 48.81264709 -240.47186646 47.89775513 -240.48101807 46.95513916 C-239.84966041 43.73265958 -238.51020199 42.54310609 -236 40.5 C-234 39.96875 -234 39.96875 -232 40 C-231.34 39.9896875 -230.68 39.979375 -230 39.96875 C-228 40.5 -228 40.5 -224 44.5 C-224 51.1 -224 57.7 -224 64.5 C-163.28 64.5 -102.56 64.5 -40 64.5 C-40 57.24 -40 49.98 -40 42.5 C-35.10204082 35.15306122 -35.10204082 35.15306122 -30 32.5 C-28.00100951 32.43646241 -25.99869 32.42762404 -24 32.5 C-24.02094727 31.86497559 -24.04189453 31.22995117 -24.06347656 30.57568359 C-24.14704581 27.67561924 -24.19878774 24.77580884 -24.25 21.875 C-24.28351563 20.87597656 -24.31703125 19.87695312 -24.3515625 18.84765625 C-24.43048846 12.88874637 -24.24551031 9.06884388 -20 4.5 C-14.38621483 -1.03991958 -7.39116829 -0.09087502 0 0 Z M-8 16.5 C-8 21.78 -8 27.06 -8 32.5 C-2.72 32.5 2.56 32.5 8 32.5 C8 27.22 8 21.94 8 16.5 C2.72 16.5 -2.56 16.5 -8 16.5 Z M-24 48.5 C-24 55.43 -24 62.36 -24 69.5 C-14.82078318 67.98666966 -5.85845179 65.8299725 3.15576172 63.55883789 C5.65332002 62.93037379 8.15271116 62.30960958 10.65234375 61.68945312 C12.23969692 61.29212015 13.82694078 60.8943502 15.4140625 60.49609375 C16.16184967 60.31066513 16.90963684 60.12523651 17.68008423 59.93418884 C21.1243005 59.2834394 21.1243005 59.2834394 24 57.5 C24 54.53 24 51.56 24 48.5 C8.16 48.5 -7.68 48.5 -24 48.5 Z M16.63623047 76.49389648 C15.75877167 76.71089706 14.88131287 76.92789764 13.9772644 77.151474 C12.56152634 77.50768578 12.56152634 77.50768578 11.1171875 77.87109375 C9.66217331 78.23377098 9.66217331 78.23377098 8.17776489 78.60377502 C6.12800374 79.1157049 4.07868729 79.62941821 2.02978516 80.14477539 C-1.11817128 80.9357841 -4.26794045 81.71924117 -7.41796875 82.50195312 C-9.40636336 82.99954724 -11.39464847 83.49757913 -13.3828125 83.99609375 C-14.80462326 84.34926918 -14.80462326 84.34926918 -16.25515747 84.70957947 C-17.12631195 84.92973221 -17.99746643 85.14988495 -18.89501953 85.37670898 C-19.66540558 85.56990219 -20.43579163 85.7630954 -21.22952271 85.96214294 C-23.00745653 86.3504442 -23.00745653 86.3504442 -24 87.5 C-24.07271741 89.85313555 -24.08370868 92.20833668 -24.0625 94.5625 C-24.05347656 95.85285156 -24.04445313 97.14320312 -24.03515625 98.47265625 C-24.02355469 99.47167969 -24.01195312 100.47070312 -24 101.5 C-14.81802453 100.04731779 -5.85013698 97.82787758 3.15576172 95.55883789 C5.65332002 94.93037379 8.15271116 94.30960958 10.65234375 93.68945312 C12.23969692 93.29212015 13.82694078 92.8943502 15.4140625 92.49609375 C16.16184967 92.31066513 16.90963684 92.12523651 17.68008423 91.93418884 C21.1243005 91.2834394 21.1243005 91.2834394 24 89.5 C24.07271741 87.14686445 24.08370868 84.79166332 24.0625 82.4375 C24.05347656 81.14714844 24.04445313 79.85679688 24.03515625 78.52734375 C24.02355469 77.52832031 24.01195312 76.52929688 24 75.5 C21.25269484 75.5 19.27656968 75.83585252 16.63623047 76.49389648 Z M-224 80.5 C-224 85.78 -224 91.06 -224 96.5 C-220.720625 96.62375 -220.720625 96.62375 -217.375 96.75 C-211.60186401 97.16944076 -208.16617039 97.44642881 -204 101.5 C-201 106.5 -201 106.5 -200 128.5 C-147.2 128.5 -94.4 128.5 -40 128.5 C-40 112.66 -40 96.82 -40 80.5 C-100.72 80.5 -161.44 80.5 -224 80.5 Z M16.63623047 108.49389648 C15.75877167 108.71089706 14.88131287 108.92789764 13.9772644 109.151474 C12.56152634 109.50768578 12.56152634 109.50768578 11.1171875 109.87109375 C9.66217331 110.23377098 9.66217331 110.23377098 8.17776489 110.60377502 C6.12800374 111.1157049 4.07868729 111.62941821 2.02978516 112.14477539 C-1.11817128 112.9357841 -4.26794045 113.71924117 -7.41796875 114.50195312 C-9.40636336 114.99954724 -11.39464847 115.49757913 -13.3828125 115.99609375 C-14.80462326 116.34926918 -14.80462326 116.34926918 -16.25515747 116.70957947 C-17.12631195 116.92973221 -17.99746643 117.14988495 -18.89501953 117.37670898 C-19.66540558 117.56990219 -20.43579163 117.7630954 -21.22952271 117.96214294 C-23.00745653 118.3504442 -23.00745653 118.3504442 -24 119.5 C-24 122.47 -24 125.44 -24 128.5 C-8.16 128.5 7.68 128.5 24 128.5 C24 121.57 24 114.64 24 107.5 C21.25269484 107.5 19.27656968 107.83585252 16.63623047 108.49389648 Z M-248 112.5 C-248 117.78 -248 123.06 -248 128.5 C-237.44 128.5 -226.88 128.5 -216 128.5 C-216 123.22 -216 117.94 -216 112.5 C-226.56 112.5 -237.12 112.5 -248 112.5 Z M-295 159.5 C-303.94943547 171.72642362 -304.16262501 184.46453671 -304.203125 199.0703125 C-304.20595238 199.76157101 -304.20877975 200.45282951 -304.21169281 201.16503525 C-304.2265959 204.8159192 -304.23588411 208.46676447 -304.24023438 212.11767578 C-304.245738 215.87461369 -304.26983067 219.63119268 -304.29820633 223.38801765 C-304.31686536 226.29288774 -304.32203981 229.19767134 -304.32357025 232.10259628 C-304.32658472 233.4876186 -304.33457231 234.87263984 -304.34775543 236.25760269 C-304.36489944 238.19526171 -304.36107883 240.13307146 -304.35644531 242.07080078 C-304.36009094 243.1703006 -304.36373657 244.26980042 -304.36749268 245.40261841 C-303.93119167 249.07994531 -303.03409871 251.40585507 -301 254.5 C-297.17721916 256.79744306 -293.5396221 256.75787606 -289.14941406 256.7746582 C-288.48039062 256.77976913 -287.81136719 256.78488007 -287.12207031 256.79014587 C-284.9198297 256.80399545 -282.71790388 256.80308801 -280.515625 256.80078125 C-278.97491338 256.80467204 -277.43420283 256.8090075 -275.89349365 256.81376648 C-272.66561405 256.8212197 -269.43784383 256.82094491 -266.20996094 256.81567383 C-262.09337222 256.80989438 -257.97723566 256.82677728 -253.86072159 256.8500185 C-250.67776921 256.86482619 -247.49492379 256.86561779 -244.31194305 256.86250877 C-242.79543923 256.86301892 -241.27892893 256.86819855 -239.7624588 256.87832069 C-226.15283365 257.09140896 -226.15283365 257.09140896 -214.20922852 251.3269043 C-213.44022217 250.50101807 -212.67121582 249.67513184 -211.87890625 248.82421875 C-211.00556641 247.91349609 -210.13222656 247.00277344 -209.23242188 246.06445312 C-208.35134766 245.11505859 -207.47027344 244.16566406 -206.5625 243.1875 C-190.32080737 225.82404462 -190.32080737 225.82404462 -178.22094727 225.35282898 C-176.66947484 225.33776655 -175.117943 225.32821961 -173.56640625 225.32299805 C-172.71702988 225.31642685 -171.8676535 225.30985565 -170.99253845 225.30308533 C-168.18252465 225.28338383 -165.37256437 225.27169347 -162.5625 225.26171875 C-161.59924805 225.25764322 -160.63599609 225.2535677 -159.64355469 225.24936867 C-154.5398785 225.22851609 -149.43622909 225.2142138 -144.33251953 225.20483398 C-139.08508852 225.19380295 -133.83808544 225.15943896 -128.59080505 225.11966228 C-124.53618637 225.09338943 -120.48166773 225.08513246 -116.42697144 225.08155251 C-114.49426399 225.07670996 -112.56156031 225.0651633 -110.62893677 225.04651451 C-93.7071711 224.89344645 -80.98799638 227.95921817 -66.8125 237.6875 C-55.29992247 249.20007753 -48.72018359 263.16949454 -48.68115234 279.38256836 C-48.67099909 280.36471848 -48.66084583 281.34686861 -48.6503849 282.35878086 C-48.61989529 285.51913171 -48.6026346 288.67939315 -48.5859375 291.83984375 C-48.56899129 293.79855107 -48.55117337 295.75725105 -48.5324707 297.71594238 C-48.46942558 304.95637738 -48.42322385 312.19695112 -48.375 319.4375 C-48.25125 335.628125 -48.1275 351.81875 -48 368.5 C-5.76 368.5 36.48 368.5 80 368.5 C80.05828737 336.08984861 80.05828737 336.08984861 80.09765625 303.6796875 C80.10951458 290.45929408 80.12344071 277.23892618 80.15087891 264.01855469 C80.17085412 254.38941149 80.18372624 244.76028904 80.18817699 235.13112569 C80.19077738 230.03566115 80.19686123 224.94025595 80.21146011 219.84481049 C80.22510934 215.04157097 80.22920788 210.23841484 80.22621536 205.43515778 C80.22676226 203.67928106 80.23069572 201.92340135 80.23841095 200.1675415 C80.30942072 183.1621814 79.46215353 168.56991367 67.2421875 155.54296875 C55.75457103 145.076029 42.35850838 144.34640675 27.57769775 144.36628723 C26.33792923 144.36402167 25.0981607 144.36175612 23.82082343 144.35942191 C20.39596971 144.35420175 16.97116865 144.35343445 13.54631472 144.35461628 C9.84611927 144.35482095 6.14593156 144.34929529 2.44573975 144.34455872 C-4.79762195 144.33626573 -12.0409755 144.33350448 -19.28434154 144.33294634 C-25.17459079 144.33247053 -31.06483736 144.33041253 -36.95508575 144.32724571 C-53.66964261 144.31844276 -70.38419304 144.31382576 -87.09875223 144.31457619 C-88.44930835 144.31463612 -88.44930835 144.31463612 -89.82714844 144.31469727 C-90.72862359 144.31473815 -91.63009874 144.31477903 -92.55889133 144.31482115 C-107.16463682 144.3152275 -121.77035652 144.30565983 -136.37609455 144.2915589 C-151.38749233 144.27718115 -166.39887754 144.27028949 -181.41028237 144.27115268 C-189.83226629 144.27148417 -198.25422317 144.26875813 -206.67620087 144.25797462 C-213.8473811 144.2488512 -221.01852204 144.24670947 -228.18970558 144.25348405 C-231.84485627 144.25673999 -235.49993164 144.25683958 -239.15507507 144.2481308 C-243.12667227 144.23876579 -247.09816057 144.24506599 -251.06976318 144.25276184 C-252.21220041 144.24761828 -253.35463764 144.24247471 -254.53169417 144.23717529 C-270.60133579 144.30573473 -283.83585746 147.24719347 -295 159.5 Z M96 200.5 C96 221.62 96 242.74 96 264.5 C103.80717911 264.75313245 103.80717911 264.75313245 110 261.5 C111.67482516 258.12906983 112.2537225 255.36333727 112.2746582 251.62133789 C112.28419022 250.6800856 112.29372223 249.73883331 112.30354309 248.76905823 C112.30263168 247.76374557 112.30172028 246.75843292 112.30078125 245.72265625 C112.30506638 244.67855087 112.3093515 243.6344455 112.31376648 242.55870056 C112.31950083 240.3540011 112.32001664 238.14928272 112.31567383 235.94458008 C112.31251451 232.57795838 112.33598269 229.21221622 112.36132812 225.84570312 C112.36360132 223.70052194 112.36430452 221.5553384 112.36328125 219.41015625 C112.372491 218.40686783 112.38170074 217.40357941 112.39118958 216.36988831 C112.35584704 211.01127998 112.08635916 207.09709252 109 202.5 C104.5763153 199.71939819 101.63875369 200.5 96 200.5 Z M-280 272.5 C-280 277.78 -280 283.06 -280 288.5 C-269.44 288.5 -258.88 288.5 -248 288.5 C-248 283.22 -248 277.94 -248 272.5 C-258.56 272.5 -269.12 272.5 -280 272.5 Z M-334 387.5 C-337.33668135 392.99306047 -336.33435933 399.98890698 -336.31567383 406.21948242 C-336.31251442 408.42742315 -336.33599663 410.63402154 -336.36132812 412.84179688 C-336.3636016 414.25781082 -336.36430439 415.67382834 -336.36328125 417.08984375 C-336.36626221 418.36722412 -336.36924316 419.64460449 -336.37231445 420.96069336 C-335.96052115 424.87529499 -335.19442124 427.23635592 -333 430.5 C-329.02554222 432.59359614 -325.60144726 432.75128998 -321.15457249 432.75447559 C-320.47525137 432.75768207 -319.79593025 432.76088855 -319.09602365 432.76419219 C-316.81511514 432.7725069 -314.5344682 432.76656285 -312.2535553 432.76069641 C-310.60359427 432.76371642 -308.95363464 432.76760515 -307.3036775 432.77228898 C-302.76590436 432.78259704 -298.22820997 432.78038003 -293.69043028 432.77610838 C-288.79805176 432.77364626 -283.90569246 432.7826489 -279.01332092 432.79014587 C-269.42737289 432.80290903 -259.84145286 432.80468457 -250.25549776 432.80234561 C-242.46580939 432.80056417 -234.67612953 432.80230836 -226.88644218 432.80657005 C-225.22484012 432.80746284 -225.22484012 432.80746284 -223.52967034 432.80837366 C-221.27947239 432.80958538 -219.02927445 432.81079951 -216.77907651 432.81201603 C-195.66681431 432.82289771 -174.55456807 432.82072605 -153.44230496 432.81463119 C-134.11820853 432.80946095 -114.79416249 432.82071918 -95.47007603 432.83972941 C-75.63816636 432.85908998 -55.80628055 432.86736697 -35.97436136 432.86360615 C-24.83619843 432.86169147 -13.69807841 432.8642077 -2.55992317 432.87832069 C6.92156542 432.89021275 16.4029847 432.89166384 25.88447421 432.87953053 C30.72365909 432.87362665 35.56271706 432.87258397 40.40189362 432.88453293 C44.83015169 432.89534036 49.2581761 432.89234997 53.68642301 432.87827124 C55.29000349 432.87561009 56.89360197 432.87803506 58.49716484 432.88600711 C60.67463704 432.89608255 62.85129216 432.88771823 65.02873135 432.87473011 C66.23884772 432.87478513 67.44896409 432.87484014 68.69575065 432.87489682 C72.48099659 432.44542661 74.82887844 431.60961857 78 429.5 C80.77270212 425.20683189 80.25536975 420.20208633 80.1953125 415.26171875 C80.1924826 414.38095169 80.18965271 413.50018463 80.18673706 412.59272766 C80.17557833 409.79084455 80.15048171 406.98928584 80.125 404.1875 C80.11496463 402.28320775 80.10583975 400.37891048 80.09765625 398.47460938 C80.07565309 393.81628203 80.04115294 389.15819594 80 384.5 C28.12535252 384.43136932 -23.74929037 384.37848924 -75.6239743 384.34680401 C-81.74492174 384.34305178 -87.8658691 384.33916883 -93.98681641 384.33520508 C-95.81471185 384.33402468 -95.81471185 384.33402468 -97.67953448 384.33282044 C-117.42426677 384.31975799 -137.16897292 384.29609952 -156.91368969 384.26854161 C-177.16579927 384.24051077 -197.41789514 384.22382866 -217.67002332 384.21773452 C-230.17186144 384.21361326 -242.67362569 384.20058537 -255.17544107 384.1762506 C-263.74239115 384.16042206 -272.3093029 384.1555931 -280.87626655 384.15949587 C-285.82276145 384.16142191 -290.76912702 384.15841974 -295.71559906 384.14238358 C-300.24211638 384.1278157 -304.76841705 384.12702736 -309.29494421 384.13730332 C-310.9343446 384.1385739 -312.57375835 384.134742 -314.21313234 384.12535045 C-316.4389628 384.11333847 -318.66400777 384.11978297 -320.88982582 384.13085651 C-322.12695466 384.12971735 -323.36408349 384.12857819 -324.63870108 384.12740451 C-328.38450905 384.54262231 -330.7983155 385.53989049 -334 387.5 Z M-320 448.5 C-320 453.78 -320 459.06 -320 464.5 C-193.28 464.5 -66.56 464.5 64 464.5 C64 459.22 64 453.94 64 448.5 C-62.72 448.5 -189.44 448.5 -320 448.5 Z " fill="#000000" transform="translate(368,15.5)"/>
<path d="M0 0 C2.04146591 -0.00436055 4.08074385 -0.04068319 6.12182617 -0.07861328 C14.90752544 -0.10464498 20.70890427 0.395706 27.48706055 6.33544922 C28.02588867 6.98642578 28.5647168 7.63740234 29.11987305 8.30810547 C29.95131836 9.28070313 29.95131836 9.28070313 30.79956055 10.27294922 C34.64568366 15.85502519 34.56550918 21.07249324 34.58081055 27.64013672 C34.59079575 29.13259163 34.59079575 29.13259163 34.60098267 30.65519714 C34.61109202 32.75733598 34.61580022 34.8595068 34.61547852 36.96166992 C34.61984382 40.16167719 34.65616066 43.36029585 34.6940918 46.56005859 C34.69996204 48.60757995 34.70393004 50.65510781 34.70581055 52.70263672 C34.72018158 53.65185501 34.73455261 54.6010733 34.74935913 55.57905579 C34.70016906 62.80745962 33.08526449 68.12928402 28.2800293 73.61279297 C27.62905273 74.15162109 26.97807617 74.69044922 26.30737305 75.24560547 C25.65897461 75.79990234 25.01057617 76.35419922 24.3425293 76.92529297 C18.13605728 81.20163309 11.78049998 80.74295409 4.48974609 80.74121094 C2.44828018 80.74557149 0.40900224 80.78189413 -1.63208008 80.81982422 C-10.41777935 80.84585592 -16.21915818 80.34550494 -22.99731445 74.40576172 C-23.53614258 73.75478516 -24.0749707 73.10380859 -24.63012695 72.43310547 C-25.18442383 71.78470703 -25.7387207 71.13630859 -26.30981445 70.46826172 C-30.15593756 64.88618574 -30.07576309 59.6687177 -30.09106445 53.10107422 C-30.09772125 52.10610428 -30.10437805 51.11113434 -30.11123657 50.08601379 C-30.12134593 47.98387496 -30.12605412 45.88170414 -30.12573242 43.77954102 C-30.13009772 40.57953375 -30.16641456 37.38091509 -30.2043457 34.18115234 C-30.21021594 32.13363099 -30.21418395 30.08610312 -30.21606445 28.03857422 C-30.237621 26.61474678 -30.237621 26.61474678 -30.25961304 25.16215515 C-30.21042297 17.93375132 -28.5955184 12.61192692 -23.7902832 7.12841797 C-23.13930664 6.58958984 -22.48833008 6.05076172 -21.81762695 5.49560547 C-21.16922852 4.94130859 -20.52083008 4.38701172 -19.8527832 3.81591797 C-13.64631119 -0.46042215 -7.29075389 -0.00174316 0 0 Z M-11.75512695 19.37060547 C-13.17554516 22.21144188 -13.06964968 24.22537825 -12.75512695 27.37060547 C-10.52306264 30.21841166 -9.20519697 31.22058213 -5.75512695 32.37060547 C-3.13648535 32.51909987 -0.56187926 32.60160817 2.05737305 32.62060547 C3.10634766 32.65154297 3.10634766 32.65154297 4.17651367 32.68310547 C8.95852238 32.71889225 12.20023304 31.92250698 16.24487305 29.37060547 C17.66529125 26.52976906 17.55939577 24.51583269 17.24487305 21.37060547 C15.01280874 18.52279928 13.69494306 17.52062881 10.24487305 16.37060547 C7.62623144 16.22211107 5.05162535 16.13960277 2.43237305 16.12060547 C1.38339844 16.08966797 1.38339844 16.08966797 0.31323242 16.05810547 C-4.46877629 16.02231869 -7.71048694 16.81870396 -11.75512695 19.37060547 Z M-13.75512695 47.37060547 C-14.13656354 55.78600465 -14.13656354 55.78600465 -10.75512695 62.37060547 C-6.57029653 64.62516355 -2.46710519 64.70469079 2.18237305 64.68310547 C3.2178125 64.70727539 3.2178125 64.70727539 4.27416992 64.73193359 C9.00769659 64.73642035 12.23611136 63.87532344 16.24487305 61.37060547 C19.2256366 56.76397088 18.24487305 53.2638694 18.24487305 47.37060547 C7.68487305 47.37060547 -2.87512695 47.37060547 -13.75512695 47.37060547 Z " fill="#000000" transform="translate(381.755126953125,279.62939453125)"/>
<path d="M0 0 C8.80288754 6.34043826 15.4186507 14.72648904 17.58203125 25.4921875 C18.92007691 37.90936834 17.85729499 48.88109459 10.39453125 59.2421875 C3.58210875 67.3274193 -4.72289951 73.55522767 -15.48876953 74.71533203 C-28.40007937 75.61089799 -39.16843729 74.04490094 -49.3515625 65.46484375 C-57.86959925 57.33325857 -62.42046403 48.68416257 -62.88867188 36.85693359 C-63.04371176 24.34263074 -60.22647828 14.71931927 -51.41796875 5.4921875 C-37.63784493 -7.66275112 -16.31305228 -10.17259803 0 0 Z M-41.97265625 21.39453125 C-46.0977477 27.38148831 -46.13405017 33.44153962 -45.41796875 40.4921875 C-43.64454442 47.13691664 -38.97130405 51.66586709 -33.41796875 55.4921875 C-27.41909871 58.43281007 -20.53513345 58.59102538 -14.10546875 56.875 C-7.97664014 54.16969675 -3.17844083 49.08355055 -0.24609375 43.1015625 C1.66008982 37.09528598 1.64641812 29.98927192 -0.91796875 24.1796875 C-4.40259013 18.23971013 -9.85252705 13.57583067 -16.41796875 11.4921875 C-27.85241972 10.13582504 -34.59614364 12.76572696 -41.97265625 21.39453125 Z " fill="#000000" transform="translate(406.41796875,189.5078125)"/>
<path d="M0 0 C0.66 -0.0103125 1.32 -0.020625 2 -0.03125 C4.98156897 0.76072926 6.09610121 2.08553675 8 4.5 C8.51757812 7.828125 8.51757812 7.828125 8.53125 11.75 C8.5350769 12.44512695 8.53890381 13.14025391 8.54284668 13.85644531 C8.5455618 15.32228041 8.53822835 16.78816428 8.52148438 18.25390625 C8.50006419 20.49328975 8.52129443 22.72946587 8.546875 24.96875 C8.54423165 26.39584039 8.5391065 27.82292879 8.53125 29.25 C8.52673828 30.54421875 8.52222656 31.8384375 8.51757812 33.171875 C7.92081106 37.00919979 7.05716949 38.19070951 4 40.5 C2 41.03125 2 41.03125 0 41 C-0.99 41.01546875 -0.99 41.01546875 -2 41.03125 C-4.98156897 40.23927074 -6.09610121 38.91446325 -8 36.5 C-8.51757812 33.171875 -8.51757812 33.171875 -8.53125 29.25 C-8.5350769 28.55487305 -8.53890381 27.85974609 -8.54284668 27.14355469 C-8.5455618 25.67771959 -8.53822835 24.21183572 -8.52148438 22.74609375 C-8.50006419 20.50671025 -8.52129443 18.27053413 -8.546875 16.03125 C-8.54423165 14.60415961 -8.5391065 13.17707121 -8.53125 11.75 C-8.52673828 10.45578125 -8.52222656 9.1615625 -8.51757812 7.828125 C-7.7418101 2.83979026 -5.19836111 -0.08122439 0 0 Z " fill="#000000" transform="translate(168,183.5)"/>
<path d="M0 0 C0.66 -0.0103125 1.32 -0.020625 2 -0.03125 C4.98156897 0.76072926 6.09610121 2.08553675 8 4.5 C8.51757812 7.828125 8.51757812 7.828125 8.53125 11.75 C8.5350769 12.44512695 8.53890381 13.14025391 8.54284668 13.85644531 C8.5455618 15.32228041 8.53822835 16.78816428 8.52148438 18.25390625 C8.50006419 20.49328975 8.52129443 22.72946587 8.546875 24.96875 C8.54423165 26.39584039 8.5391065 27.82292879 8.53125 29.25 C8.52673828 30.54421875 8.52222656 31.8384375 8.51757812 33.171875 C7.92081106 37.00919979 7.05716949 38.19070951 4 40.5 C2 41.03125 2 41.03125 0 41 C-0.99 41.01546875 -0.99 41.01546875 -2 41.03125 C-4.98156897 40.23927074 -6.09610121 38.91446325 -8 36.5 C-8.51757812 33.171875 -8.51757812 33.171875 -8.53125 29.25 C-8.5350769 28.55487305 -8.53890381 27.85974609 -8.54284668 27.14355469 C-8.5455618 25.67771959 -8.53822835 24.21183572 -8.52148438 22.74609375 C-8.50006419 20.50671025 -8.52129443 18.27053413 -8.546875 16.03125 C-8.54423165 14.60415961 -8.5391065 13.17707121 -8.53125 11.75 C-8.52673828 10.45578125 -8.52222656 9.1615625 -8.51757812 7.828125 C-7.7418101 2.83979026 -5.19836111 -0.08122439 0 0 Z " fill="#000000" transform="translate(136,183.5)"/>
<path d="M0 0 C0.66 -0.0103125 1.32 -0.020625 2 -0.03125 C4.98156897 0.76072926 6.09610121 2.08553675 8 4.5 C8.51757812 7.828125 8.51757812 7.828125 8.53125 11.75 C8.5350769 12.44512695 8.53890381 13.14025391 8.54284668 13.85644531 C8.5455618 15.32228041 8.53822835 16.78816428 8.52148438 18.25390625 C8.50006419 20.49328975 8.52129443 22.72946587 8.546875 24.96875 C8.54423165 26.39584039 8.5391065 27.82292879 8.53125 29.25 C8.52673828 30.54421875 8.52222656 31.8384375 8.51757812 33.171875 C7.92081106 37.00919979 7.05716949 38.19070951 4 40.5 C2 41.03125 2 41.03125 0 41 C-0.99 41.01546875 -0.99 41.01546875 -2 41.03125 C-4.98156897 40.23927074 -6.09610121 38.91446325 -8 36.5 C-8.51757812 33.171875 -8.51757812 33.171875 -8.53125 29.25 C-8.5350769 28.55487305 -8.53890381 27.85974609 -8.54284668 27.14355469 C-8.5455618 25.67771959 -8.53822835 24.21183572 -8.52148438 22.74609375 C-8.50006419 20.50671025 -8.52129443 18.27053413 -8.546875 16.03125 C-8.54423165 14.60415961 -8.5391065 13.17707121 -8.53125 11.75 C-8.52673828 10.45578125 -8.52222656 9.1615625 -8.51757812 7.828125 C-7.7418101 2.83979026 -5.19836111 -0.08122439 0 0 Z " fill="#000000" transform="translate(104,183.5)"/>
</svg>
