<?xml version="1.0" encoding="UTF-8"?>
<svg version="1.1" xmlns="http://www.w3.org/2000/svg" width="512" height="512">
<path d="M0 0 C1.43845027 1.20360125 2.85450394 2.43434962 4.25 3.6875 C5.48169922 4.77998047 5.48169922 4.77998047 6.73828125 5.89453125 C19.55940623 17.93743924 28.31105736 34.74251267 29.42483521 52.47032166 C29.47929275 55.44319092 29.47539586 58.409608 29.4453125 61.3828125 C29.4424826 62.45626923 29.43965271 63.52972595 29.43673706 64.63571167 C29.42563822 68.02809305 29.40055314 71.42019987 29.375 74.8125 C29.36495688 77.12760032 29.35583338 79.44270483 29.34765625 81.7578125 C29.32573273 87.40113364 29.29235932 93.0442972 29.25 98.6875 C30.65821518 98.67750725 30.65821518 98.67750725 32.09487915 98.66731262 C40.95209149 98.60643758 49.80926126 98.5614967 58.66663551 98.53206348 C63.22006592 98.51642274 67.77332712 98.4952136 72.32666016 98.46118164 C76.72275831 98.42853134 81.11869395 98.41063501 85.51490402 98.40286827 C87.1902052 98.39733493 88.86549772 98.38652961 90.54072952 98.37030983 C92.89144199 98.34845982 95.2414871 98.34553618 97.59228516 98.34692383 C98.28136963 98.336138 98.9704541 98.32535217 99.68041992 98.3142395 C104.24865766 98.34332502 107.37256877 99.28094093 111.25 101.6875 C112.72984524 104.64719048 112.41006912 107.32492287 112.44287109 110.62817383 C112.45104858 111.34219864 112.45922607 112.05622345 112.46765137 112.79188538 C112.49250302 115.15942545 112.5090208 117.52690557 112.5234375 119.89453125 C112.52876118 120.70286596 112.53408485 121.51120068 112.53956985 122.34403038 C112.56630064 126.62265449 112.5856756 130.90124943 112.60009766 135.17993164 C112.61674436 139.59871769 112.66152169 144.01675772 112.7124691 148.43526173 C112.74613005 151.83335728 112.75767375 155.2312755 112.76332474 158.62952232 C112.77004062 160.25823352 112.78527165 161.88693291 112.80921555 163.51548195 C112.84084751 165.79715324 112.84090812 168.07680946 112.83349609 170.35864258 C112.84158295 171.65610916 112.8496698 172.95357574 112.85800171 174.2903595 C112.09268401 178.5664852 110.65180389 180.06727415 107.25 182.6875 C106.26 182.6875 105.27 182.6875 104.25 182.6875 C104.25 188.9575 104.25 195.2275 104.25 201.6875 C106.75704025 201.67861755 109.26408051 201.66973511 111.84709167 201.6605835 C135.43548953 201.57891537 159.02386879 201.51934971 182.61237621 201.48025131 C194.74042017 201.45961508 206.86836046 201.43147412 218.99633789 201.38574219 C229.56553713 201.34590702 240.13466131 201.32007491 250.70393354 201.31114602 C256.3017066 201.30592568 261.89926491 201.29363374 267.49696922 201.26457977 C272.76398343 201.23746326 278.03069407 201.22904745 283.29777145 201.23506927 C285.23236935 201.23396736 287.16697722 201.22599118 289.10151482 201.2106781 C291.7407145 201.19080904 294.37876445 201.19554938 297.01799011 201.20648193 C297.78550651 201.19483057 298.55302291 201.1831792 299.34379739 201.17117476 C302.67114082 201.20849197 305.17756402 201.65539897 308.22481823 203.00583267 C311.50364974 207.34753447 310.93831832 211.77898063 310.88491821 217.07519531 C310.89271817 218.25185383 310.90051812 219.42851234 310.90855443 220.64082718 C310.9250674 223.90803687 310.91909861 227.17432049 310.90362334 230.44150734 C310.89232703 233.96443279 310.90976391 237.48723144 310.92352295 241.01013184 C310.94577849 247.91188066 310.940944 254.81335791 310.92645974 261.71511745 C310.91517654 267.3233253 310.9136326 272.93145692 310.91907883 278.53967285 C310.92022807 279.73608363 310.92022807 279.73608363 310.92140054 280.95666432 C310.92299914 282.57689129 310.9246202 284.19711823 310.9262635 285.81734514 C310.94052777 301.0170763 310.92411768 316.21665679 310.89726166 331.41636324 C310.87492223 344.46384888 310.87880217 357.51111212 310.90185547 370.55859375 C310.92860154 385.70321186 310.93915442 400.84769785 310.92379415 415.99233627 C310.92220137 417.60666654 310.92062952 419.22099684 310.91907883 420.83532715 C310.91792176 422.02680858 310.91792176 422.02680858 310.91674132 423.24236035 C310.91242072 428.84507746 310.91971858 434.44771089 310.93147659 440.05041504 C310.94548694 446.8765326 310.94173283 453.70236262 310.91507287 460.52844715 C310.90191455 464.01258994 310.89681575 467.49625301 310.91331863 470.98039246 C310.92691028 474.75401383 310.90993259 478.52627108 310.88491821 482.29980469 C310.89607182 483.40601795 310.90722543 484.51223122 310.91871703 485.65196609 C310.90567829 486.66068142 310.89263955 487.66939674 310.8792057 488.7086792 C310.87798806 490.0154619 310.87798806 490.0154619 310.87674582 491.34864426 C309.94516579 494.82506361 308.28468617 495.85657808 305.25 497.6875 C302.31360626 498.19004732 302.31360626 498.19004732 298.99523926 498.19365788 C297.72737831 498.20470556 296.45951736 498.21575325 295.15323639 498.22713572 C293.74863984 498.21917863 292.34404541 498.21084095 290.93945312 498.2021637 C289.4455166 498.20748846 287.95158543 498.21455375 286.45766449 498.22321075 C282.35112975 498.24187431 278.24495474 498.23552047 274.13840485 498.22505772 C269.71023902 498.21807625 265.28214789 498.23405557 260.85400391 498.24705505 C252.178762 498.26871755 243.50365115 498.26856248 234.82839108 498.26042951 C227.77905446 498.25413462 220.72975612 498.25526184 213.68041992 498.26170158 C212.17658036 498.26305407 212.17658036 498.26305407 210.64236021 498.26443387 C208.60580253 498.26628503 206.56924485 498.26814759 204.53268719 498.27002143 C185.42719999 498.28660757 166.3217866 498.27787359 147.21630383 498.26103585 C129.72798083 498.24633631 112.23982961 498.26096945 94.75152874 498.28980602 C76.80334057 498.319181 58.85523173 498.33017796 40.90702057 498.32062382 C38.87787375 498.31960124 36.84872692 498.31860663 34.81958008 498.3176403 C33.32193595 498.31692572 33.32193595 498.31692572 31.79403639 498.3161967 C24.75157643 498.31403016 17.70919138 498.32384932 10.66674805 498.33841133 C2.08658159 498.35590517 -6.49336579 498.35585973 -15.07352352 498.33305968 C-19.45293819 498.32189089 -23.83196644 498.31881431 -28.21136475 498.33736038 C-32.21846675 498.3541118 -36.22484374 498.34788758 -40.23189831 498.32314359 C-41.68337277 498.31824223 -43.13490512 498.32182507 -44.58633137 498.33463103 C-46.55591342 498.35075805 -48.52568572 498.33320936 -50.49523926 498.31391239 C-51.59030037 498.3136427 -52.68536148 498.31337301 -53.81360626 498.31309515 C-57.74176131 497.47620645 -59.2814339 495.78725582 -61.75 492.6875 C-61.75 491.6975 -61.75 490.7075 -61.75 489.6875 C-68.35 489.6875 -74.95 489.6875 -81.75 489.6875 C-82.08 491.3375 -82.41 492.9875 -82.75 494.6875 C-84.78003833 496.73440138 -86.10214897 497.57530811 -88.94613552 498.06781673 C-89.74713208 498.07024663 -90.54812864 498.07267653 -91.37339783 498.07518005 C-92.75914253 498.090037 -92.75914253 498.090037 -94.17288208 498.10519409 C-95.17922699 498.10069244 -96.1855719 498.0961908 -97.22241211 498.09155273 C-98.82058022 498.10184761 -98.82058022 498.10184761 -100.45103455 498.11235046 C-103.97660612 498.13066726 -107.50173476 498.12677385 -111.02734375 498.12109375 C-113.47587733 498.12565321 -115.92440963 498.13095808 -118.37294006 498.13697815 C-123.50673621 498.14591888 -128.64037687 498.14347509 -133.77416992 498.13354492 C-140.3562938 498.1220546 -146.93788126 498.14226348 -153.51993465 498.17146206 C-158.57710688 498.18979952 -163.63415 498.18953644 -168.69134712 498.18382454 C-171.11825882 498.18367102 -173.5451791 498.18974028 -175.97205925 498.20211601 C-179.36444721 498.21697712 -182.75583685 498.20638373 -186.14819336 498.18920898 C-187.15251404 498.19887695 -188.15683472 498.20854492 -189.19158936 498.21850586 C-190.11823898 498.20867172 -191.04488861 498.19883759 -191.99961853 498.18870544 C-193.20167891 498.18839152 -193.20167891 498.18839152 -194.42802334 498.18807125 C-197.75591366 497.47064534 -199.34416318 496.07868902 -201.75 493.6875 C-202.37559515 490.69461727 -202.37559515 490.69461727 -202.37641239 487.1157074 C-202.38338 486.45382467 -202.39034761 485.79194194 -202.39752635 485.11000216 C-202.41483482 482.88191436 -202.39637403 480.6555507 -202.37818909 478.42749023 C-202.38323197 476.81820859 -202.39045879 475.20893254 -202.39968723 473.59966946 C-202.41867348 469.16962784 -202.40634014 464.74013576 -202.3889643 460.31010771 C-202.37562715 455.53565734 -202.39101422 450.76128935 -202.40278625 445.98684692 C-202.42119458 436.6306397 -202.41262926 427.2746409 -202.39469803 417.9184401 C-202.38068964 410.31653255 -202.37677543 402.71468168 -202.3801403 395.11276245 C-202.38061775 394.03206842 -202.38109519 392.95137439 -202.3815871 391.83793205 C-202.3826134 389.6427311 -202.38366875 387.44753016 -202.38475286 385.25232923 C-202.39332639 365.82800843 -202.37662377 346.40378845 -202.34692383 326.97949219 C-202.31808487 308.11812098 -202.31100205 289.25689502 -202.32641602 270.39550781 C-202.34316554 249.87165785 -202.34722514 229.3478769 -202.32970566 208.82402515 C-202.32786121 206.63676263 -202.32602648 204.44950009 -202.32420158 202.26223755 C-202.32328949 201.18597734 -202.3223774 200.10971714 -202.32143768 199.00084299 C-202.31582451 191.40540655 -202.31914672 183.81000372 -202.32574654 176.21456909 C-202.3334668 166.96206675 -202.3267744 157.70970757 -202.3015715 148.45723414 C-202.28904602 143.73371775 -202.2829667 139.01042456 -202.29411316 134.28689957 C-202.30411591 129.96656229 -202.29578121 125.64667121 -202.27253198 121.32638848 C-202.2673505 119.75983297 -202.2689742 118.19323783 -202.27792663 116.62669933 C-202.28905394 114.50369011 -202.27576579 112.38220755 -202.25615788 110.2592926 C-202.25496639 109.07825234 -202.25377491 107.89721209 -202.25254732 106.68038273 C-201.6431631 103.05124087 -200.63730623 101.89967247 -197.75 99.6875 C-194.23675808 98.51641936 -191.08634942 98.55520642 -187.43286133 98.57397461 C-186.69115189 98.57382858 -185.94944244 98.57368256 -185.18525696 98.5735321 C-182.73415195 98.57422866 -180.28312298 98.58200903 -177.83203125 98.58984375 C-176.13238059 98.59170884 -174.43272939 98.59313232 -172.733078 98.59413147 C-168.25980139 98.59794945 -163.78655724 98.60777362 -159.31329346 98.61883545 C-154.74858031 98.62906501 -150.18386193 98.6336324 -145.61914062 98.63867188 C-136.66274615 98.64939651 -127.70637578 98.66646433 -118.75 98.6875 C-118.75999275 97.79119621 -118.75999275 97.79119621 -118.77018738 96.87678528 C-118.83710719 90.59768107 -118.88203297 84.31867989 -118.91479492 78.03930664 C-118.9297826 75.70300169 -118.95017967 73.36672438 -118.97631836 71.03051758 C-119.30211308 41.14044879 -119.30211308 41.14044879 -111.9375 27.375 C-111.4108374 26.35901733 -111.4108374 26.35901733 -110.87353516 25.32250977 C-108.26510239 20.39711909 -105.37304177 15.93278163 -101.75 11.6875 C-101.31558594 11.11128906 -100.88117188 10.53507812 -100.43359375 9.94140625 C-76.94558485 -20.10450827 -29.16688365 -21.62020746 0 0 Z M-89.75 23.6875 C-107.39363906 44.55554127 -101.75 73.43787441 -101.75 98.6875 C-64.13 98.6875 -26.51 98.6875 12.25 98.6875 C14.69387567 53.56830151 14.69387567 53.56830151 -5.08984375 18.125 C-17.17387036 7.05241174 -31.93660501 2.29408035 -48.1015625 2.48046875 C-64.80548857 3.42833608 -78.61160338 11.71584928 -89.75 23.6875 Z " fill="#FEC160" transform="translate(201.75,14.3125)"/>
<path d="M0 0 C111.87 0 223.74 0 339 0 C339 86.46 339 172.92 339 262 C227.13 262 115.26 262 0 262 C0 175.54 0 89.08 0 0 Z " fill="#FB6B53" transform="translate(157,233)"/>
<path d="M0 0 C20.85493086 -0.07549846 41.70983278 -0.13717833 62.5648613 -0.17855358 C64.84251661 -0.18310026 67.12017189 -0.18765912 69.39782715 -0.19223022 C70.52126156 -0.19447289 71.64469597 -0.19671555 72.80217385 -0.19902617 C80.74823352 -0.21572893 88.69423542 -0.24143233 96.64025879 -0.27041626 C106.38064957 -0.30562049 116.12094496 -0.32620333 125.86140108 -0.32848465 C130.87410758 -0.33001842 135.88658322 -0.33811714 140.89923096 -0.36341858 C145.51249884 -0.38650092 150.12539912 -0.3910786 154.73870993 -0.38082922 C156.41564097 -0.38036693 158.09259002 -0.38672694 159.76946497 -0.40045035 C162.04722249 -0.41807228 164.32362246 -0.41111495 166.60137939 -0.39790344 C167.86990376 -0.4002918 169.13842812 -0.40268015 170.44539261 -0.40514088 C174.61806982 0.21986864 176.13120545 0.73485504 178.75 4.08984375 C179.49778285 7.88113927 179.42377158 11.62406739 179.38491821 15.47753906 C179.39271817 16.65419758 179.40051812 17.83085609 179.40855443 19.04317093 C179.4250674 22.31038062 179.41909861 25.57666424 179.40362334 28.84385109 C179.39232703 32.36677654 179.40976391 35.88957519 179.42352295 39.41247559 C179.44577849 46.31422441 179.440944 53.21570166 179.42645974 60.1174612 C179.41517654 65.72566905 179.4136326 71.33380067 179.41907883 76.9420166 C179.41984499 77.73962379 179.42061116 78.53723097 179.42140054 79.35900807 C179.42299914 80.97923504 179.4246202 82.59946198 179.4262635 84.21968889 C179.44052777 99.41942005 179.42411768 114.61900054 179.39726166 129.81870699 C179.37492223 142.86619263 179.37880217 155.91345587 179.40185547 168.9609375 C179.42860154 184.10555561 179.43915442 199.2500416 179.42379415 214.39468002 C179.42220137 216.00901029 179.42062952 217.62334059 179.41907883 219.2376709 C179.41830745 220.03199186 179.41753607 220.82631281 179.41674132 221.6447041 C179.41242072 227.24742121 179.41971858 232.85005464 179.43147659 238.45275879 C179.44548694 245.27887635 179.44173283 252.10470637 179.41507287 258.9307909 C179.40191455 262.41493369 179.39681575 265.89859676 179.41331863 269.38273621 C179.42691028 273.15635758 179.40993259 276.92861483 179.38491821 280.70214844 C179.39607182 281.8083617 179.40722543 282.91457497 179.41871703 284.05430984 C179.40567829 285.06302517 179.39263955 286.07174049 179.3792057 287.11102295 C179.37839394 287.98221142 179.37758218 288.85339989 179.37674582 289.75098801 C178.44516579 293.22740736 176.78468617 294.25892183 173.75 296.08984375 C170.81360626 296.59239107 170.81360626 296.59239107 167.49523926 296.59600163 C166.22737831 296.60704931 164.95951736 296.618097 163.65323639 296.62947947 C162.24863984 296.62152238 160.84404541 296.6131847 159.43945312 296.60450745 C157.9455166 296.60983221 156.45158543 296.6168975 154.95766449 296.6255545 C150.85112975 296.64421806 146.74495474 296.63786422 142.63840485 296.62740147 C138.21023902 296.62042 133.78214789 296.63639932 129.35400391 296.6493988 C120.678762 296.6710613 112.00365115 296.67090623 103.32839108 296.66277326 C96.27905446 296.65647837 89.22975612 296.65760559 82.18041992 296.66404533 C80.67658036 296.66539782 80.67658036 296.66539782 79.14236021 296.66677762 C77.10580253 296.66862878 75.06924485 296.67049134 73.03268719 296.67236518 C53.92719999 296.68895132 34.8217866 296.68021734 15.71630383 296.6633796 C-1.77201917 296.64868006 -19.26017039 296.6633132 -36.74847126 296.69214977 C-54.69665943 296.72152475 -72.64476827 296.73252171 -90.59297943 296.72296757 C-92.62212625 296.72194499 -94.65127308 296.72095038 -96.68041992 296.71998405 C-97.67884934 296.71950766 -98.67727876 296.71903127 -99.70596361 296.71854045 C-106.74842357 296.71637391 -113.79080862 296.72619307 -120.83325195 296.74075508 C-129.41341841 296.75824892 -137.99336579 296.75820348 -146.57352352 296.73540343 C-150.95293819 296.72423464 -155.33196644 296.72115806 -159.71136475 296.73970413 C-163.71846675 296.75645555 -167.72484374 296.75023133 -171.73189831 296.72548734 C-173.18337277 296.72058598 -174.63490512 296.72416882 -176.08633137 296.73697478 C-178.05591342 296.7531018 -180.02568572 296.73555311 -181.99523926 296.71625614 C-183.09030037 296.71598645 -184.18536148 296.71571676 -185.31360626 296.7154389 C-189.29246721 295.86774737 -190.78649398 294.27369886 -193.25 291.08984375 C-193.87674582 288.64717627 -193.87674582 288.64717627 -193.8792057 286.03762054 C-193.89224444 285.03798106 -193.90528318 284.03834157 -193.91871703 283.00840998 C-193.90756342 281.91746452 -193.89640981 280.82651906 -193.88491821 279.70251465 C-193.89661814 277.95567957 -193.89661814 277.95567957 -193.90855443 276.1735549 C-193.92504821 272.94473514 -193.91911233 269.71685512 -193.90362334 266.48805881 C-193.89231471 263.00466834 -193.90977004 259.52140534 -193.92352295 256.03804016 C-193.94576529 249.21563489 -193.94094987 242.39350452 -193.92645974 235.57108843 C-193.91517136 230.02679539 -193.91363485 224.48257943 -193.91907883 218.9382782 C-193.91984499 218.14942131 -193.92061116 217.36056442 -193.92140054 216.54780278 C-193.92299915 214.94529408 -193.92462022 213.34278541 -193.9262635 211.74027675 C-193.94052391 196.71076099 -193.92412374 181.68139767 -193.89726166 166.65190691 C-193.87492258 153.75370143 -193.87880263 140.85572095 -193.90185547 127.95751953 C-193.92860837 112.98208425 -193.93915058 98.00678261 -193.92379415 83.03132677 C-193.92220139 81.43468764 -193.92062954 79.83804848 -193.91907883 78.2414093 C-193.91830745 77.45581637 -193.91753607 76.67022345 -193.91674132 75.86082467 C-193.91242277 70.32268575 -193.91971417 64.78463154 -193.93147659 59.24650574 C-193.94549451 52.49802716 -193.94171686 45.74983938 -193.91507287 39.00139415 C-193.90192477 35.55762403 -193.8967984 32.1143389 -193.91331863 28.67057228 C-193.92692774 24.93895123 -193.90991123 21.20870562 -193.88491821 17.47717285 C-193.89607182 16.38622739 -193.90722543 15.29528193 -193.91871703 14.17127752 C-193.85684721 9.42791075 -193.80311895 6.885606 -191.04537392 2.91808796 C-187.98605819 0.91721923 -186.50554376 0.46145893 -182.88909912 0.4506073 C-181.28317209 0.42767373 -181.28317209 0.42767373 -179.64480209 0.40427685 C-177.88654791 0.41721767 -177.88654791 0.41721767 -176.09277344 0.43041992 C-174.21431921 0.41471561 -174.21431921 0.41471561 -172.29791641 0.39869404 C-168.80954927 0.37029913 -165.32179183 0.37316404 -161.83334351 0.38100815 C-158.03741084 0.38408787 -154.24165578 0.35830659 -150.44580078 0.33630371 C-142.93449417 0.29745444 -135.42337081 0.28573874 -127.91197348 0.28311336 C-121.76227656 0.28038781 -115.61267686 0.26753252 -109.4630127 0.24746704 C-108.58420858 0.24460097 -107.70540446 0.24173491 -106.79996991 0.23878199 C-105.00873016 0.2328847 -103.2174905 0.22695889 -101.42625093 0.22100508 C-85.10709347 0.16781581 -68.78798123 0.14101591 -52.46875 0.125 C-34.97905251 0.10767411 -17.48959017 0.06336784 0 0 Z M-176.25 17.08984375 C-176.25 103.54984375 -176.25 190.00984375 -176.25 279.08984375 C-64.38 279.08984375 47.49 279.08984375 162.75 279.08984375 C162.75 192.62984375 162.75 106.16984375 162.75 17.08984375 C50.88 17.08984375 -60.99 17.08984375 -176.25 17.08984375 Z " fill="#060302" transform="translate(333.25,215.91015625)"/>
<path d="M0 0 C1.43845027 1.20360125 2.85450394 2.43434962 4.25 3.6875 C5.48169922 4.77998047 5.48169922 4.77998047 6.73828125 5.89453125 C19.55940623 17.93743924 28.31105736 34.74251267 29.42483521 52.47032166 C29.47929275 55.44319092 29.47539586 58.409608 29.4453125 61.3828125 C29.4424826 62.45626923 29.43965271 63.52972595 29.43673706 64.63571167 C29.42563822 68.02809305 29.40055314 71.42019987 29.375 74.8125 C29.36495688 77.12760032 29.35583338 79.44270483 29.34765625 81.7578125 C29.32573273 87.40113364 29.29235932 93.0442972 29.25 98.6875 C30.65821518 98.67750725 30.65821518 98.67750725 32.09487915 98.66731262 C40.95209149 98.60643758 49.80926126 98.5614967 58.66663551 98.53206348 C63.22006592 98.51642274 67.77332712 98.4952136 72.32666016 98.46118164 C76.72275831 98.42853134 81.11869395 98.41063501 85.51490402 98.40286827 C87.1902052 98.39733493 88.86549772 98.38652961 90.54072952 98.37030983 C92.89144199 98.34845982 95.2414871 98.34553618 97.59228516 98.34692383 C98.28136963 98.336138 98.9704541 98.32535217 99.68041992 98.3142395 C104.24865766 98.34332502 107.37256877 99.28094093 111.25 101.6875 C112.72984524 104.64719048 112.41006912 107.32492287 112.44287109 110.62817383 C112.45104858 111.34219864 112.45922607 112.05622345 112.46765137 112.79188538 C112.49250302 115.15942545 112.5090208 117.52690557 112.5234375 119.89453125 C112.52876118 120.70286596 112.53408485 121.51120068 112.53956985 122.34403038 C112.56630064 126.62265449 112.5856756 130.90124943 112.60009766 135.17993164 C112.61674436 139.59871769 112.66152169 144.01675772 112.7124691 148.43526173 C112.74613005 151.83335728 112.75767375 155.2312755 112.76332474 158.62952232 C112.77004062 160.25823352 112.78527165 161.88693291 112.80921555 163.51548195 C112.84084751 165.79715324 112.84090812 168.07680946 112.83349609 170.35864258 C112.84158295 171.65610916 112.8496698 172.95357574 112.85800171 174.2903595 C112.09047033 178.57885393 110.67609244 180.07313936 107.25 182.6875 C103.6875 182.8125 103.6875 182.8125 100.25 181.6875 C97.64168565 179.08109694 96.37363604 177.4372739 95.76898193 173.77043152 C95.77786438 172.69787613 95.78674683 171.62532074 95.79589844 170.52026367 C95.79638184 169.28240112 95.79686523 168.04453857 95.79736328 166.76916504 C95.81782715 165.47764526 95.83829102 164.18612549 95.859375 162.85546875 C95.86340332 161.66135376 95.86743164 160.46723877 95.87158203 159.23693848 C95.89248617 154.78280234 95.94833159 150.3288855 96 145.875 C96.0825 135.913125 96.165 125.95125 96.25 115.6875 C74.14 115.6875 52.03 115.6875 29.25 115.6875 C29.25 123.2775 29.25 130.8675 29.25 138.6875 C31.56 138.6875 33.87 138.6875 36.25 138.6875 C38.6875 140.1875 38.6875 140.1875 40.25 142.6875 C40.85921535 145.49218955 41.11557371 147.93486809 40.25 150.6875 C35.34509259 155.51457859 31.33944922 155.23299991 24.74609375 155.28320312 C23.42738281 155.27224609 22.10867187 155.26128906 20.75 155.25 C19.43128906 155.27384766 18.11257812 155.29769531 16.75390625 155.32226562 C15.48417969 155.32033203 14.21445313 155.31839844 12.90625 155.31640625 C11.74931641 155.31713135 10.59238281 155.31785645 9.40039062 155.31860352 C5.30388376 154.49796881 3.80871466 152.92745769 1.25 149.6875 C0.62508477 145.72970351 0.63993161 143.67886114 2.75 140.25 C5.25 138.6875 5.25 138.6875 13.25 138.6875 C13.25 131.0975 13.25 123.5075 13.25 115.6875 C-25.03 115.6875 -63.31 115.6875 -102.75 115.6875 C-102.75 123.2775 -102.75 130.8675 -102.75 138.6875 C-100.44 138.6875 -98.13 138.6875 -95.75 138.6875 C-92.8125 140.25 -92.8125 140.25 -90.75 142.6875 C-90.1875 146.1875 -90.1875 146.1875 -90.75 149.6875 C-92.61708505 152.05247439 -94.07061431 153.34780715 -96.75 154.6875 C-101.34842191 154.9869571 -105.95548417 154.96563638 -110.5625 155 C-111.84705078 155.02900391 -113.13160156 155.05800781 -114.45507812 155.08789062 C-116.31229492 155.10045898 -116.31229492 155.10045898 -118.20703125 155.11328125 C-119.9082312 155.13515503 -119.9082312 155.13515503 -121.64379883 155.1574707 C-125.44601456 154.58219244 -127.06878606 153.40202847 -129.75 150.6875 C-130.875 147.25 -130.875 147.25 -130.75 143.6875 C-128.75 140.75 -128.75 140.75 -125.75 138.6875 C-123.44 138.6875 -121.13 138.6875 -118.75 138.6875 C-118.75 131.0975 -118.75 123.5075 -118.75 115.6875 C-140.86 115.6875 -162.97 115.6875 -185.75 115.6875 C-185.75 236.4675 -185.75 357.2475 -185.75 481.6875 C-153.08 481.6875 -120.41 481.6875 -86.75 481.6875 C-81.75 486.6875 -81.75 486.6875 -81.125 489.6875 C-81.9971536 493.87383728 -83.33098405 495.11226123 -86.75 497.6875 C-90.27642963 498.42568277 -93.74381472 498.36048817 -97.3359375 498.31860352 C-98.40152893 498.32575882 -99.46712036 498.33291412 -100.56500244 498.34028625 C-104.08543843 498.35718739 -107.60460361 498.33776089 -111.125 498.31640625 C-113.57210394 498.31723481 -116.01920782 498.3196937 -118.46630859 498.32371521 C-123.59424599 498.32657421 -128.72174685 498.3118612 -133.84960938 498.28442383 C-140.42390297 498.25034168 -146.99741587 498.25635874 -153.57174683 498.2750864 C-158.62465932 498.28565303 -163.67739005 498.27672147 -168.73028564 498.26170158 C-171.15439311 498.25651689 -173.57851954 498.25700503 -176.00262451 498.26324654 C-179.390186 498.26869438 -182.77662848 498.24833551 -186.1640625 498.22094727 C-187.16681213 498.22747314 -188.16956177 498.23399902 -189.20269775 498.24072266 C-190.12790222 498.2279982 -191.05310669 498.21527374 -192.00634766 498.2021637 C-192.80642242 498.19935678 -193.60649719 498.19654985 -194.43081665 498.19365788 C-197.75365296 497.46845443 -199.34594237 496.07639583 -201.75 493.6875 C-202.37559515 490.69461727 -202.37559515 490.69461727 -202.37641239 487.1157074 C-202.38338 486.45382467 -202.39034761 485.79194194 -202.39752635 485.11000216 C-202.41483482 482.88191436 -202.39637403 480.6555507 -202.37818909 478.42749023 C-202.38323197 476.81820859 -202.39045879 475.20893254 -202.39968723 473.59966946 C-202.41867348 469.16962784 -202.40634014 464.74013576 -202.3889643 460.31010771 C-202.37562715 455.53565734 -202.39101422 450.76128935 -202.40278625 445.98684692 C-202.42119458 436.6306397 -202.41262926 427.2746409 -202.39469803 417.9184401 C-202.38068964 410.31653255 -202.37677543 402.71468168 -202.3801403 395.11276245 C-202.38061775 394.03206842 -202.38109519 392.95137439 -202.3815871 391.83793205 C-202.3826134 389.6427311 -202.38366875 387.44753016 -202.38475286 385.25232923 C-202.39332639 365.82800843 -202.37662377 346.40378845 -202.34692383 326.97949219 C-202.31808487 308.11812098 -202.31100205 289.25689502 -202.32641602 270.39550781 C-202.34316554 249.87165785 -202.34722514 229.3478769 -202.32970566 208.82402515 C-202.32786121 206.63676263 -202.32602648 204.44950009 -202.32420158 202.26223755 C-202.32328949 201.18597734 -202.3223774 200.10971714 -202.32143768 199.00084299 C-202.31582451 191.40540655 -202.31914672 183.81000372 -202.32574654 176.21456909 C-202.3334668 166.96206675 -202.3267744 157.70970757 -202.3015715 148.45723414 C-202.28904602 143.73371775 -202.2829667 139.01042456 -202.29411316 134.28689957 C-202.30411591 129.96656229 -202.29578121 125.64667121 -202.27253198 121.32638848 C-202.2673505 119.75983297 -202.2689742 118.19323783 -202.27792663 116.62669933 C-202.28905394 114.50369011 -202.27576579 112.38220755 -202.25615788 110.2592926 C-202.25496639 109.07825234 -202.25377491 107.89721209 -202.25254732 106.68038273 C-201.6431631 103.05124087 -200.63730623 101.89967247 -197.75 99.6875 C-194.23675808 98.51641936 -191.08634942 98.55520642 -187.43286133 98.57397461 C-186.69115189 98.57382858 -185.94944244 98.57368256 -185.18525696 98.5735321 C-182.73415195 98.57422866 -180.28312298 98.58200903 -177.83203125 98.58984375 C-176.13238059 98.59170884 -174.43272939 98.59313232 -172.733078 98.59413147 C-168.25980139 98.59794945 -163.78655724 98.60777362 -159.31329346 98.61883545 C-154.74858031 98.62906501 -150.18386193 98.6336324 -145.61914062 98.63867188 C-136.66274615 98.64939651 -127.70637578 98.66646433 -118.75 98.6875 C-118.75999275 97.79119621 -118.75999275 97.79119621 -118.77018738 96.87678528 C-118.83710719 90.59768107 -118.88203297 84.31867989 -118.91479492 78.03930664 C-118.9297826 75.70300169 -118.95017967 73.36672438 -118.97631836 71.03051758 C-119.30211308 41.14044879 -119.30211308 41.14044879 -111.9375 27.375 C-111.4108374 26.35901733 -111.4108374 26.35901733 -110.87353516 25.32250977 C-108.26510239 20.39711909 -105.37304177 15.93278163 -101.75 11.6875 C-101.31558594 11.11128906 -100.88117188 10.53507812 -100.43359375 9.94140625 C-76.94558485 -20.10450827 -29.16688365 -21.62020746 0 0 Z M-89.75 23.6875 C-107.39363906 44.55554127 -101.75 73.43787441 -101.75 98.6875 C-64.13 98.6875 -26.51 98.6875 12.25 98.6875 C14.69387567 53.56830151 14.69387567 53.56830151 -5.08984375 18.125 C-17.17387036 7.05241174 -31.93660501 2.29408035 -48.1015625 2.48046875 C-64.80548857 3.42833608 -78.61160338 11.71584928 -89.75 23.6875 Z " fill="#000000" transform="translate(201.75,14.3125)"/>
<path d="M0 0 C12.21 0 24.42 0 37 0 C37.00546844 5.68829292 37.00546844 5.68829292 37.01104736 11.49150085 C37.04635035 46.29496206 37.10141058 81.09834733 37.17792095 115.90174315 C37.18793799 120.46647754 37.19778219 125.03121228 37.20751953 129.59594727 C37.2094609 130.50467474 37.21140228 131.41340221 37.21340248 132.34966687 C37.24439378 147.04899531 37.26139511 161.74830815 37.27319422 176.44766309 C37.28562066 191.53908588 37.31315573 206.63042702 37.35461307 221.72179824 C37.37970576 231.02829768 37.39312037 240.33466165 37.39142957 249.64119539 C37.39139974 256.02961684 37.40609218 262.41790064 37.43216428 268.80626842 C37.44676098 272.48787446 37.45505585 276.16919827 37.44580269 279.85082817 C37.43591376 283.85338883 37.45712503 287.85521025 37.48101807 291.85771179 C37.47325765 293.00658408 37.46549723 294.15545637 37.45750165 295.33914298 C37.61074287 309.90774535 42.7342859 323.50097421 53 334 C61.44258606 340.84616979 71.557858 346.99149727 82.67675781 347.20532227 C83.59741028 347.22526749 84.51806274 347.24521271 85.46661377 347.26576233 C86.45216248 347.28247482 87.43771118 347.29918732 88.453125 347.31640625 C89.97616241 347.3475779 89.97616241 347.3475779 91.52996826 347.37937927 C94.76991073 347.44470597 98.00993348 347.50368137 101.25 347.5625 C103.44792493 347.60570126 105.64584178 347.64931607 107.84375 347.69335938 C113.2290856 347.80114744 118.61448312 347.90034673 124 348 C124 356.58 124 365.16 124 374 C117.4 374 110.8 374 104 374 C103.01 372.02 102.02 370.04 101 368 C70.88171467 352.94085734 33.67154896 366.34011666 0 366 C0 245.22 0 124.44 0 0 Z " fill="#FEAF43" transform="translate(16,130)"/>
<path d="M0 0 C1.2271875 0.00580078 2.454375 0.01160156 3.71875 0.01757812 C13.95876868 0.15762214 13.95876868 0.15762214 17.375 2.4375 C19.8849972 6.20249581 19.98976744 7.98043606 19.375 12.4375 C14.8654661 17.36652542 14.8654661 17.36652542 10.66796875 17.56640625 C9.91128906 17.52386719 9.15460938 17.48132813 8.375 17.4375 C8.88280489 37.40180717 10.41084178 55.04727545 24.96875 70.1875 C37.17474472 81.60089766 51.52691418 86.11496453 68.06640625 85.78125 C81.19999036 85.07148639 93.90278948 78.32114905 103.375 69.4375 C112.25582198 58.83592762 118.09088491 46.33903709 118.69140625 32.35546875 C118.73330078 31.42412109 118.77519531 30.49277344 118.81835938 29.53320312 C118.85767578 28.57349609 118.89699219 27.61378906 118.9375 26.625 C119.00227539 25.15643555 119.00227539 25.15643555 119.06835938 23.65820312 C119.1740226 21.25142973 119.27612327 18.84456017 119.375 16.4375 C118.10785156 16.48003906 116.84070313 16.52257812 115.53515625 16.56640625 C112.12397729 16.68092192 111.62716307 16.64046052 108.8125 14.375 C106.91049048 10.4882849 107.1043643 8.54838021 108.375 4.4375 C110.99740154 1.80774868 112.65248925 0.55968232 116.34179688 -0.06420898 C117.95151367 -0.06142944 117.95151367 -0.06142944 119.59375 -0.05859375 C121.36298828 -0.05956055 121.36298828 -0.05956055 123.16796875 -0.06054688 C125.00294922 -0.03057617 125.00294922 -0.03057617 126.875 0 C128.70998047 -0.01063477 128.70998047 -0.01063477 130.58203125 -0.02148438 C140.7677386 0.05087311 140.7677386 0.05087311 145.375 3.4375 C146.92086876 6.52923752 146.66859521 9.03179552 146.375 12.4375 C144.8125 14.8125 144.8125 14.8125 142.375 16.4375 C140.04931197 16.8205545 137.71550344 17.15893366 135.375 17.4375 C135.40118408 18.00968262 135.42736816 18.58186523 135.4543457 19.17138672 C136.36405466 42.24344828 132.06654435 61.7342192 116.375 79.4375 C115.85550781 80.05109375 115.33601562 80.6646875 114.80078125 81.296875 C106.26445317 90.67178443 94.28350863 96.65853326 82.375 100.4375 C81.65570313 100.68242187 80.93640625 100.92734375 80.1953125 101.1796875 C63.17385001 106.01457762 44.26927704 101.80438898 29.140625 93.60546875 C11.86128291 83.83907324 -0.09700012 69.22870102 -6.24389648 50.34912109 C-9.15835921 39.47658118 -8.02231245 27.57691874 -7.625 16.4375 C-8.8934375 16.48132813 -10.161875 16.52515625 -11.46875 16.5703125 C-14.90240969 16.68895521 -15.35074281 16.67061861 -18.125 14.3125 C-19.91452585 10.88257546 -20.41735586 9.24080813 -19.625 5.4375 C-14.24972027 -1.09922409 -7.97208751 -0.21489242 0 0 Z " fill="#050201" transform="translate(262.625,258.5625)"/>
</svg>
