<?xml version="1.0" encoding="UTF-8"?>
<svg version="1.1" xmlns="http://www.w3.org/2000/svg" width="512" height="512">
<path d="M0 0 C68.44432442 27.62074141 138.49713508 25.94342876 206.5625 -2.97265625 C213.68032898 -6.06325857 220.75156815 -9.25479173 227.78051758 -12.54248047 C228.75529053 -12.99510254 229.73006348 -13.44772461 230.734375 -13.9140625 C232.04293457 -14.52822021 232.04293457 -14.52822021 233.37792969 -15.15478516 C236.7676288 -16.54122652 239.15362909 -16.83017077 242.75 -16.125 C245.95613573 -14.22506771 248.14902918 -12.79025993 249.44921875 -9.1875 C250.03260861 -5.87535114 249.92536082 -3.62770103 248.8125 -0.4375 C244.02197674 4.93369275 237.33800534 7.64672326 230.9375 10.6875 C229.94991699 11.15905518 229.94991699 11.15905518 228.94238281 11.64013672 C226.03124255 12.98794227 223.99686252 13.875 220.75 13.875 C220.75 22.125 220.75 30.375 220.75 38.875 C226.69526994 35.9283399 226.69526994 35.9283399 232.62524414 32.95117188 C237.482249 30.5971411 241.23068143 29.10745886 246.75 29.875 C249.79172389 31.46251327 252.20151837 33.77803675 253.75 36.875 C254.2162063 40.91545458 254.17969903 43.16574965 252.05078125 46.6796875 C247.72049078 51.58817016 241.35506995 53.97458979 235.5625 56.75 C234.34901258 57.34774831 233.1361157 57.94669703 231.92382812 58.546875 C223.07311168 62.875 223.07311168 62.875 220.75 62.875 C221.08 73.435 221.41 83.995 221.75 94.875 C227.28209509 91.89290436 227.28209509 91.89290436 232.78686523 88.86108398 C237.73423536 86.29146732 241.2802409 85.44907393 246.81835938 86.24389648 C250.59576091 87.47804499 251.78279015 89.44824736 253.75 92.875 C254.50060757 97.07840236 254.2739034 99.02291109 252.03515625 102.6640625 C247.72486625 107.59582186 241.35670492 109.97380643 235.5625 112.75 C234.34901258 113.34774831 233.1361157 113.94669703 231.92382812 114.546875 C223.07311168 118.875 223.07311168 118.875 220.75 118.875 C220.75 128.445 220.75 138.015 220.75 147.875 C226.69526994 144.9283399 226.69526994 144.9283399 232.62524414 141.95117188 C237.49365461 139.59161317 241.21757468 138.14760147 246.75 138.875 C249.95613573 140.77493229 252.14902918 142.20974007 253.44921875 145.8125 C254.03260861 149.12464886 253.92536082 151.37229897 252.8125 154.5625 C247.53238463 160.48262935 239.37649835 163.71759443 232.375 167.1875 C231.47394531 167.64189453 230.57289063 168.09628906 229.64453125 168.56445312 C228.35482422 169.20737305 228.35482422 169.20737305 227.0390625 169.86328125 C226.26256348 170.25040283 225.48606445 170.63752441 224.68603516 171.03637695 C222.75 171.875 222.75 171.875 220.75 171.875 C220.75 179.795 220.75 187.715 220.75 195.875 C224.1840625 194.1115625 224.1840625 194.1115625 227.6875 192.3125 C233.81973429 189.34447739 237.99005854 187.76944446 244.75 189.875 C247.44207751 191.55754844 248.40216939 192.71232147 249.30859375 195.7421875 C249.91922972 199.07865209 249.9377131 201.3368891 248.8125 204.5625 C222.14356717 234.46403075 153.75760079 244.18198113 116.0625 247.5625 C68.597233 250.26835845 26.19728287 240.12875297 -17.52539062 222.31689453 C-42.92668357 211.9689062 -68.58098252 203.64825322 -96.25 202.875 C-97.36246094 202.83503906 -98.47492188 202.79507813 -99.62109375 202.75390625 C-141.50684641 201.97399629 -185.47402035 214.07734655 -221.78515625 235 C-223.11691895 235.76630737 -223.11691895 235.76630737 -224.47558594 236.5480957 C-226.15221111 237.52960816 -227.81671972 238.53224005 -229.46582031 239.55932617 C-234.38304882 242.4593237 -237.68041379 243.34654493 -243.36010742 242.47045898 C-246.60420803 241.44832213 -247.7099815 239.82670212 -249.25 236.875 C-250.23064166 233.21393779 -250.60589134 230.91725322 -249.375 227.3125 C-243.14570587 220.1671332 -233.50471966 216.21958929 -225.25 211.875 C-225.25 202.305 -225.25 192.735 -225.25 182.875 C-229.21 184.855 -233.17 186.835 -237.25 188.875 C-241.73005417 188.99944595 -243.95034479 188.70811231 -247.6875 186.3125 C-249.80113078 183.01523598 -250.62885736 179.74623339 -250.25 175.875 C-249.44921875 172.91015625 -249.44921875 172.91015625 -247.25 169.875 C-244.63168064 168.54090262 -241.94700993 167.5221087 -239.21142578 166.45019531 C-233.91848713 164.28478804 -229.15859164 162.1488062 -225.25 157.875 C-222.22564207 149.30904343 -223.25051212 139.76228695 -224.25 130.875 C-225.07129395 131.30014893 -225.89258789 131.72529785 -226.73876953 132.16333008 C-227.81755371 132.71400146 -228.89633789 133.26467285 -230.0078125 133.83203125 C-231.07660645 134.38093018 -232.14540039 134.9298291 -233.24658203 135.49536133 C-236.92469146 137.1849237 -239.26993045 137.7506153 -243.25 136.875 C-246.45613573 134.97506771 -248.64902918 133.54025993 -249.94921875 129.9375 C-250.52281785 126.68093737 -250.42429055 124.39787165 -249.375 121.25 C-243.3555618 114.5223926 -234.39468285 110.45815221 -226.25 106.875 C-225.59 106.875 -224.93 106.875 -224.25 106.875 C-224.25 96.315 -224.25 85.755 -224.25 74.875 C-228.21 76.855 -232.17 78.835 -236.25 80.875 C-241.28563451 81.00089086 -243.5955937 80.90900394 -247.75 78.3125 C-249.85521653 74.89152315 -250.41832613 71.87474958 -250.25 67.875 C-247.77578041 60.45234123 -238.28951618 56.80857197 -231.8125 53.5 C-226.54230769 50.875 -226.54230769 50.875 -224.25 50.875 C-224.745 41.47 -224.745 41.47 -225.25 31.875 C-227.065 32.885625 -228.88 33.89625 -230.75 34.9375 C-236.30928102 37.71058476 -239.30931076 38.78450725 -245.25 36.875 C-248.02262674 35.16876816 -248.96852362 33.92076293 -249.8125 30.78515625 C-250.39291709 27.1515034 -250.64342648 24.82393877 -249.20703125 21.359375 C-246.64694224 18.10944165 -243.59862538 16.44719009 -240 14.5625 C-239.28110596 14.17497559 -238.56221191 13.78745117 -237.8215332 13.38818359 C-236.33825484 12.5899587 -234.85231475 11.79666036 -233.36376953 11.00830078 C-231.49404818 10.00584681 -229.64915768 8.95737756 -227.80859375 7.90234375 C-154.56672402 -33.42881565 -75.81011061 -30.60608513 0 0 Z M-140.25 -0.125 C-140.25 60.595 -140.25 121.315 -140.25 183.875 C-125.895 182.885 -125.895 182.885 -111.25 181.875 C-70.59548069 181.875 -35.30476293 191.83117443 2.01400757 206.98162842 C46.55247091 225.04795856 94.07614256 232.93384581 141.75 222.875 C143.41749941 221.20750059 142.87214776 219.18304249 142.87908131 216.95623869 C142.87471205 215.89254264 142.87471205 215.89254264 142.87025452 214.80735779 C142.87110894 214.05921328 142.87196337 213.31106877 142.87284368 212.54025322 C142.87450073 210.01436053 142.86897348 207.48853314 142.86352539 204.96264648 C142.86324354 203.15956626 142.86340121 201.35648592 142.8639679 199.55340576 C142.86425596 194.64245461 142.85835784 189.73152766 142.85139394 184.82058215 C142.84516184 179.69427788 142.84455672 174.56797312 142.84336853 169.44166565 C142.84025479 159.72709374 142.83204083 150.01253303 142.82201904 140.29796606 C142.81085923 129.24132283 142.80534779 118.18467907 142.80032361 107.12803161 C142.78985825 84.37701486 142.77225798 61.62600805 142.75 38.875 C140.49935311 39.03539228 138.24871367 39.19588894 135.99807739 39.35643005 C134.11808894 39.49047823 134.11808894 39.49047823 132.20012093 39.62723446 C128.69257929 39.87912359 125.18594614 40.14101736 121.6796875 40.41015625 C119.328125 40.5859375 116.9765625 40.76171875 114.625 40.9375 C113.45324219 41.02837891 112.28148437 41.11925781 111.07421875 41.21289062 C68.03521096 44.38946556 27.87343872 34.31625244 -11.73193359 18.29345703 C-53.40173298 1.49251779 -95.11495291 -9.15200942 -140.25 -0.125 Z M-176.0625 9 C-177.23232422 9.37898438 -178.40214844 9.75796875 -179.60742188 10.1484375 C-180.77466797 10.53515625 -181.94191406 10.921875 -183.14453125 11.3203125 C-184.19487549 11.66594238 -185.24521973 12.01157227 -186.32739258 12.36767578 C-192.08777107 14.58119273 -197.64695493 17.2889792 -203.25 19.875 C-203.25 79.935 -203.25 139.995 -203.25 201.875 C-200.28 200.885 -197.31 199.895 -194.25 198.875 C-192.22945178 198.22421799 -190.20747775 197.57783264 -188.18359375 196.9375 C-186.5893457 196.43089844 -186.5893457 196.43089844 -184.96289062 195.9140625 C-182.7757475 195.22022819 -180.58824577 194.52752332 -178.40039062 193.8359375 C-176.80807617 193.32933594 -176.80807617 193.32933594 -175.18359375 192.8125 C-174.23540771 192.51214844 -173.28722168 192.21179688 -172.31030273 191.90234375 C-168.59072436 190.65368114 -164.92375546 189.2526583 -161.25 187.875 C-161.25 127.485 -161.25 67.095 -161.25 4.875 C-166.21914785 4.875 -171.39007007 7.4499754 -176.0625 9 Z M193.53515625 24.51953125 C192.45556641 24.86693359 191.37597656 25.21433594 190.26367188 25.57226562 C189.12478516 25.94029297 187.98589844 26.30832031 186.8125 26.6875 C184.59534568 27.40325385 182.37790093 28.11810872 180.16015625 28.83203125 C179.17152588 29.15147705 178.18289551 29.47092285 177.16430664 29.80004883 C172.70681086 31.20343488 168.22610999 32.532167 163.75 33.875 C163.75 94.265 163.75 154.655 163.75 216.875 C172.00113915 215.26075307 172.00113915 215.26075307 179.90625 212.96484375 C181.46859375 212.43987305 181.46859375 212.43987305 183.0625 211.90429688 C184.114375 211.54400391 185.16625 211.18371094 186.25 210.8125 C187.87421875 210.26625977 187.87421875 210.26625977 189.53125 209.70898438 C194.73525006 208.02461415 194.73525006 208.02461415 199.75 205.875 C199.75 145.485 199.75 85.095 199.75 22.875 C197.65039757 22.875 195.50275853 23.88396898 193.53515625 24.51953125 Z " fill="#1C1C1A" transform="translate(254.25,144.125)"/>
<path d="M0 0 C5.08014719 4.54185345 7.76170171 9.0451012 8.3125 15.875 C8.13066283 22.31203565 5.28257543 27.31593312 1 32 C0.01 32.66 -0.98 33.32 -2 34 C2.455 35.98 2.455 35.98 7 38 C6.938125 36.68 6.87625 35.36 6.8125 34 C6.84811346 28.32855582 7.70294736 23.55795244 11.58203125 19.23828125 C16.87514063 14.47563599 21.51142035 12.49718424 28.66015625 12.6875 C34.01063599 13.40208828 38.28400018 15.8850002 41.875 19.875 C45.43665808 25.11273248 46.73789267 29.67520565 46 36 C43.94768864 42.09011465 41.22034966 47.0859622 35.46875 50.23828125 C30.4329292 51.79205507 25.20221127 51.356859 20 51 C21.32 54.3 22.64 57.6 24 61 C24.86625 59.906875 25.7325 58.81375 26.625 57.6875 C30.26151766 53.52907472 33.1398812 51.31912065 38.80078125 50.6875 C45.45654208 50.4222642 49.69302911 50.90920994 55 55 C60.1144926 60.52918119 61.46519496 64.74626523 61.31640625 72.17578125 C60.69756207 77.69953859 58.51355543 81.48644457 54.625 85.375 C49.33540362 88.64951204 44.19382934 89.7682269 38 89 C31.49807584 86.90616002 27.75550676 83.63326014 24 78 C22.35 81.63 20.7 85.26 19 89 C19.99 88.67 20.98 88.34 22 88 C28.76342725 87.26719527 34.47947372 87.79213219 40 92 C44.80521971 97.15186491 46.33311164 101.84427096 46.21484375 108.9140625 C45.58812145 114.99896628 42.57000587 119.17394857 38 123 C32.68341917 126.67097248 27.24867374 126.80950795 21 126 C15.59457132 124.21166191 12.24517131 120.48597211 9 116 C7.85922343 112.57767028 7.90184883 109.91326783 7.9375 106.3125 C7.94652344 105.13300781 7.95554687 103.95351563 7.96484375 102.73828125 C7.97644531 101.83464844 7.98804688 100.93101562 8 100 C4.37 101.65 0.74 103.3 -3 105 C-1.63875 105.7734375 -1.63875 105.7734375 -0.25 106.5625 C4.31704893 109.58560568 6.28647801 113.85943404 8 119 C8.4761585 126.14237743 7.44791694 131.08896364 2.6875 136.75 C-2.7828789 141.3298521 -7.18490639 142.61971696 -14.24609375 142.41796875 C-19.94328193 141.55328913 -23.60709543 138.50005108 -27.4375 134.375 C-30.95105476 129.03439677 -30.4421656 123.17394189 -30 117 C-28.26384225 111.69507354 -25.3547618 109.24290772 -21 106 C-20.34 105.67 -19.68 105.34 -19 105 C-22.63 103.35 -26.26 101.7 -30 100 C-29.9175 101.815 -29.835 103.63 -29.75 105.5 C-29.7567859 111.25444317 -30.5350579 115.35765039 -34 120 C-39.77099413 125.48244443 -44.29268671 126.41259908 -52.09375 126.2421875 C-57.71847124 125.77346073 -60.65954945 123.56551908 -64.3125 119.5 C-68.3206805 114.70280759 -68.40256642 110.16217858 -68.34375 104.08203125 C-67.8268687 99.44772054 -66.14155954 96.39517503 -63 93 C-58.55271349 89.53111652 -55.12488629 87.85312671 -49.5 87.9375 C-48.7265625 87.94652344 -47.953125 87.95554687 -47.15625 87.96484375 C-46.4446875 87.97644531 -45.733125 87.98804688 -45 88 C-44.01 88 -43.02 88 -42 88 C-43.65 85.03 -45.3 82.06 -47 79 C-47.845625 80.093125 -48.69125 81.18625 -49.5625 82.3125 C-53.16032741 86.46513257 -56.62570727 88.51273751 -62.1640625 89.3125 C-67.899597 89.62785585 -72.31372905 88.32541061 -77 85 C-81.65217728 80.69024186 -83.8058868 76.40700369 -84.3125 70.125 C-84.13321673 63.77837242 -81.38437454 58.50964239 -77 54 C-71.42453937 49.85414466 -64.64113356 50.13341306 -58 51 C-52.78527683 52.96766728 -49.34747985 55.86488783 -47 61 C-45.68 57.7 -44.36 54.4 -43 51 C-44.7015625 51.3403125 -44.7015625 51.3403125 -46.4375 51.6875 C-51.46018616 52.30197756 -55.49424048 51.23995693 -60 49 C-64.84579461 44.99695228 -67.86959115 40.92317403 -68.875 34.6875 C-69.37168476 28.59550932 -67.45829972 24.18744958 -64.125 19.1875 C-59.80867974 14.74422914 -55.78622759 13.2143252 -49.75 12.75 C-43.49057789 13.16729481 -38.91960743 14.58947674 -34.625 19.3125 C-30.0551704 25.26072929 -29.7095562 30.73890493 -30 38 C-28.906875 37.505 -27.81375 37.01 -26.6875 36.5 C-23 35 -23 35 -20 35 C-20 34.34 -20 33.68 -20 33 C-20.721875 32.835 -21.44375 32.67 -22.1875 32.5 C-26.80059974 30.03968014 -29.05662714 25.92790723 -30.640625 21.01171875 C-31.85491342 14.42552397 -29.70827677 8.61935772 -26.125 3.125 C-18.88949111 -4.11050889 -8.85974659 -5.1217602 0 0 Z M-22.9375 59.625 C-25.49824765 63.81531434 -26.29005207 67.11306208 -26 72 C-24.31144423 77.16499412 -21.50714471 80.02358368 -17 83 C-12.56112265 84.58071823 -9.04255584 84.33643734 -4.75 82.4375 C-0.95308729 80.24007414 1.15875938 78.06607303 3 74 C3.81776482 69.33192582 3.50478078 65.35744411 1.3125 61.125 C-1.69969268 57.05446935 -4.0421983 55.60909386 -8.8125 54.125 C-14.66980404 53.8953018 -18.6030984 55.75170495 -22.9375 59.625 Z M26 106 C27 108 27 108 27 108 Z M-12 122 C-11 124 -11 124 -11 124 Z " fill="#1C1C1A" transform="translate(272,187)"/>
</svg>
