<?xml version="1.0" encoding="UTF-8"?>
<svg version="1.1" xmlns="http://www.w3.org/2000/svg" width="500" height="500">
<path d="M0 0 C165 0 330 0 500 0 C500 165 500 330 500 500 C335 500 170 500 0 500 C0 335 0 170 0 0 Z " fill="#FEFEFE" transform="translate(0,0)"/>
<path d="M0 0 C0.67515656 -0.00686325 1.35031311 -0.0137265 2.04592896 -0.02079773 C4.27839174 -0.03910232 6.51015403 -0.03522266 8.74267578 -0.02954102 C10.29582956 -0.03410183 11.84898131 -0.0394071 13.40213013 -0.04542542 C16.65879508 -0.05436421 19.91521494 -0.05192567 23.171875 -0.04199219 C27.34062598 -0.03051446 31.50852841 -0.05069081 35.67716789 -0.07990932 C38.88572548 -0.09827974 42.09408016 -0.09797703 45.30267715 -0.0922718 C46.83923659 -0.09211862 48.3758098 -0.09816064 49.91231918 -0.11056328 C52.06447835 -0.12548456 54.21507634 -0.11478972 56.3671875 -0.09765625 C57.59057831 -0.09749008 58.81396912 -0.09732391 60.07443237 -0.09715271 C63.98514804 0.50807753 65.62521973 1.52338131 68.31298828 4.40405273 C69.09544373 6.85452271 69.09544373 6.85452271 69.31298828 9.40405273 C69.40278458 10.17780243 69.49258087 10.95155212 69.58509827 11.74874878 C69.65393723 12.55651764 69.72277618 13.3642865 69.79370117 14.1965332 C69.87370865 15.12295624 69.95371613 16.04937927 70.03614807 17.00387573 C70.1184819 17.99960602 70.20081573 18.9953363 70.28564453 20.02124023 C70.37301376 21.06941925 70.460383 22.11759827 70.55039978 23.19754028 C70.7344329 25.42492972 70.91672564 27.65246354 71.09741211 29.88012695 C71.36945538 33.2053126 71.65446258 36.52921653 71.93994141 39.85327148 C72.84027315 50.65222097 73.542547 61.45052957 73.74658203 72.28686523 C73.78115005 73.24938202 73.81571808 74.2118988 73.85133362 75.20358276 C73.8572905 76.09360992 73.86324738 76.98363708 73.86938477 77.90063477 C73.88323715 78.67698273 73.89708954 79.45333069 73.91136169 80.25320435 C72.96811961 83.64368038 71.29708667 84.63635657 68.31298828 86.40405273 C65.56067681 86.79115159 63.21170399 86.95235646 60.46508789 86.92163086 C59.69049728 86.92864014 58.91590668 86.93564941 58.11784363 86.94287109 C55.56663793 86.96042512 53.01654829 86.94883937 50.46533203 86.93530273 C48.6884388 86.93799814 46.911547 86.94188096 45.13465881 86.94689941 C41.41490605 86.95279069 37.69553805 86.94424257 33.97583008 86.92553711 C29.20843152 86.90273097 24.44193289 86.91588321 19.67456722 86.93982697 C16.00709755 86.95428088 12.33984129 86.94968115 8.67236519 86.9393158 C6.91449438 86.93664824 5.15660418 86.9399193 3.39875603 86.94923401 C0.94247974 86.95939503 -1.5123382 86.94390714 -3.96850586 86.92163086 C-4.69432861 86.92972778 -5.42015137 86.93782471 -6.16796875 86.94616699 C-9.59726684 86.88855637 -11.38806713 86.63457922 -14.13905334 84.51319885 C-15.98413181 81.99921647 -16.17887567 80.74248827 -16.14794922 77.65014648 C-16.14545166 76.72306885 -16.1429541 75.79599121 -16.14038086 74.84082031 C-16.11451904 73.85106201 -16.08865723 72.86130371 -16.06201172 71.84155273 C-16.048396 70.81376709 -16.03478027 69.78598145 -16.02075195 68.72705078 C-15.87524851 61.56861326 -15.33390161 54.50854981 -14.4675293 47.40429688 C-13.77594321 41.69284314 -13.45734932 36.02683746 -13.24951172 30.27905273 C-12.9823502 23.72238364 -12.40574485 17.31461022 -11.31201172 10.84155273 C-11.19801025 10.13305176 -11.08400879 9.42455078 -10.96655273 8.69458008 C-9.601609 1.2927008 -7.38084156 0.03263921 0 0 Z " fill="#FAFAFA" transform="translate(33.68701171875,225.595947265625)"/>
<path d="M0 0 C41.62162162 0 41.62162162 0 49.375 5.3125 C53.89213574 9.9371866 55.18799348 13.47636513 55.4375 19.875 C55.25636669 26.82706905 53.36625903 31.3708233 48.75 36.5 C48.1725 36.995 47.595 37.49 47 38 C48.3921875 39.051875 48.3921875 39.051875 49.8125 40.125 C53.04289523 42.56574306 54.48467826 45.26072076 56 49 C57.02681126 57.4087517 56.93120044 65.83763346 52 73 C47.98863853 77.23421489 44.90229821 77.78663817 39 80 C26.13 80 13.26 80 0 80 C0 53.6 0 27.2 0 0 Z " fill="#17223B" transform="translate(124,232)"/>
<path d="M0 0 C42.82222222 0 42.82222222 0 49.9375 6.8125 C55.35873082 15.19076582 55.97052595 21.98545202 55 32 C53.69471149 36.73250757 51.79681739 40.12350088 48.5 43.75 C45.90126024 49.38060282 48.96498537 54.43140695 51 60 C51.9473491 62.84469908 52.85000346 65.70253282 53.75 68.5625 C54.08342407 69.58029541 54.08342407 69.58029541 54.42358398 70.61865234 C55.4927206 73.95965193 56 76.44617342 56 80 C48.41 80 40.82 80 33 80 C31.01875347 74.0562604 29.08702861 68.12944726 27.3125 62.125 C27.08755859 61.37992187 26.86261719 60.63484375 26.63085938 59.8671875 C25.72851171 56.81730726 25 54.19830164 25 51 C24.01 51 23.02 51 22 51 C22 60.57 22 70.14 22 80 C14.74 80 7.48 80 0 80 C0 53.6 0 27.2 0 0 Z " fill="#19243C" transform="translate(437,232)"/>
<path d="M0 0 C10.89 0 21.78 0 33 0 C34.20170983 4.20598442 35.29227392 8.09674108 36.09741211 12.3425293 C36.28778549 13.3385466 36.47815887 14.3345639 36.67430115 15.36076355 C36.87330521 16.42120377 37.07230927 17.48164398 37.27734375 18.57421875 C37.59536705 20.25279716 37.59536705 20.25279716 37.91981506 21.96528625 C38.3676875 24.33437887 38.81389436 26.70378689 39.25854492 29.07348633 C39.92695523 32.63137119 40.60273407 36.18779824 41.27929688 39.74414062 C43.81022589 53.13122921 46.07495394 66.51197101 48 80 C40.74 80 33.48 80 26 80 C24 71 24 71 24 67 C19.05 67.33 14.1 67.66 9 68 C8.34 71.96 7.68 75.92 7 80 C0.07 80 -6.86 80 -14 80 C-13.37250104 74.98000832 -12.71363893 70.08381292 -11.8359375 65.1171875 C-11.72304382 64.47620117 -11.61015015 63.83521484 -11.49383545 63.17480469 C-11.12308914 61.07447383 -10.74918814 58.97472019 -10.375 56.875 C-10.11309769 55.39730186 -9.85121661 53.91959996 -9.58935547 52.44189453 C-6.48066549 34.94528976 -3.24131692 17.47242437 0 0 Z " fill="#FF6544" transform="translate(261,232)"/>
<path d="M0 0 C10.89 0 21.78 0 33 0 C34.20170983 4.20598442 35.29227392 8.09674108 36.09741211 12.3425293 C36.28778549 13.3385466 36.47815887 14.3345639 36.67430115 15.36076355 C36.87330521 16.42120377 37.07230927 17.48164398 37.27734375 18.57421875 C37.59536705 20.25279716 37.59536705 20.25279716 37.91981506 21.96528625 C38.3676875 24.33437887 38.81389436 26.70378689 39.25854492 29.07348633 C39.92695523 32.63137119 40.60273407 36.18779824 41.27929688 39.74414062 C43.81022589 53.13122921 46.07495394 66.51197101 48 80 C40.74 80 33.48 80 26 80 C24 71 24 71 24 67 C19.05 67.33 14.1 67.66 9 68 C8.34 71.96 7.68 75.92 7 80 C0.07 80 -6.86 80 -14 80 C-13.37250104 74.98000832 -12.71363893 70.08381292 -11.8359375 65.1171875 C-11.72304382 64.47620117 -11.61015015 63.83521484 -11.49383545 63.17480469 C-11.12308914 61.07447383 -10.74918814 58.97472019 -10.375 56.875 C-10.11309769 55.39730186 -9.85121661 53.91959996 -9.58935547 52.44189453 C-6.48066549 34.94528976 -3.24131692 17.47242437 0 0 Z " fill="#FF6544" transform="translate(197,232)"/>
<path d="M0 0 C10.89 0 21.78 0 33 0 C36.12850131 13.58723551 38.73303076 27.20351545 41.125 40.9375 C41.4748832 42.9304048 41.82514211 44.92324368 42.17578125 46.91601562 C42.67061646 49.7286061 43.16499957 52.54126335 43.65628052 55.35447693 C43.8033847 56.19648148 43.95048889 57.03848602 44.10205078 57.90600586 C44.24596252 58.73462128 44.38987427 59.56323669 44.53814697 60.41696167 C44.8639196 62.23893344 45.20501958 64.05819708 45.55706787 65.87527466 C45.83215179 67.30708572 45.83215179 67.30708572 46.11279297 68.76782227 C46.36680374 70.05560326 46.36680374 70.05560326 46.62594604 71.36940002 C47 74 47 74 47 80 C40.07 80 33.14 80 26 80 C25.34 75.71 24.68 71.42 24 67 C19.05 67.33 14.1 67.66 9 68 C8.690625 69.794375 8.38125 71.58875 8.0625 73.4375 C7.125 78.875 7.125 78.875 6 80 C4.5112814 80.08669432 3.018555 80.10703494 1.52734375 80.09765625 C0.62822266 80.09443359 -0.27089844 80.09121094 -1.19726562 80.08789062 C-2.61555664 80.07532227 -2.61555664 80.07532227 -4.0625 80.0625 C-5.01189453 80.05798828 -5.96128906 80.05347656 -6.93945312 80.04882812 C-9.29303065 80.0370011 -11.64648477 80.02052025 -14 80 C-13.4641119 69.49900168 -11.26602658 59.29135088 -9.25 49 C-8.70548738 46.18870831 -8.16285753 43.37705703 -7.62023926 40.56539917 C-7.25979581 38.69867788 -6.89871522 36.8320795 -6.5369873 34.96560669 C-4.28202195 23.32423792 -2.14477171 11.66219618 0 0 Z " fill="#18233C" transform="translate(383,232)"/>
<path d="M0 0 C0.67515656 -0.00686325 1.35031311 -0.0137265 2.04592896 -0.02079773 C4.27839174 -0.03910232 6.51015403 -0.03522266 8.74267578 -0.02954102 C10.29582956 -0.03410183 11.84898131 -0.0394071 13.40213013 -0.04542542 C16.65879508 -0.05436421 19.91521494 -0.05192567 23.171875 -0.04199219 C27.34062598 -0.03051446 31.50852841 -0.05069081 35.67716789 -0.07990932 C38.88572548 -0.09827974 42.09408016 -0.09797703 45.30267715 -0.0922718 C46.83923659 -0.09211862 48.3758098 -0.09816064 49.91231918 -0.11056328 C52.06447835 -0.12548456 54.21507634 -0.11478972 56.3671875 -0.09765625 C57.59057831 -0.09749008 58.81396912 -0.09732391 60.07443237 -0.09715271 C63.98514804 0.50807753 65.62521973 1.52338131 68.31298828 4.40405273 C69.09544373 6.85452271 69.09544373 6.85452271 69.31298828 9.40405273 C69.40278458 10.17780243 69.49258087 10.95155212 69.58509827 11.74874878 C69.65393723 12.55651764 69.72277618 13.3642865 69.79370117 14.1965332 C69.87370865 15.12295624 69.95371613 16.04937927 70.03614807 17.00387573 C70.1184819 17.99960602 70.20081573 18.9953363 70.28564453 20.02124023 C70.37301376 21.06941925 70.460383 22.11759827 70.55039978 23.19754028 C70.7344329 25.42492972 70.91672564 27.65246354 71.09741211 29.88012695 C71.36945538 33.2053126 71.65446258 36.52921653 71.93994141 39.85327148 C72.84027315 50.65222097 73.542547 61.45052957 73.74658203 72.28686523 C73.78115005 73.24938202 73.81571808 74.2118988 73.85133362 75.20358276 C73.8572905 76.09360992 73.86324738 76.98363708 73.86938477 77.90063477 C73.88323715 78.67698273 73.89708954 79.45333069 73.91136169 80.25320435 C72.96811961 83.64368038 71.29708667 84.63635657 68.31298828 86.40405273 C65.56067681 86.79115159 63.21170399 86.95235646 60.46508789 86.92163086 C59.69049728 86.92864014 58.91590668 86.93564941 58.11784363 86.94287109 C55.56663793 86.96042512 53.01654829 86.94883937 50.46533203 86.93530273 C48.6884388 86.93799814 46.911547 86.94188096 45.13465881 86.94689941 C41.41490605 86.95279069 37.69553805 86.94424257 33.97583008 86.92553711 C29.20843152 86.90273097 24.44193289 86.91588321 19.67456722 86.93982697 C16.00709755 86.95428088 12.33984129 86.94968115 8.67236519 86.9393158 C6.91449438 86.93664824 5.15660418 86.9399193 3.39875603 86.94923401 C0.94247974 86.95939503 -1.5123382 86.94390714 -3.96850586 86.92163086 C-4.69432861 86.92972778 -5.42015137 86.93782471 -6.16796875 86.94616699 C-9.59726684 86.88855637 -11.38806713 86.63457922 -14.13905334 84.51319885 C-15.98413181 81.99921647 -16.17887567 80.74248827 -16.14794922 77.65014648 C-16.14545166 76.72306885 -16.1429541 75.79599121 -16.14038086 74.84082031 C-16.11451904 73.85106201 -16.08865723 72.86130371 -16.06201172 71.84155273 C-16.048396 70.81376709 -16.03478027 69.78598145 -16.02075195 68.72705078 C-15.87524851 61.56861326 -15.33390161 54.50854981 -14.4675293 47.40429688 C-13.77594321 41.69284314 -13.45734932 36.02683746 -13.24951172 30.27905273 C-12.9823502 23.72238364 -12.40574485 17.31461022 -11.31201172 10.84155273 C-11.19801025 10.13305176 -11.08400879 9.42455078 -10.96655273 8.69458008 C-9.601609 1.2927008 -7.38084156 0.03263921 0 0 Z M-4.68701172 6.40405273 C-6.2098071 9.44964349 -6.16813348 12.71009934 -6.44091797 16.06030273 C-6.50609116 16.83603638 -6.57126434 17.61177002 -6.63841248 18.41101074 C-6.77584206 20.06525079 -6.91103393 21.71967801 -7.04418945 23.37426758 C-7.24426474 25.8394045 -7.45634747 28.30329262 -7.66943359 30.76733398 C-7.80234377 32.38576226 -7.93452446 34.00425063 -8.06591797 35.62280273 C-8.12840225 36.33295532 -8.19088654 37.04310791 -8.25526428 37.77478027 C-8.92084433 46.35826848 -8.68701172 54.7108047 -8.68701172 63.40405273 C16.06298828 63.40405273 40.81298828 63.40405273 66.31298828 63.40405273 C66.40094684 49.33813899 66.40094684 49.33813899 65.69189453 35.36889648 C65.62767807 34.55328751 65.56346161 33.73767853 65.49729919 32.89735413 C65.36366717 31.21986873 65.22667674 29.54264719 65.08618164 27.86572266 C64.87074729 25.28475428 64.66836696 22.70297232 64.46728516 20.12084961 C64.33456707 18.47430498 64.20113266 16.82781789 64.06689453 15.18139648 C64.00643448 14.41182114 63.94597443 13.64224579 63.88368225 12.84934998 C63.87145321 9.32734522 63.87145321 9.32734522 62.31298828 6.40405273 C60.22679806 6.30987501 58.13738351 6.28662396 56.04907227 6.29052734 C55.39543701 6.29038132 54.74180176 6.29023529 54.06835938 6.29008484 C51.898567 6.29078391 49.72885949 6.29857596 47.55908203 6.30639648 C46.05835517 6.30826069 44.55762771 6.30968458 43.05690002 6.3106842 C39.09980602 6.31450921 35.1427485 6.32433934 31.18566895 6.33538818 C27.15063979 6.34560268 23.11560476 6.35018191 19.08056641 6.35522461 C11.15802359 6.36596163 3.23551047 6.38303783 -4.68701172 6.40405273 Z " fill="#232D45" transform="translate(33.68701171875,225.595947265625)"/>
<path d="M0 0 C18.15 0 36.3 0 55 0 C55 16.07985509 55 16.07985509 51.7109375 22.3125 C51.37003082 23.01415283 51.02912415 23.71580566 50.67788696 24.4387207 C49.60221789 26.63946354 48.49066752 28.81931071 47.375 31 C46.2934086 33.17679384 45.21968432 35.35735542 44.14605713 37.53808594 C43.44488812 38.95972033 42.74030879 40.37967829 42.03216553 41.79785156 C38.73718177 48.42233777 35.84807648 55.17180401 33 62 C40.26 62 47.52 62 55 62 C55 67.94 55 73.88 55 80 C37.84 80 20.68 80 3 80 C3 63.91602705 3 63.91602705 6.25390625 58.125 C6.59244125 57.46773926 6.93097626 56.81047852 7.2797699 56.13330078 C8.34792806 54.07383521 9.45328301 52.03758603 10.5625 50 C11.27674076 48.64201665 11.98834257 47.28264197 12.69726562 45.921875 C14.09267347 43.25070352 15.50183625 40.58757823 16.92236328 37.9296875 C20.07035091 32.01397629 23.02522088 26.0042848 26 20 C17.75 20 9.5 20 1 20 C0 9 0 9 0 0 Z " fill="#18233B" transform="translate(311,232)"/>
<path d="M0 0 C25.41 0 50.82 0 77 0 C77 3.63 77 7.26 77 11 C51.59 11 26.18 11 0 11 C0 7.37 0 3.74 0 0 Z " fill="#FDFDFE" transform="translate(24,295)"/>
<path d="M0 0 C1.875 1.1875 1.875 1.1875 3 3 C3.3125 5.5625 3.3125 5.5625 3 8 C2.34 8.66 1.68 9.32 1 10 C0.22417436 15.83910879 -0.22466254 22.10376778 3.125 27.1875 C5.77393757 30.16109845 7.99565489 31.39557055 12 32 C18.24141386 32.24738786 18.24141386 32.24738786 23.71875 29.66015625 C27.48976913 25.1765899 28.15584915 22.22247408 28.1875 16.5 C28.20167969 15.3346875 28.21585938 14.169375 28.23046875 12.96875 C28.31443714 9.88093282 28.31443714 9.88093282 26 8 C25.64428576 5.22542896 25.63594673 3.62103204 27.0625 1.1875 C30.05550269 -0.646921 32.57816663 -0.31107576 36 0 C38 2 38 2 38.125 5.625 C38.08375 6.73875 38.0425 7.8525 38 9 C37.01 9.33 36.02 9.66 35 10 C35.04640625 10.845625 35.0928125 11.69125 35.140625 12.5625 C35.36426053 19.5910451 35.49456496 25.32592213 31 31 C25.74139581 36.33135168 22.34634525 39.14773909 14.75 39.3125 C8.15019129 39.23989484 5.03302181 38.09911672 0.38671875 33.3515625 C-5.5079811 26.90819131 -6.26634831 21.47036107 -6.65625 12.86328125 C-6.71632676 9.87182041 -6.71632676 9.87182041 -9 8 C-9.3125 5 -9.3125 5 -9 2 C-5.53076119 -0.31282587 -4.07794425 -0.42478586 0 0 Z " fill="#232D44" transform="translate(48,238)"/>
<path d="M0 0 C8 0 8 0 9.97265625 1.65625 C11.87802176 6.00309147 11.61953991 10.36049089 11 15 C9.4375 17.6875 9.4375 17.6875 7 19 C4.69 19 2.38 19 0 19 C0 12.73 0 6.46 0 0 Z " fill="#F1F1F3" transform="translate(146,279)"/>
<path d="M0 0 C2.47960475 2.47960475 2.42797001 3.68703239 2.8515625 7.12109375 C2.98046875 8.13880859 3.109375 9.15652344 3.2421875 10.20507812 C3.36851562 11.27177734 3.49484375 12.33847656 3.625 13.4375 C3.82609375 15.03174805 3.82609375 15.03174805 4.03125 16.65820312 C5 24.47245695 5 24.47245695 5 28 C2.03 28 -0.94 28 -4 28 C-2.57943925 5.1588785 -2.57943925 5.1588785 0 0 Z " fill="#EEEFF1" transform="translate(399,256)"/>
<path d="M0 0 C7 0 7 0 8.91796875 1.22265625 C10.27290072 3.44826652 10.36939363 4.84227507 10.3125 7.4375 C10.30863281 8.19933594 10.30476562 8.96117187 10.30078125 9.74609375 C9.96874888 12.23418048 9.32236463 13.87393673 8 16 C6 17 6 17 0 17 C0 11.39 0 5.78 0 0 Z " fill="#EBECEE" transform="translate(146,250)"/>
<path d="M0 0 C2.98199157 2.98199157 2.99497348 6.60697369 3.625 10.625 C3.7590625 11.40746094 3.893125 12.18992187 4.03125 12.99609375 C4.85450284 18.06161889 5.12913953 22.8696386 5 28 C2.03 28 -0.94 28 -4 28 C-3.53079589 18.40558492 -2.05805771 9.3583379 0 0 Z " fill="#FFF4F2" transform="translate(277,256)"/>
<path d="M0 0 C2.98199157 2.98199157 2.99497348 6.60697369 3.625 10.625 C3.7590625 11.40746094 3.893125 12.18992187 4.03125 12.99609375 C4.85450284 18.06161889 5.12913953 22.8696386 5 28 C2.03 28 -0.94 28 -4 28 C-3.53079589 18.40558492 -2.05805771 9.3583379 0 0 Z " fill="#FFF4F2" transform="translate(213,256)"/>
<path d="M0 0 C6 0 6 0 9 2 C9.3984375 4.93359375 9.3984375 4.93359375 9.375 8.4375 C9.38273437 9.59121094 9.39046875 10.74492187 9.3984375 11.93359375 C9 15 9 15 7.8515625 16.91015625 C6 18 6 18 0 18 C0 12.06 0 6.12 0 0 Z " fill="#F9FAFA" transform="translate(459,252)"/>
</svg>
